<svg width="206" height="206" viewBox="0 0 206 206" fill="none" xmlns="http://www.w3.org/2000/svg">
<path d="M194.18 186.088H26.7173C20.3759 186.088 15.2349 180.947 15.2349 174.605V120.962C15.2349 114.62 20.3759 109.479 26.7173 109.479H194.18C200.522 109.479 205.663 114.62 205.663 120.962V174.605C205.663 180.947 200.522 186.088 194.18 186.088Z" fill="white"/>
<path d="M178.6 138.457C172.1 138.457 166.813 143.745 166.813 150.244C166.813 156.744 172.1 162.032 178.6 162.032C185.1 162.032 190.387 156.744 190.387 150.244C190.387 143.745 185.1 138.457 178.6 138.457ZM178.6 164.325C170.837 164.325 164.52 158.009 164.52 150.244C164.52 142.481 170.837 136.164 178.6 136.164C186.363 136.164 192.681 142.481 192.681 150.244C192.681 158.009 186.363 164.325 178.6 164.325Z" fill="#B2CFF3"/>
<path d="M148.721 159.858H100.069C95.7662 159.858 92.2773 156.369 92.2773 152.066C92.2773 147.762 95.7662 144.274 100.069 144.274H148.721C153.024 144.274 156.513 147.762 156.513 152.066C156.513 156.369 153.024 159.858 148.721 159.858Z" fill="#E1E1E1"/>
<path d="M85.0576 151.885C84.0097 167.993 70.1011 180.201 53.9936 179.153C37.8848 178.105 25.6766 164.197 26.7257 148.089C27.7736 131.98 41.6821 119.772 57.7897 120.821C73.8973 121.869 86.1055 135.778 85.0576 151.885Z" fill="white"/>
<path d="M31.1958 165.132L44.0656 161.231L64.9771 164.454L79.0266 167.588C79.0266 167.588 71.2406 179.121 55.8473 178.973C47.6565 178.894 41.3139 175.601 37.1887 172.122C33.1025 168.676 31.1958 165.132 31.1958 165.132Z" fill="#D0A2F7"/>
<path d="M72.4517 149.387C72.3864 145.459 71.593 137.383 70.7904 130.081C69.9271 122.228 63.1797 116.354 55.2825 116.583L54.4982 116.606C46.0529 117.347 41.9632 124.932 42.9366 133.354L44.7619 162.613L56.4657 170.062L64.5808 166.644L64.4914 159.021C64.4914 159.021 72.587 157.52 72.4517 149.387Z" fill="#FFC19D"/>
<path d="M67.9633 137.94C68.0034 138.552 67.5162 139.091 66.8775 139.144C66.2401 139.197 65.6897 138.745 65.6508 138.132C65.6106 137.519 66.0968 136.981 66.7342 136.928C67.374 136.874 67.9232 137.328 67.9633 137.94Z" fill="#1E1E1E"/>
<path d="M69.2667 133.676C69.1268 133.832 68.2291 133.206 66.9794 133.246C65.7308 133.267 64.8319 133.937 64.692 133.787C64.6244 133.722 64.762 133.444 65.153 133.142C65.5382 132.841 66.1997 132.54 66.9782 132.52C67.7567 132.502 68.4206 132.77 68.8046 133.052C69.1979 133.335 69.3355 133.606 69.2667 133.676Z" fill="#1E1E1E"/>
<path d="M56.4638 137.94C56.5028 138.552 56.0166 139.091 55.378 139.144C54.7406 139.197 54.1902 138.745 54.1512 138.132C54.1111 137.519 54.5972 136.981 55.2347 136.928C55.8745 136.874 56.4237 137.328 56.4638 137.94Z" fill="#1E1E1E"/>
<path d="M56.8055 133.686C56.6839 133.855 55.7209 133.331 54.4849 133.506C53.2455 133.663 52.4246 134.426 52.2698 134.292C52.1941 134.235 52.3008 133.944 52.6585 133.601C53.0082 133.26 53.633 132.889 54.4058 132.786C55.1774 132.684 55.8653 132.877 56.2792 133.116C56.6988 133.355 56.8662 133.609 56.8055 133.686Z" fill="#1E1E1E"/>
<path d="M61.6862 143.831C61.6782 143.76 62.4509 143.603 63.7052 143.405C64.0228 143.363 64.3232 143.291 64.3702 143.072C64.439 142.839 64.2957 142.5 64.1306 142.133C63.8073 141.369 63.4702 140.569 63.1159 139.731C61.7057 136.31 60.6738 133.493 60.8125 133.436C60.9513 133.381 62.2067 136.109 63.617 139.53C63.9575 140.374 64.2831 141.179 64.5926 141.948C64.7234 142.307 64.9435 142.713 64.7944 143.196C64.7153 143.436 64.486 143.616 64.2831 143.677C64.0802 143.746 63.9013 143.754 63.7431 143.768C62.4785 143.873 61.6931 143.902 61.6862 143.831Z" fill="#1E1E1E"/>
<path d="M56.8207 128.29C56.7072 128.633 55.4552 128.508 53.9945 128.728C52.5293 128.917 51.3598 129.382 51.1557 129.082C51.0652 128.939 51.2624 128.614 51.7301 128.271C52.1945 127.929 52.9409 127.594 53.8191 127.472C54.6962 127.349 55.5057 127.466 56.0457 127.668C56.5903 127.868 56.8689 128.127 56.8207 128.29Z" fill="#1E1E1E"/>
<path d="M68.9225 128.849C68.7104 129.139 67.8414 128.87 66.806 128.886C65.7696 128.866 64.9005 129.132 64.6896 128.841C64.5978 128.7 64.7262 128.411 65.1023 128.131C65.4715 127.853 66.0963 127.616 66.8083 127.617C67.5203 127.619 68.144 127.857 68.5121 128.138C68.887 128.419 69.0154 128.708 68.9225 128.849Z" fill="#1E1E1E"/>
<path d="M43.776 139.355C43.6361 139.299 38.1408 137.864 38.4802 143.418C38.8196 148.972 44.3252 147.486 44.3252 147.327C44.3252 147.166 43.776 139.355 43.776 139.355Z" fill="#FFC19D"/>
<path d="M42.5 145.326C42.4748 145.31 42.4072 145.399 42.2478 145.484C42.093 145.567 41.8225 145.635 41.5266 145.544C40.9259 145.364 40.3755 144.463 40.2872 143.463C40.2425 142.959 40.3194 142.471 40.4741 142.062C40.6186 141.645 40.864 141.345 41.1563 141.274C41.4452 141.188 41.6654 141.353 41.7433 141.505C41.827 141.656 41.7984 141.768 41.8282 141.776C41.8454 141.789 41.9417 141.676 41.8832 141.45C41.8534 141.341 41.78 141.213 41.6436 141.115C41.5037 141.014 41.3042 140.972 41.1001 141.006C40.6736 141.062 40.3125 141.479 40.1416 141.929C39.9479 142.382 39.8504 142.931 39.9009 143.497C40.0052 144.614 40.6415 145.626 41.459 145.81C41.8557 145.888 42.1744 145.75 42.3349 145.608C42.4978 145.46 42.5195 145.335 42.5 145.326Z" fill="#FF9C6A"/>
<path d="M71.4172 120.567C71.142 119.497 70.3142 118.49 69.2181 118.36C69.272 118.191 68.0762 117.618 67.1452 116.965C66.2154 116.314 66.0182 114.766 65.1766 115.529C65.195 113.832 63.0739 112.526 61.5674 113.308C61.5995 112.324 60.1503 111.995 59.1975 111.748C58.2436 111.499 57.8813 111.356 57.4284 112.231C56.2085 110.27 52.9466 110.1 51.5284 111.923C49.2869 111.194 46.5868 112.481 45.743 114.682C43.9303 114.831 42.2793 116.196 41.7955 117.949C40.6318 118.08 40.3578 118.994 39.8877 120.066C39.4176 121.138 38.7721 122.327 39.4646 123.269C38.0773 123.988 37.8503 126.223 39.0645 127.205C38.7538 127.369 38.4855 127.606 38.2745 127.886C37.1073 128.622 36.7645 130.427 37.6244 131.521C36.7817 132.196 36.4435 133.433 36.8253 134.443C37.2071 135.453 38.2802 136.157 39.358 136.107C38.4648 137.41 39.6263 139.153 40.3027 139.529C40.3027 139.529 42.5751 138.56 42.9581 140.238C42.9351 140.266 42.9466 140.251 42.9581 140.238C42.8343 140.954 43.701 141.586 44.3626 141.284C45.0241 140.983 45.3853 140.28 45.7545 139.653C46.1775 138.935 46.6786 138.237 46.8563 137.423C47.0351 136.609 46.7806 135.622 46.0296 135.259C46.9812 134.914 47.5729 133.918 47.7253 132.917C47.8778 131.917 47.6715 130.9 47.4651 129.911C47.1601 128.449 46.8563 126.987 46.5524 125.525C48.5657 125.418 50.4655 124.09 51.2589 122.236C52.7299 123.307 55.1262 122.645 55.8416 120.973C56.5433 122.947 58.9831 124.099 60.9528 123.388C60.7659 124.545 62.8618 125.555 64.0026 125.826C65.1422 126.096 66.5376 125.257 66.5376 125.257C66.5376 125.257 68.5176 126.352 69.5701 125.896C70.6043 125.449 71.9755 124.068 71.2567 122.987C71.2567 122.987 71.6924 121.636 71.4172 120.567Z" fill="#1E1E1E"/>
<path d="M60.8345 113.17C60.8115 113.198 60.6499 112.953 60.1981 112.827C59.9769 112.769 59.6788 112.755 59.3876 112.896C59.0998 113.031 58.8166 113.326 58.7352 113.719L58.6687 114.039L58.4933 113.759C58.1814 113.258 57.521 112.825 56.754 112.845C56.0042 112.855 55.1798 113.436 54.9574 114.295L54.8622 114.664L54.6214 114.367C54.18 113.824 53.4371 113.477 52.6723 113.498C51.9099 113.505 51.1532 113.962 50.7324 114.659C50.5593 114.939 50.4515 115.252 50.4068 115.567L50.3758 115.793L50.1546 115.745C49.0734 115.508 47.9165 116.146 47.5393 117.06C47.1392 117.984 47.4178 119.055 48.006 119.648L48.2261 119.869L47.9223 119.932C47.1919 120.082 46.6152 120.542 46.285 121.044C45.9457 121.549 45.8528 122.097 45.862 122.531C45.8929 123.419 46.2449 123.85 46.1922 123.87C46.1807 123.878 46.089 123.784 45.9697 123.569C45.8528 123.354 45.7095 123.01 45.6705 122.54C45.6304 122.078 45.7003 121.474 46.0546 120.897C46.3997 120.329 47.0211 119.794 47.8512 119.602L47.7675 119.886C47.0693 119.21 46.7253 118.006 47.1782 116.906C47.6288 115.81 48.9438 115.064 50.2451 115.338L49.9929 115.514C50.0445 115.137 50.1729 114.769 50.3747 114.441C50.8608 113.631 51.7574 113.091 52.6632 113.087C53.5598 113.071 54.407 113.478 54.9218 114.125L54.5847 114.197C54.876 113.156 55.8494 112.506 56.7482 112.512C57.6529 112.513 58.3809 113.035 58.7191 113.623L58.4784 113.662C58.6022 113.174 58.9565 112.85 59.3039 112.708C59.6604 112.561 60.0021 112.605 60.2394 112.692C60.4825 112.779 60.6373 112.908 60.7256 113.004C60.815 113.101 60.8425 113.163 60.8345 113.17Z" fill="#4A4A4A"/>
<path d="M72.2241 144.945C71.3733 144.324 69.9677 144.788 69.6558 145.795C69.1846 145.137 68.3236 144.784 67.5256 144.922C66.7288 145.06 66.0362 145.681 65.8138 146.459C65.4469 145.278 63.5873 144.963 62.8523 145.958C62.5497 145.462 61.9053 145.203 61.3435 145.352C61.4089 144.81 61.1153 144.243 60.6361 143.982C60.1569 143.721 59.5205 143.784 59.102 144.134C58.4806 143.01 56.7459 142.722 55.7955 143.586C55.6361 143.069 55.1053 142.692 54.5652 142.712C54.0241 142.731 53.5219 143.145 53.4015 143.673C52.8753 142.991 51.8697 142.729 51.0786 143.07C51.0867 142.263 50.1775 141.592 49.4093 141.837C49.6019 141.152 48.5941 140.842 48.0782 140.35C47.8466 140.13 47.6998 139.83 47.451 139.629C47.2022 139.429 46.7711 139.386 46.6083 139.66C46.7402 139.112 46.4008 138.492 45.8677 138.307C45.3357 138.121 44.6845 138.399 44.4483 138.911C44.3084 139.215 44.3084 139.56 44.2602 139.89C44.1066 140.957 43.5081 142.224 44.282 142.972C44.4185 143.105 44.595 143.214 44.6535 143.395C44.7521 143.704 44.4494 143.998 44.4276 144.322C44.4013 144.699 44.7475 144.984 44.9012 145.329C45.1293 145.84 44.9206 146.427 44.8805 146.984C44.8415 147.541 45.158 148.249 45.714 148.192C45.299 149.003 45.5776 150.102 46.3286 150.616C45.8975 151.557 46.4581 152.816 47.4476 153.125C47.0773 153.422 47.1036 154.025 47.3754 154.413C47.6471 154.802 48.0908 155.028 48.515 155.238C48.1286 155.438 48.0805 156.016 48.3201 156.38C48.5609 156.742 48.9908 156.929 49.4104 157.046C49.5905 157.096 49.7888 157.149 49.8954 157.303C50.0949 157.592 49.8278 157.984 49.8817 158.33C49.9654 158.861 50.7129 159.013 50.9365 159.501C51.136 159.935 50.8757 160.545 51.2243 160.872C51.4501 161.085 51.8078 161.045 52.1002 161.148C52.6207 161.33 52.8523 161.917 53.1848 162.359C53.8097 163.191 54.8714 163.556 55.8803 163.81C56.3951 163.941 56.9133 164.055 57.435 164.151C58.4749 164.344 59.5251 164.471 60.5753 164.597C61.097 164.66 61.7391 164.668 62.0119 164.22C62.7411 165.113 64.3967 164.917 64.8977 163.879C65.8368 164.13 66.8136 163.734 67.7056 163.346C68.0129 163.212 68.3201 163.078 68.6285 162.944C69.5458 162.543 70.5673 162.03 70.8379 161.066C72.0406 160.895 72.8306 159.387 72.2883 158.3C72.7067 158.421 73.1126 157.997 73.1791 157.568C73.2456 157.136 73.092 156.708 73.014 156.28C72.6964 154.537 73.6205 152.762 73.3798 151.008C73.2112 149.78 72.4797 148.566 72.8306 147.377C72.9028 147.133 73.0209 146.891 73.0037 146.637C72.9865 146.382 72.7515 146.118 72.5072 146.194C72.8214 145.492 72.122 144.574 71.3619 144.69" fill="#1E1E1E"/>
<path d="M57.5553 145.082C57.7583 145.064 57.8007 146.42 58.9896 147.349C60.1763 148.281 61.6175 148.087 61.6335 148.276C61.6553 148.361 61.3194 148.549 60.7094 148.584C60.1109 148.621 59.2316 148.454 58.5047 147.886C57.7789 147.317 57.451 146.538 57.3891 145.983C57.3214 145.417 57.4625 145.076 57.5553 145.082Z" fill="white"/>
<path d="M50.1026 154.357C50.1714 154.334 49.6039 153.107 49.5798 151.483C49.5351 149.858 50.0499 148.608 49.98 148.589C49.957 148.578 49.7977 148.875 49.6394 149.394C49.4801 149.911 49.3436 150.657 49.3608 151.487C49.3792 152.317 49.5466 153.058 49.7277 153.567C49.9077 154.079 50.0797 154.368 50.1026 154.357Z" fill="#4A4A4A"/>
<path d="M48.8244 152.396C48.8531 152.37 48.6547 152.178 48.5149 151.779C48.3693 151.384 48.32 150.792 48.3796 150.139C48.4793 148.825 48.8428 147.805 48.7797 147.784C48.7304 147.758 48.2649 148.77 48.1606 150.121C48.0987 150.791 48.1755 151.426 48.3716 151.838C48.5619 152.255 48.813 152.414 48.8244 152.396Z" fill="#4A4A4A"/>
<path d="M47.4587 151.27C47.524 151.242 46.9198 150.239 46.8716 148.848C46.8028 147.457 47.3199 146.407 47.2523 146.385C47.2305 146.374 47.07 146.616 46.9129 147.057C46.7547 147.495 46.624 148.141 46.6526 148.857C46.6848 149.574 46.8693 150.206 47.0631 150.629C47.2569 151.055 47.438 151.283 47.4587 151.27Z" fill="#4A4A4A"/>
<path d="M70.0855 159.579C70.0889 159.601 70.4546 159.507 70.8594 159.085C71.2664 158.67 71.6275 157.937 71.8305 157.098C72.0426 156.254 72.0644 155.46 72.0139 154.897C71.9646 154.331 71.8626 153.994 71.8373 154C71.7674 154.002 72.0391 155.397 71.6172 157.044C71.4189 157.865 71.0967 158.566 70.7436 158.982C70.3939 159.404 70.0671 159.545 70.0855 159.579Z" fill="#4A4A4A"/>
<path d="M68.9008 159.283C68.9135 159.303 69.1783 159.168 69.5268 158.844C69.8742 158.522 70.2847 157.986 70.553 157.306C70.819 156.625 70.8832 155.955 70.8476 155.481C70.8144 155.007 70.7124 154.728 70.6894 154.734C70.6527 154.741 70.6997 155.027 70.6929 155.486C70.6883 155.943 70.6023 156.576 70.3489 157.226C70.0921 157.875 69.7241 158.397 69.4156 158.735C69.1084 159.076 68.8791 159.253 68.9008 159.283Z" fill="#4A4A4A"/>
<path d="M70.9716 125.192C70.9716 125.192 69.0993 122.282 65.4798 121.209C58.7565 119.216 49.3149 118.455 39.3515 128.28L37.8977 128.937C37.8977 128.937 37.5985 125.59 38.1087 123.113C38.4481 121.46 41.4657 111.817 52.2351 110.805C52.2351 110.805 68.7004 108.122 70.9716 125.192Z" fill="#4A4A4A"/>
<mask id="mask0_9988_3132" style="mask-type:luminance" maskUnits="userSpaceOnUse" x="37" y="110" width="34" height="19">
<path d="M37.8105 110.653H70.9715V128.938H37.8105V110.653Z" fill="white"/>
</mask>
<g mask="url(#mask0_9988_3132)">
<g opacity="0.300003">
<path d="M70.9716 125.192C70.9716 125.192 69.0993 122.282 65.4798 121.209C58.7565 119.216 49.3149 118.455 39.3515 128.28L37.8977 128.937C37.8977 128.937 37.5985 125.59 38.1087 123.113C38.4481 121.46 41.4657 111.817 52.2351 110.805C52.2351 110.805 68.7004 108.122 70.9716 125.192Z" fill="#1E1E1E"/>
</g>
</g>
<path d="M39.351 128.28C43.4395 123.8 48.7066 121.223 54.2409 119.17C59.7741 117.118 68.506 115.757 74.3992 115.424C76.1694 115.324 77.9981 115.296 79.648 115.944C81.2967 116.591 82.7367 118.075 82.8147 119.845C82.9121 122.06 78.5037 124.541 76.4836 125.457C74.4634 126.375 70.3405 127.983 70.3405 127.983C70.3405 127.983 69.2364 122.949 65.2591 121.521C56.9983 118.556 39.0471 128.445 39.351 128.28Z" fill="#4A4A4A"/>
<path d="M71.472 121.93C70.9871 120.586 69.4668 119.703 68.0588 119.948C68.3948 119.553 68.3397 118.923 68.0313 118.505C67.7229 118.088 67.2196 117.854 66.7128 117.739C64.9345 117.337 62.9419 118.375 62.2517 120.063C61.4216 119.246 60.2074 118.767 58.6447 119.077C57.0946 119.385 56.1716 120.712 56.1716 121.657C56.1774 122.717 56.7105 123.333 57.6243 123.871C58.5381 124.408 59.9678 124.025 60.8976 123.515C61.2679 124.528 62.1519 125.335 63.193 125.612C64.234 125.89 65.4035 125.628 66.2278 124.935C67.1416 126.033 68.8717 126.344 70.1111 125.634C71.3517 124.923 71.957 123.273 71.472 121.93Z" fill="#1E1E1E"/>
<path d="M179.112 97.4541H11.783C5.44157 97.4541 0.300537 92.3131 0.300537 85.9716V32.3818C0.300537 26.0403 5.44157 20.8993 11.783 20.8993H179.112C185.453 20.8993 190.594 26.0403 190.594 32.3818V85.9716C190.594 92.3131 185.453 97.4541 179.112 97.4541Z" fill="white"/>
<path d="M164.076 75.6204C156.956 75.1079 151.599 68.9201 152.112 61.8001C152.624 54.6802 158.812 49.3236 165.932 49.8361C173.052 50.3486 178.408 56.5364 177.896 63.6564C177.383 70.7763 171.195 76.1329 164.076 75.6204Z" fill="#B2CFF3"/>
<path d="M164.215 69.522L156.462 63.4878L158.568 60.782L163.766 64.8281L171.21 56.3243L173.789 58.5818L164.215 69.522Z" fill="white"/>
<path d="M135.146 72.3352H86.5283C82.2276 72.3352 78.7422 68.8486 78.7422 64.5491C78.7422 60.2497 82.2276 56.7619 86.5283 56.7619H135.146C139.446 56.7619 142.932 60.2485 142.932 64.548C142.932 68.8475 139.446 72.3352 135.146 72.3352Z" fill="#E1E1E1"/>
<path d="M71.3091 63.5638C69.4403 79.5831 54.9379 91.0541 38.9186 89.1853C22.8982 87.3153 11.4271 72.814 13.2971 56.7947C15.166 40.7743 29.6684 29.3033 45.6877 31.1733C61.707 33.0421 73.178 47.5445 71.3091 63.5638Z" fill="white"/>
<path d="M20.4221 79.2298L31.6363 75.3109L49.5164 74.623L66.0035 77.7955C66.0035 77.7955 58.0042 90.2089 43.2128 89.7881C28.4214 89.3662 20.4221 79.2298 20.4221 79.2298Z" fill="#D0A2F7"/>
<path d="M54.3722 34.5758C58.1455 34.6606 61.3798 40.2717 60.8157 43.4293C60.5417 44.9633 59.8458 46.7233 61.0863 47.8606C62.3131 48.9865 64.8985 48.8925 66.0691 50.0528C66.0691 50.0528 67.5676 51.5467 67.4037 53.4832C67.2386 55.4208 67.5504 57.9971 69.0914 58.6861L61.4291 61.4252C60.6392 60.6249 60.3239 59.3637 59.5339 58.5634C60.4385 59.4027 61.3133 62.394 57.2145 62.7276L54.6669 60.4781C47.6949 62.2667 40.3697 64.491 34.801 61.4573" fill="#1E1E1E"/>
<path d="M18.8594 51.3374C19.3639 49.887 20.1905 48.549 20.539 47.0539C21.29 43.8402 19.7869 40.1771 21.4081 37.3016C22.5615 35.255 24.9555 34.2873 27.213 33.6384C29.4705 32.9906 31.6283 32.6077 33.3331 30.9922C34.584 29.8067 35.3144 28.1557 36.5606 26.9656C38.3377 25.2722 40.9232 24.7345 43.3767 24.6313C45.8957 24.5235 48.4925 24.8159 50.7351 25.9693C52.9778 27.1227 54.8168 29.2438 55.1734 31.7398C55.3465 32.9574 55.1734 34.2254 55.5334 35.4018C55.9301 36.6939 56.9207 37.712 57.5191 38.9239C58.7861 41.4852 58.0087 44.887 55.7558 46.6435L38.0557 68.6304C34.4006 69.9329 30.4267 65.2872 27.6727 62.5538C24.9188 59.8205 17.5844 55.0028 18.8594 51.3374Z" fill="#1E1E1E"/>
<path d="M55.3529 43.8002C54.7372 38.7199 50.9984 32.6605 45.9491 33.4906L30.3173 38.4172C28.7833 38.6694 27.9612 39.8951 27.4373 39.6658L32.0119 76.0222L42.7365 83.6179L49.4047 75.6197C49.4047 75.6197 48.9094 70.6323 48.9129 70.661C48.9129 70.661 55.3644 69.2026 56.2231 60.6266C56.6496 56.3615 56.0374 49.4434 55.3529 43.8002Z" fill="#FFC19D"/>
<path d="M41.6675 51.5299C41.7214 52.1043 41.2788 52.6237 40.6803 52.6902C40.083 52.7567 39.5533 52.3474 39.4994 51.773C39.4467 51.1986 39.8881 50.678 40.4854 50.6115C41.085 50.545 41.6136 50.9555 41.6675 51.5299Z" fill="#1E1E1E"/>
<path d="M52.4326 50.9894C52.4865 51.5638 52.0439 52.0832 51.4455 52.1497C50.8481 52.2162 50.3184 51.8068 50.2645 51.2324C50.2118 50.658 50.6532 50.1387 51.2517 50.071C51.8502 50.0045 52.3787 50.415 52.4326 50.9894Z" fill="#1E1E1E"/>
<path d="M54.3468 47.6838C54.2252 47.881 53.2243 47.2217 51.9528 47.3822C50.6802 47.521 49.8512 48.3958 49.6896 48.2318C49.6105 48.1607 49.716 47.8191 50.0748 47.4247C50.4268 47.0337 51.0643 46.6164 51.8565 46.5223C52.6488 46.4306 53.3619 46.6874 53.7919 46.9867C54.231 47.2871 54.4075 47.5943 54.3468 47.6838Z" fill="#1E1E1E"/>
<path d="M42.7206 48.7453C42.5681 48.9264 41.5844 48.1835 40.22 48.2167C38.8568 48.2271 37.8742 49.001 37.7217 48.8244C37.6472 48.7464 37.7963 48.4243 38.2251 48.0746C38.6458 47.726 39.3693 47.3821 40.22 47.3672C41.0708 47.3557 41.7954 47.6756 42.2161 48.0104C42.6438 48.3463 42.7951 48.665 42.7206 48.7453Z" fill="#1E1E1E"/>
<path d="M47.3008 56.8284C47.2916 56.7619 48.0128 56.5945 49.1857 56.3744C49.4838 56.3262 49.7635 56.2506 49.8025 56.0431C49.861 55.8229 49.7165 55.5076 49.5514 55.1671C49.2281 54.4586 48.8887 53.7167 48.5345 52.9383C47.1162 49.7624 46.0717 47.1437 46.2001 47.0875C46.3285 47.0325 47.5817 49.5606 48.9988 52.7365C49.3416 53.5195 49.6684 54.2671 49.9802 54.9814C50.1132 55.315 50.3299 55.6899 50.2038 56.1474C50.1362 56.3767 49.9252 56.5521 49.736 56.614C49.548 56.684 49.3795 56.6966 49.2316 56.7149C48.0472 56.8468 47.31 56.8949 47.3008 56.8284Z" fill="#1E1E1E"/>
<path d="M48.9132 70.6606C48.9132 70.6606 43.2173 71.3599 37.3562 68.2827C37.3562 68.2827 40.5745 74.3398 49.0336 73.0534L48.9132 70.6606Z" fill="#FF9C6A"/>
<path d="M46.9683 59.684C46.5143 59.1508 45.7575 58.8871 45.0284 59.0086C44.5227 59.0923 44.0229 59.3675 43.7374 59.7998C43.4519 60.232 43.4209 60.8247 43.7248 61.2031C44.0676 61.6308 44.7348 61.695 45.2852 61.5035C45.8355 61.312 46.2964 60.9153 46.7321 60.5221C46.8536 60.4131 46.9763 60.2996 47.0474 60.1563C47.1185 60.0119 47.1242 59.8296 47.0199 59.7195" fill="#FF9C6A"/>
<path d="M43.8962 57.8393C44.0865 57.8175 44.1622 59.0902 45.3041 59.9306C46.4438 60.7744 47.7932 60.5532 47.8127 60.7309C47.8356 60.81 47.5249 60.9957 46.954 61.0439C46.3922 61.0955 45.5621 60.9625 44.8627 60.4488C44.1668 59.9329 43.8377 59.2094 43.7643 58.69C43.6852 58.1604 43.809 57.837 43.8962 57.8393Z" fill="#1E1E1E"/>
<path d="M42.6848 44.7524C42.5874 45.078 41.4076 44.9943 40.0421 45.2397C38.6697 45.4575 37.5839 45.9253 37.3844 45.649C37.295 45.5171 37.4716 45.2064 37.9027 44.8716C38.3292 44.538 39.0217 44.2032 39.8426 44.0633C40.6635 43.9257 41.4271 44.0129 41.9407 44.1883C42.4567 44.3626 42.7261 44.5987 42.6848 44.7524Z" fill="#1E1E1E"/>
<path d="M53.9871 43.4523C53.767 43.732 52.8268 43.5096 51.717 43.56C50.6037 43.5772 49.6762 43.8581 49.4434 43.5921C49.3403 43.4614 49.4733 43.1863 49.87 42.91C50.2598 42.6359 50.9248 42.3917 51.6895 42.3676C52.4542 42.3447 53.1284 42.5477 53.5308 42.7987C53.939 43.0498 54.0834 43.3158 53.9871 43.4523Z" fill="#1E1E1E"/>
<path d="M13.8337 49.7055C14.6385 48.223 13.0919 46.5663 14.3244 45.1985C15.4503 43.951 18.4106 43.9098 19.4677 42.6394C20.292 41.6465 20.3276 41.384 20.3562 40.453C20.3918 39.287 20.9238 34.3833 28.0804 33.3949L29.0699 37.8515C29.5159 37.6417 29.9802 37.4617 30.4377 37.2943C36.2666 35.1698 42.3489 33.7435 48.5138 33.0544C49.2556 34.3317 48.515 36.0365 47.3421 36.9331C46.1692 37.8309 44.6764 38.1656 43.2834 38.6564C41.8903 39.1482 40.4572 39.9175 39.8621 41.2693C39.2281 42.7059 39.7073 44.4314 39.1467 45.899C38.1836 48.4236 34.6202 49.1758 33.6697 51.7061C32.952 53.6197 34.8552 55.8096 35.096 57.8389C35.3689 60.1389 35.8401 63.7 34.1306 65.2627C32.7835 66.4952 30.1121 68.2815 30.1121 68.2815L8.99416 55.0127C7.89693 52.323 12.7307 51.7348 13.8337 49.7055Z" fill="#1E1E1E"/>
<path d="M28.8299 66.0427C28.8299 66.0427 29.457 65.9636 30.4763 65.4786C31.4749 64.9937 32.9012 64.0432 33.9514 62.2924C34.4696 61.4234 34.8663 60.364 35.0257 59.1819C35.1919 58.0033 35.0991 56.6951 34.6806 55.4224C34.4834 54.7873 34.2426 54.1544 34.0867 53.4917C33.9296 52.8347 33.8688 52.1296 34.0259 51.4555C34.1704 50.7756 34.6187 50.1943 35.2344 49.8251C35.8455 49.4433 36.5701 49.2289 37.2855 48.9491C37.9975 48.6774 38.729 48.3243 39.2231 47.704C39.7081 47.0837 39.9053 46.3087 39.9512 45.5852C40.0647 44.1383 39.8193 42.7143 40.3089 41.5139L40.4006 41.2949L40.521 41.0931C40.5944 40.9544 40.693 40.834 40.7904 40.7148C40.9968 40.4866 41.2296 40.2848 41.4875 40.1255C42.0046 39.8044 42.5767 39.6049 43.1351 39.4376C44.253 39.1142 45.3513 38.8505 46.2158 38.2968C47.0814 37.759 47.7201 37.0757 48.1764 36.4165C48.6315 35.7526 48.8987 35.1071 49.0615 34.5682C49.2277 34.0282 49.2679 33.5891 49.2965 33.2956C49.3057 32.9998 49.3057 32.845 49.2954 32.845C49.2564 32.8393 49.3034 33.4756 48.9583 34.5361C48.784 35.0601 48.5066 35.6884 48.0502 36.3282C47.5916 36.9645 46.9599 37.6192 46.1149 38.1305C45.2734 38.6545 44.2071 38.901 43.0697 39.2186C42.5033 39.3825 41.9117 39.582 41.3591 39.9191C41.0828 40.0876 40.8294 40.3032 40.6024 40.5508C40.4958 40.6804 40.388 40.8111 40.3066 40.9613L40.1748 41.1803L40.0739 41.4176C39.5465 42.7155 39.8021 44.1612 39.6817 45.5623C39.6347 46.2651 39.4456 46.9737 39.0087 47.532C38.5662 48.0892 37.8874 48.424 37.1858 48.6923C36.4829 48.9686 35.7446 49.1842 35.0899 49.5923C34.7654 49.7976 34.4628 50.0487 34.2323 50.3594C34.0007 50.6701 33.8482 51.0289 33.7622 51.3935C33.5937 52.1273 33.6648 52.8703 33.8299 53.5525C33.995 54.2369 34.2403 54.8733 34.4387 55.4993C35.286 57.9952 34.7723 60.505 33.784 62.1938C32.7808 63.9148 31.3992 64.8756 30.4281 65.3823C29.9351 65.6391 29.5281 65.7916 29.2529 65.8914C28.9743 65.9843 28.8276 66.0324 28.8299 66.0427Z" fill="#1E1E1E"/>
<path d="M53.5252 34.9979C53.5333 35.0266 53.977 34.8489 54.8197 34.7663C55.6474 34.693 56.9293 34.7423 58.2615 35.452C59.572 36.1433 60.902 37.573 61.2998 39.5279C61.5039 40.4967 61.5016 41.5515 61.4168 42.6361C61.3755 43.1796 61.3147 43.731 61.262 44.2974C61.215 44.8661 61.1955 45.4589 61.3262 46.0528C61.4454 46.6398 61.7951 47.2268 62.3478 47.5088C62.8935 47.8001 63.4954 47.8092 64.0389 47.815C64.5904 47.8161 65.1166 47.8138 65.6073 47.9468C66.0969 48.0821 66.5544 48.3068 66.9396 48.6061C67.7192 49.1954 68.2271 50.0427 68.3808 50.8968C68.5459 51.7579 68.4496 52.5926 68.3601 53.3424C68.2627 54.0945 68.1641 54.7836 68.1618 55.3947C68.1549 56.0058 68.2249 56.5343 68.3487 56.9482C68.4679 57.3644 68.6319 57.6614 68.7614 57.8471C68.821 57.9434 68.8807 58.0065 68.9174 58.05C68.9552 58.0947 68.977 58.1154 68.9804 58.1119C69.0137 58.0936 68.6594 57.7416 68.4519 56.9207C68.3475 56.5137 68.2948 55.9966 68.3166 55.3993C68.3326 54.7996 68.4438 54.1232 68.5539 53.3676C68.6548 52.6155 68.7695 51.7648 68.6055 50.8544C68.453 49.9464 67.9187 49.0349 67.0944 48.4043C66.6862 48.0833 66.2012 47.8402 65.6761 47.6923C65.1453 47.5455 64.5835 47.5478 64.0412 47.5455C63.5012 47.5398 62.9428 47.5192 62.4785 47.2669C62.0072 47.025 61.7091 46.5343 61.5956 45.992C61.364 44.8913 61.6323 43.7505 61.6862 42.6556C61.7688 41.5607 61.7665 40.4783 61.5486 39.474C61.1187 37.4389 59.7188 35.9713 58.3521 35.2788C56.9614 34.568 55.6474 34.5519 54.8082 34.6597C54.3817 34.7159 54.0595 34.8019 53.844 34.8707C53.6307 34.9429 53.5218 34.9899 53.5252 34.9979Z" fill="#1E1E1E"/>
<path d="M17.9568 60.3916C17.9591 60.3904 17.9431 60.3457 17.9098 60.2597C17.8777 60.1737 17.8181 60.0499 17.778 59.8756C17.6805 59.534 17.5991 58.9985 17.7172 58.329C17.833 57.6697 18.1678 56.8603 18.8729 56.2068C19.2237 55.8811 19.6755 55.6197 20.1983 55.473C20.7223 55.3251 21.3081 55.2769 21.8975 55.074C22.191 54.9742 22.481 54.8195 22.723 54.5936C22.9672 54.37 23.1483 54.0765 23.2756 53.7601C23.5255 53.1214 23.5622 52.4037 23.5244 51.6848C23.4854 50.966 23.396 50.2253 23.4992 49.4778C23.5542 49.1075 23.662 48.7383 23.8603 48.4115C24.0736 48.0985 24.3269 47.797 24.6686 47.594C25.3336 47.1629 26.1499 46.9726 26.9662 46.7708C27.7803 46.5679 28.6516 46.373 29.4061 45.8697C29.7844 45.6266 30.1031 45.2781 30.3336 44.8825C30.5641 44.4835 30.6948 44.0352 30.783 43.5858C30.9573 42.6835 30.9585 41.7548 31.1293 40.849C31.4583 39.0329 32.8204 37.5356 34.4347 36.9313C35.243 36.6137 36.1121 36.5954 36.9559 36.5117C37.3779 36.4704 37.7998 36.412 38.2034 36.2801C38.6058 36.1528 38.9864 35.9442 39.2811 35.6461C39.8796 35.0407 40.086 34.2313 40.3474 33.5261C40.5904 32.805 40.9734 32.171 41.4503 31.6447C42.4169 30.6036 43.6929 30.0132 44.8911 29.8859C46.0972 29.7449 47.1967 30.0831 48.0211 30.5658C48.8523 31.0554 49.4279 31.6814 49.8177 32.2329C50.1972 32.797 50.4047 33.29 50.5079 33.6316C50.5721 33.8002 50.5905 33.9366 50.6191 34.0237C50.6432 34.1132 50.6569 34.1579 50.6592 34.1579C50.6592 34.1579 50.6375 33.9687 50.5411 33.6213C50.4483 33.2739 50.2488 32.7717 49.8727 32.1962C49.4875 31.6309 48.9108 30.99 48.0692 30.4833C47.2369 29.9834 46.1144 29.628 44.8773 29.7655C43.6505 29.8882 42.3423 30.4833 41.3449 31.5484C40.8553 32.0838 40.4529 32.7454 40.2052 33.4746C39.9415 34.1877 39.7294 34.9742 39.1699 35.5337C38.6115 36.1012 37.7654 36.2744 36.9387 36.3489C36.1075 36.4303 35.2167 36.4464 34.3751 36.7743C32.7069 37.3968 31.3024 38.9378 30.9608 40.8169C30.7865 41.7445 30.7853 42.6731 30.6156 43.5537C30.5297 43.9916 30.4047 44.4216 30.1857 44.7977C29.9679 45.1726 29.6721 45.4982 29.3109 45.7309C27.8502 46.6791 25.9928 46.5587 24.5826 47.4622C24.2249 47.6754 23.9509 47.9976 23.7273 48.3324C23.5175 48.6809 23.4051 49.0719 23.3501 49.456C23.2458 50.2311 23.3409 50.9809 23.3822 51.6917C23.4235 52.4003 23.3879 53.102 23.1529 53.7119C23.0325 54.0134 22.864 54.2898 22.6358 54.5007C22.4111 54.7128 22.1394 54.8619 21.8562 54.9605C21.2898 55.16 20.7028 55.2139 20.1685 55.3686C19.6319 55.5234 19.1653 55.7986 18.8087 56.1357C18.0898 56.8156 17.7596 57.6445 17.6507 58.3175C17.5406 59.0008 17.6358 59.5431 17.7447 59.8848C17.7906 60.0602 17.8571 60.1829 17.8938 60.2666C17.9328 60.3503 17.9545 60.3927 17.9568 60.3916Z" fill="#4A4A4A"/>
</svg>
