<svg width="400" height="400" viewBox="0 0 400 400" fill="none" xmlns="http://www.w3.org/2000/svg">
<path d="M102.511 36.662V42.5647" stroke="#645CAA" stroke-width="2.66667" stroke-miterlimit="10" stroke-linecap="round" stroke-linejoin="round"/>
<path d="M102.511 49.2209V55.1235" stroke="#645CAA" stroke-width="2.66667" stroke-miterlimit="10" stroke-linecap="round" stroke-linejoin="round"/>
<path d="M93.2798 45.8933H99.1838" stroke="#645CAA" stroke-width="2.66667" stroke-miterlimit="10" stroke-linecap="round" stroke-linejoin="round"/>
<path d="M105.839 45.8933H111.743" stroke="#645CAA" stroke-width="2.66667" stroke-miterlimit="10" stroke-linecap="round" stroke-linejoin="round"/>
<path d="M376.232 131V136.903" stroke="#645CAA" stroke-width="2.66667" stroke-miterlimit="10" stroke-linecap="round" stroke-linejoin="round"/>
<path d="M376.232 143.559V149.461" stroke="#645CAA" stroke-width="2.66667" stroke-miterlimit="10" stroke-linecap="round" stroke-linejoin="round"/>
<path d="M367 140.231H372.904" stroke="#645CAA" stroke-width="2.66667" stroke-miterlimit="10" stroke-linecap="round" stroke-linejoin="round"/>
<path d="M379.56 140.231H385.463" stroke="#645CAA" stroke-width="2.66667" stroke-miterlimit="10" stroke-linecap="round" stroke-linejoin="round"/>
<path d="M94.4538 213.647H32.6125C24.5418 213.647 18.0005 207.56 18.0005 200.052V113.595C18.0005 106.087 24.5418 100 32.6125 100H95.3018C103.372 100 109.915 106.087 109.915 113.595V156.824" fill="white"/>
<path d="M94.4538 213.647H32.6125C24.5418 213.647 18.0005 207.56 18.0005 200.052V113.595C18.0005 106.087 24.5418 100 32.6125 100H95.3018C103.372 100 109.915 106.087 109.915 113.595V156.824" stroke="#645CAA" stroke-width="2.66667" stroke-miterlimit="10" stroke-linecap="round" stroke-linejoin="round"/>
<path d="M18 123.557H109.915" stroke="#645CAA" stroke-width="2.66667" stroke-miterlimit="10" stroke-linecap="round" stroke-linejoin="round"/>
<path d="M40.4229 173.068H85.7069" stroke="#645CAA" stroke-width="2.66667" stroke-miterlimit="10" stroke-linecap="round" stroke-linejoin="round"/>
<path d="M40.4229 183.942H85.7069" stroke="#645CAA" stroke-width="2.66667" stroke-miterlimit="10" stroke-linecap="round" stroke-linejoin="round"/>
<path d="M40.4229 194.076H85.7069" stroke="#645CAA" stroke-width="2.66667" stroke-miterlimit="10" stroke-linecap="round" stroke-linejoin="round"/>
<path d="M44.3599 112.831C44.3599 111.375 45.5412 110.193 46.9972 110.193C48.4532 110.193 49.6345 111.375 49.6345 112.831C49.6345 114.287 48.4532 115.468 46.9972 115.468C45.5412 115.468 44.3599 114.287 44.3599 112.831Z" fill="#645CAA"/>
<path d="M36.4697 112.831C36.4697 111.375 37.6497 110.193 39.1057 110.193C40.5631 110.193 41.7431 111.375 41.7431 112.831C41.7431 114.287 40.5631 115.468 39.1057 115.468C37.6497 115.468 36.4697 114.287 36.4697 112.831Z" fill="#FFC146"/>
<path d="M28.7998 112.831C28.7998 111.375 29.9798 110.193 31.4358 110.193C32.8931 110.193 34.0731 111.375 34.0731 112.831C34.0731 114.287 32.8931 115.468 31.4358 115.468C29.9798 115.468 28.7998 114.287 28.7998 112.831Z" fill="#D0A2F7"/>
<path d="M94.4539 168.832C94.4539 162.2 99.8299 156.824 106.462 156.824H157.983C164.617 156.824 169.993 162.2 169.993 168.832V245.205C169.993 251.839 164.617 257.215 157.983 257.215H106.462C99.8299 257.215 94.4539 251.839 94.4539 245.205V168.832Z" fill="white" stroke="#645CAA" stroke-width="2.66667" stroke-miterlimit="10" stroke-linecap="round" stroke-linejoin="round"/>
<path d="M94.4539 177.633H169.993" stroke="#645CAA" stroke-width="2.66667" stroke-miterlimit="10" stroke-linecap="round" stroke-linejoin="round"/>
<path d="M112.222 221.369H152.223" stroke="#645CAA" stroke-width="2.66667" stroke-miterlimit="10" stroke-linecap="round" stroke-linejoin="round"/>
<path d="M112.222 230.975H152.223" stroke="#645CAA" stroke-width="2.66667" stroke-miterlimit="10" stroke-linecap="round" stroke-linejoin="round"/>
<path d="M112.222 239.925H152.223" stroke="#645CAA" stroke-width="2.66667" stroke-miterlimit="10" stroke-linecap="round" stroke-linejoin="round"/>
<path d="M103.798 168.158C103.798 166.871 104.841 165.828 106.128 165.828C107.413 165.828 108.457 166.871 108.457 168.158C108.457 169.443 107.413 170.487 106.128 170.487C104.841 170.487 103.798 169.443 103.798 168.158Z" fill="#D0A2F7"/>
<path d="M117.739 168.158C117.739 166.871 118.783 165.828 120.07 165.828C121.355 165.828 122.399 166.871 122.399 168.158C122.399 169.443 121.355 170.487 120.07 170.487C118.783 170.487 117.739 169.443 117.739 168.158Z" fill="#645CAA"/>
<path d="M110.769 168.158C110.769 166.871 111.813 165.828 113.098 165.828C114.385 165.828 115.427 166.871 115.427 168.158C115.427 169.443 114.385 170.487 113.098 170.487C111.813 170.487 110.769 169.443 110.769 168.158Z" fill="#FFC146"/>
<path d="M116.032 199.982H118.576C119.329 199.982 119.904 199.805 120.3 199.45C120.694 199.097 120.892 198.59 120.892 197.931C120.892 197.254 120.693 196.706 120.293 196.289C119.896 195.871 119.345 195.657 118.642 195.643H116.032V199.982ZM116.032 202.289V207.159H113.184V193.337H118.576C119.614 193.337 120.526 193.526 121.314 193.906C122.102 194.286 122.709 194.826 123.133 195.525C123.557 196.225 123.769 197.019 123.769 197.913C123.769 199.267 123.305 200.335 122.377 201.117C121.452 201.898 120.168 202.289 118.529 202.289H116.032Z" fill="#B2CFF3"/>
<path d="M137.947 207.159H135.099V201.235H129.546V207.159H126.696V193.336H129.546V198.938H135.099V193.336H137.947V207.159Z" fill="#B2CFF3"/>
<path d="M144.255 199.982H146.799C147.552 199.982 148.127 199.805 148.523 199.45C148.917 199.097 149.115 198.59 149.115 197.931C149.115 197.254 148.916 196.706 148.516 196.289C148.119 195.871 147.568 195.657 146.865 195.643H144.255V199.982ZM144.255 202.289V207.159H141.407V193.337H146.799C147.837 193.337 148.749 193.526 149.537 193.906C150.325 194.286 150.932 194.826 151.356 195.525C151.78 196.225 151.992 197.019 151.992 197.913C151.992 199.267 151.528 200.335 150.6 201.117C149.675 201.898 148.391 202.289 146.751 202.289H144.255Z" fill="#B2CFF3"/>
<path d="M53.9036 152.497C53.7796 154.217 53.1436 155.572 51.9982 156.56C50.8529 157.548 49.3436 158.042 47.4702 158.042C45.4209 158.042 43.8076 157.352 42.6329 155.972C41.4582 154.593 40.8716 152.698 40.8716 150.29V149.313C40.8716 147.776 41.1422 146.422 41.6836 145.252C42.2249 144.08 42.9996 143.181 44.0062 142.556C45.0129 141.929 46.1809 141.617 47.5142 141.617C49.3582 141.617 50.8449 142.11 51.9716 143.098C53.0982 144.086 53.7502 145.474 53.9262 147.26H50.6316C50.5516 146.228 50.2636 145.48 49.7702 145.014C49.2756 144.55 48.5236 144.318 47.5142 144.318C46.4156 144.318 45.5942 144.712 45.0489 145.498C44.5036 146.285 44.2236 147.505 44.2089 149.16V150.368C44.2089 152.094 44.4702 153.357 44.9929 154.156C45.5169 154.953 46.3422 155.352 47.4702 155.352C48.4862 155.352 49.2462 155.12 49.7476 154.654C50.2489 154.19 50.5369 153.47 50.6102 152.497H53.9036Z" fill="#B2CFF3"/>
<path d="M65.4808 153.628C65.4808 153.005 65.2608 152.528 64.8221 152.196C64.3834 151.863 63.5914 151.511 62.4501 151.141C61.3074 150.772 60.4034 150.408 59.7381 150.048C57.9234 149.068 57.0141 147.747 57.0141 146.085C57.0141 145.221 57.2581 144.451 57.7448 143.773C58.2314 143.097 58.9314 142.568 59.8421 142.187C60.7528 141.807 61.7768 141.616 62.9114 141.616C64.0528 141.616 65.0701 141.823 65.9634 142.237C66.8554 142.651 67.5501 143.235 68.0434 143.988C68.5381 144.743 68.7861 145.599 68.7861 146.557H65.4914C65.4914 145.825 65.2608 145.256 64.7994 144.849C64.3394 144.444 63.6914 144.24 62.8568 144.24C62.0514 144.24 61.4248 144.411 60.9794 144.751C60.5328 145.092 60.3088 145.54 60.3088 146.096C60.3088 146.616 60.5714 147.052 61.0941 147.403C61.6168 147.753 62.3874 148.084 63.4061 148.391C65.2794 148.955 66.6434 149.653 67.5008 150.488C68.3568 151.323 68.7861 152.361 68.7861 153.605C68.7861 154.989 68.2621 156.075 67.2154 156.861C66.1688 157.648 64.7594 158.041 62.9874 158.041C61.7581 158.041 60.6381 157.816 59.6288 157.367C58.6181 156.916 57.8474 156.3 57.3168 155.516C56.7861 154.733 56.5208 153.825 56.5208 152.793H59.8261C59.8261 154.557 60.8794 155.439 62.9874 155.439C63.7714 155.439 64.3834 155.28 64.8221 154.961C65.2608 154.644 65.4808 154.199 65.4808 153.628Z" fill="#B2CFF3"/>
<path d="M80.4278 153.628C80.4278 153.005 80.2078 152.528 79.7691 152.196C79.3304 151.863 78.5384 151.511 77.3971 151.141C76.2544 150.772 75.3504 150.408 74.6851 150.048C72.8704 149.068 71.9611 147.747 71.9611 146.085C71.9611 145.221 72.2051 144.451 72.6918 143.773C73.1798 143.097 73.8784 142.568 74.7904 142.187C75.7011 141.807 76.7238 141.616 77.8584 141.616C78.9998 141.616 80.0171 141.823 80.9104 142.237C81.8024 142.651 82.4971 143.235 82.9904 143.988C83.4851 144.743 83.7331 145.599 83.7331 146.557H80.4384C80.4384 145.825 80.2078 145.256 79.7464 144.849C79.2864 144.444 78.6384 144.24 77.8038 144.24C76.9984 144.24 76.3718 144.411 75.9264 144.751C75.4798 145.092 75.2558 145.54 75.2558 146.096C75.2558 146.616 75.5184 147.052 76.0411 147.403C76.5638 147.753 77.3344 148.084 78.3531 148.391C80.2264 148.955 81.5904 149.653 82.4478 150.488C83.3038 151.323 83.7331 152.361 83.7331 153.605C83.7331 154.989 83.2091 156.075 82.1624 156.861C81.1158 157.648 79.7064 158.041 77.9344 158.041C76.7051 158.041 75.5851 157.816 74.5758 157.367C73.5651 156.916 72.7944 156.3 72.2638 155.516C71.7331 154.733 71.4678 153.825 71.4678 152.793H74.7731C74.7731 154.557 75.8264 155.439 77.9344 155.439C78.7184 155.439 79.3304 155.28 79.7691 154.961C80.2078 154.644 80.4278 154.199 80.4278 153.628Z" fill="#B2CFF3"/>
<path d="M159.229 47.5947C159.229 40.0867 165.772 34 173.841 34H236.531C244.601 34 251.144 40.0867 251.144 47.5947V134.053C251.144 141.561 244.601 147.647 236.531 147.647H173.841C165.772 147.647 159.229 141.561 159.229 134.053V47.5947Z" fill="white" stroke="#645CAA" stroke-width="2.66667" stroke-miterlimit="10" stroke-linecap="round" stroke-linejoin="round"/>
<path d="M159.229 57.5573H251.144" stroke="#645CAA" stroke-width="2.66667" stroke-miterlimit="10" stroke-linecap="round" stroke-linejoin="round"/>
<path d="M182.806 107.069H228.089" stroke="#645CAA" stroke-width="2.66667" stroke-miterlimit="10" stroke-linecap="round" stroke-linejoin="round"/>
<path d="M182.806 117.943H228.089" stroke="#645CAA" stroke-width="2.66667" stroke-miterlimit="10" stroke-linecap="round" stroke-linejoin="round"/>
<path d="M182.806 128.076H228.089" stroke="#645CAA" stroke-width="2.66667" stroke-miterlimit="10" stroke-linecap="round" stroke-linejoin="round"/>
<path d="M169.808 46.8311C169.808 45.3751 170.989 44.1938 172.444 44.1938C173.901 44.1938 175.081 45.3751 175.081 46.8311C175.081 48.2871 173.901 49.4684 172.444 49.4684C170.989 49.4684 169.808 48.2871 169.808 46.8311Z" fill="#D0A2F7"/>
<path d="M185.59 46.8311C185.59 45.3751 186.771 44.1938 188.227 44.1938C189.683 44.1938 190.864 45.3751 190.864 46.8311C190.864 48.2871 189.683 49.4684 188.227 49.4684C186.771 49.4684 185.59 48.2871 185.59 46.8311Z" fill="#645CAA"/>
<path d="M177.698 46.8311C177.698 45.3751 178.879 44.1938 180.335 44.1938C181.791 44.1938 182.973 45.3751 182.973 46.8311C182.973 48.2871 181.791 49.4684 180.335 49.4684C178.879 49.4684 177.698 48.2871 177.698 46.8311Z" fill="#FFC146"/>
<path d="M190.84 89.5734H187.992V83.6494H182.439V89.5734H179.59V75.7508H182.439V81.3521H187.992V75.7508H190.84V89.5734Z" fill="#B2CFF3"/>
<path d="M204.429 78.0577H200.196V89.5737H197.348V78.0577H193.171V75.751H204.429V78.0577Z" fill="#B2CFF3"/>
<path d="M210.747 75.7503L214.298 85.7756L217.828 75.7503H221.568V89.5729H218.711V85.7956L218.996 79.2729L215.266 89.5729H213.31L209.588 79.2823L209.874 85.7956V89.5729H207.026V75.7503H210.747Z" fill="#B2CFF3"/>
<path d="M227.876 87.2854H233.923V89.5734H225.028V75.7508H227.876V87.2854Z" fill="#B2CFF3"/>
<path d="M54.936 313L37 326.851L54.936 342.927" stroke="#D0A2F7" stroke-width="2.66667" stroke-miterlimit="10" stroke-linecap="round" stroke-linejoin="round"/>
<path d="M93.8906 313L111.828 326.851L93.8906 342.927" stroke="#D0A2F7" stroke-width="2.66667" stroke-miterlimit="10" stroke-linecap="round" stroke-linejoin="round"/>
<path d="M83.9719 313L65.0706 342.927" stroke="#D0A2F7" stroke-width="2.66667" stroke-miterlimit="10" stroke-linecap="round" stroke-linejoin="round"/>
<path d="M169.907 210.44C169.907 202.465 176.372 196 184.348 196H383.243C391.217 196 397.684 202.465 397.684 210.44L379.777 315.943C379.777 323.919 373.312 330.383 365.336 330.383H166.441C158.467 330.383 152 323.919 152 315.943L169.907 210.44Z" fill="white" stroke="#645CAA" stroke-width="2.66667" stroke-miterlimit="10" stroke-linecap="round" stroke-linejoin="round"/>
<path d="M184.768 207.333L165.469 313.851" stroke="#645CAA" stroke-width="2.66667" stroke-miterlimit="10" stroke-linecap="round" stroke-linejoin="round"/>
<path d="M271.932 260.315C271.932 253.885 277.144 248.673 283.576 248.673C290.005 248.673 295.22 253.885 295.22 260.315C295.22 266.747 290.005 271.959 283.576 271.959C277.144 271.959 271.932 266.747 271.932 260.315Z" fill="#D0A2F7"/>
<path d="M239.257 340.226C239.257 340.226 236.328 352.322 226.793 360.507C217.258 368.692 201.117 372.968 201.117 372.968V393.363H324.726V370.928C324.726 370.928 310.929 368.182 303.157 360.507C295.386 352.831 293.64 340.226 293.64 340.226H239.257Z" fill="white" stroke="#645CAA" stroke-width="2.66667" stroke-miterlimit="10" stroke-linecap="round" stroke-linejoin="round"/>
<path d="M245.747 348.369C245.747 348.369 242.232 359.472 233.255 367.465C224.275 375.458 211.214 377.782 211.214 377.782V387.764" stroke="#645CAA" stroke-width="2.66667" stroke-miterlimit="10" stroke-linecap="round" stroke-linejoin="round"/>
</svg>
