<svg width="206" height="206" viewBox="0 0 206 206" fill="none" xmlns="http://www.w3.org/2000/svg">
<g clip-path="url(#clip0_9988_2600)">
<path d="M93.8204 24.2049H25.6596C20.3051 24.2049 15.965 28.5653 15.965 33.9446V57.8572C15.965 63.2366 20.3051 67.5969 25.6596 67.5969H80.3693L98.8453 83.4299L94.0268 67.5869C99.285 67.4753 103.515 63.1668 103.515 57.8572V33.9446C103.515 28.5653 99.1739 24.2049 93.8204 24.2049Z" fill="#645CAA"/>
<path d="M93.8348 24.1845V23.6899H25.6451C20.0143 23.6899 15.45 28.237 15.45 33.8463V57.5677C15.45 63.1771 20.0143 67.7241 25.6451 67.7241H80.1953L98.5402 83.3119C98.707 83.4543 98.9502 83.4691 99.1339 83.3494C99.3186 83.2288 99.401 83.0013 99.3365 82.7916L94.5159 67.0752L94.0413 67.2197L94.0523 67.7142C99.5807 67.5975 104.029 63.1049 104.03 57.5677V33.8463C104.029 28.237 99.4656 23.6899 93.8348 23.6899V24.1845V24.6791C96.3776 24.6791 98.6742 25.7048 100.341 27.3636C102.007 29.0243 103.036 31.3132 103.037 33.8463V57.5677C103.037 62.5648 99.0217 66.6202 94.0304 66.7251C93.8755 66.7281 93.7306 66.8032 93.6392 66.9298C93.5479 67.0555 93.521 67.2157 93.5667 67.3641L97.8898 81.4602L80.6997 66.8537C80.6093 66.7765 80.4971 66.735 80.378 66.735H25.6451C23.1023 66.735 20.8047 65.7103 19.1376 64.0505C17.4715 62.3897 16.4429 60.1009 16.4429 57.5677V33.8463C16.4429 31.3132 17.4715 29.0243 19.1376 27.3636C20.8047 25.7048 23.1023 24.6791 25.6451 24.6791H93.8348V24.1845Z" fill="#645CAA"/>
<path d="M92.7905 20.0849H24.6296C19.2752 20.0849 14.9351 24.4083 14.9351 29.7399V53.4456C14.9351 58.7772 19.2752 63.0996 24.6296 63.0996H79.3393L97.8154 78.7949L92.9969 63.0897C98.2551 62.979 102.485 58.708 102.485 53.4456V29.7399C102.485 24.4083 98.1439 20.0849 92.7905 20.0849Z" fill="white"/>
<path d="M92.7691 20.1112V19.5701H24.6519C19.0014 19.571 14.421 24.1316 14.42 29.7578V53.4425C14.421 59.0686 19.0014 63.6292 24.6519 63.6292H79.1263L97.4387 79.1813C97.6222 79.3364 97.8871 79.3532 98.0894 79.2218C98.2907 79.0895 98.381 78.8406 98.3106 78.6115L93.4952 62.9201L92.9754 63.0781L92.9873 63.6193C98.5357 63.5018 103 58.9956 103 53.4425V29.7578C103 24.1316 98.4197 19.571 92.7691 19.5701V20.1112V20.6524C95.2963 20.6524 97.5786 21.6706 99.235 23.3188C100.891 24.9681 101.914 27.2414 101.914 29.7578V53.4425C101.915 58.405 97.9237 62.4332 92.9645 62.5369C92.7939 62.5409 92.6352 62.6238 92.535 62.7611C92.4359 62.8984 92.4061 63.0742 92.4557 63.2361L96.7276 77.1549L79.6797 62.6772C79.5805 62.5932 79.4565 62.5478 79.3266 62.5478H24.6519C22.1247 62.5478 19.8415 61.5296 18.1851 59.8804C16.5297 58.2312 15.5071 55.9578 15.5071 53.4425V29.7578C15.5071 27.2414 16.5297 24.9681 18.1851 23.3188C19.8415 21.6706 22.1247 20.6524 24.6519 20.6524H92.7691V20.1112Z" fill="#645CAA"/>
<path d="M45.835 42.2306C45.835 43.9369 44.4519 45.3201 42.7455 45.3201C41.0382 45.3201 39.655 43.9369 39.655 42.2306C39.655 40.5232 41.0382 39.1401 42.7455 39.1401C44.4519 39.1401 45.835 40.5232 45.835 42.2306Z" fill="#1E1E1E"/>
<path d="M46.2933 42.2304H45.7227C45.7196 43.6325 44.5042 44.7659 43.003 44.7688C41.5008 44.7659 40.2855 43.6325 40.2834 42.2304C40.2855 40.8284 41.5008 39.694 43.003 39.6921C44.5042 39.694 45.7196 40.8284 45.7227 42.2304H46.2933H46.865C46.865 40.2393 45.1364 38.6259 43.003 38.625C40.8697 38.6259 39.14 40.2393 39.14 42.2304C39.14 44.2216 40.8697 45.835 43.003 45.835C45.1364 45.835 46.865 44.2216 46.865 42.2304H46.2933Z" fill="#1E1E1E"/>
<path d="M61.8 42.2306C61.8 43.9369 60.4169 45.3201 58.7095 45.3201C57.0031 45.3201 55.62 43.9369 55.62 42.2306C55.62 40.5232 57.0031 39.1401 58.7095 39.1401C60.4169 39.1401 61.8 40.5232 61.8 42.2306Z" fill="#1E1E1E"/>
<path d="M61.7814 42.2304H61.2478C61.2459 43.6325 60.1116 44.7659 58.7095 44.7688C57.3084 44.7659 56.1741 43.6325 56.1711 42.2304C56.1741 40.8284 57.3084 39.694 58.7095 39.6921C60.1116 39.694 61.2459 40.8284 61.2478 42.2304H61.7814H62.315C62.314 40.2393 60.7006 38.6259 58.7095 38.625C56.7183 38.6259 55.105 40.2393 55.105 42.2304C55.105 44.2216 56.7183 45.835 58.7095 45.835C60.7006 45.835 62.314 44.2216 62.315 42.2304H61.7814Z" fill="#1E1E1E"/>
<path d="M77.7649 42.2306C77.7649 43.9369 76.2657 45.3201 74.4174 45.3201C72.5692 45.3201 71.0699 43.9369 71.0699 42.2306C71.0699 40.5232 72.5692 39.1401 74.4174 39.1401C76.2657 39.1401 77.7649 40.5232 77.7649 42.2306Z" fill="#1E1E1E"/>
<path d="M77.7464 42.2304H77.2128C77.2099 43.6325 76.0765 44.7659 74.6745 44.7688C73.2724 44.7659 72.139 43.6325 72.1361 42.2304C72.139 40.8284 73.2724 39.694 74.6745 39.6921C76.0765 39.694 77.2099 40.8284 77.2128 42.2304H77.7464H78.2799C78.279 40.2393 76.6656 38.6259 74.6745 38.625C72.6833 38.6259 71.0699 40.2393 71.0699 42.2304C71.0699 44.2216 72.6833 45.835 74.6745 45.835C76.6656 45.835 78.279 44.2216 78.2799 42.2304H77.7464Z" fill="#1E1E1E"/>
<path d="M117.952 16.2621C117.952 16.2621 111.269 15.9762 110.841 19.8363C110.415 23.6952 112.122 25.4105 111.269 26.84C110.415 28.2694 107.856 23.8387 103.447 27.2694C99.0387 30.7001 100.176 39.4191 102.309 40.991C104.443 42.5639 109.135 41.7063 108.566 43.7075C107.997 45.7087 104.46 47.6405 107.144 51.4265C109.828 55.2114 113.117 54.8572 113.117 54.8572C113.117 54.8572 114.254 37.5603 119.232 37.132C124.209 36.7026 128.048 35.7026 132.314 40.7051C136.581 45.7087 147.389 59.8597 147.389 61.1456C147.389 62.4327 150.517 73.2965 153.787 72.5812C157.059 71.8671 167.439 69.4364 170.141 66.0057C172.843 62.575 169.003 58.5726 167.439 55.5713C165.874 52.5701 172.416 50.8547 171.99 45.7087C171.563 40.5627 168.15 35.1308 165.874 34.2731C163.6 33.4155 160.898 34.4166 159.334 32.2719C157.769 30.1283 159.05 24.8388 152.365 19.8363C145.682 14.8326 138.43 22.4093 136.012 21.9799C133.595 21.5516 134.305 16.6915 128.901 14.4044C123.497 12.1173 120.654 14.1185 117.952 16.2621Z" fill="#1E1E1E"/>
<path d="M117.982 16.318L118.007 15.7416C118 15.7416 117.881 15.7359 117.677 15.7359C116.988 15.7382 115.342 15.7878 113.754 16.2903C112.96 16.5444 112.175 16.9117 111.536 17.4799C110.898 18.0436 110.418 18.8348 110.313 19.8212C110.262 20.2832 110.24 20.7163 110.24 21.1252C110.239 22.3379 110.436 23.3232 110.624 24.1178C110.816 24.9113 110.983 25.5212 110.977 25.9428C110.975 26.2003 110.932 26.3805 110.817 26.5769L110.796 26.6069L110.842 26.652L110.819 26.593L110.796 26.6069L110.842 26.652L110.819 26.593L110.842 26.6508L110.831 26.5896L110.819 26.593L110.842 26.6508L110.831 26.5896H110.822C110.784 26.5942 110.61 26.5549 110.38 26.4498C109.672 26.1495 108.484 25.3941 106.901 25.3907C105.792 25.3883 104.516 25.7776 103.15 26.8448C100.74 28.7344 99.9146 31.9431 99.91 34.8445C99.9112 36.2998 100.12 37.6916 100.477 38.8466C100.842 40.0005 101.319 40.9257 102.026 41.4616C103.228 42.3279 104.865 42.4976 106.175 42.7217C106.827 42.8257 107.4 42.94 107.735 43.0855C107.904 43.156 108.004 43.2311 108.042 43.2761L108.085 43.3939L108.059 43.5475L108.06 43.5464C107.917 44.0939 107.354 44.8054 106.778 45.6335C106.211 46.4628 105.628 47.4642 105.626 48.722C105.623 49.6449 105.952 50.6567 106.725 51.7436C107.911 53.4172 109.238 54.3493 110.379 54.8471C111.521 55.3461 112.47 55.4177 112.925 55.4177C113.097 55.4177 113.199 55.4073 113.216 55.4061C113.495 55.3761 113.711 55.1497 113.729 54.8702C113.729 54.869 113.746 54.6069 113.787 54.1391C113.928 52.5013 114.352 48.3767 115.272 44.6552C115.729 42.7956 116.316 41.0365 117.024 39.766C117.375 39.1296 117.757 38.6202 118.145 38.276C118.535 37.9318 118.912 37.7551 119.309 37.7193C121.1 37.5645 122.716 37.3428 124.215 37.3439C125.568 37.3439 126.819 37.5183 128.062 38.0635C129.305 38.6087 130.558 39.5304 131.885 41.0862C133.999 43.5637 137.761 48.3409 140.983 52.6468C142.595 54.7997 144.073 56.8372 145.143 58.4069C145.678 59.1923 146.11 59.861 146.402 60.36C146.548 60.6083 146.659 60.8162 146.725 60.9629L146.792 61.1269L146.799 61.1512L147.015 61.1073H146.795L146.799 61.1512L147.015 61.1073H146.795C146.799 61.3625 146.852 61.6582 146.94 62.0787C147.254 63.5236 148.056 66.1871 149.146 68.5433C149.693 69.7203 150.308 70.8187 150.998 71.6572C151.344 72.0765 151.71 72.4323 152.112 72.6956C152.513 72.9578 152.965 73.1299 153.448 73.1299C153.592 73.1299 153.736 73.1149 153.88 73.0837C155.523 72.7245 158.946 71.9368 162.317 70.8025C164.003 70.2343 165.676 69.5805 167.116 68.8413C168.557 68.0986 169.768 67.2832 170.535 66.3164C171.281 65.3751 171.6 64.3402 171.596 63.3295C171.59 61.7934 170.919 60.3346 170.142 58.9751C169.361 57.618 168.453 56.3475 167.897 55.2768C167.767 55.0261 167.721 54.8194 167.721 54.6196C167.716 54.228 167.927 53.7787 168.347 53.2485C168.968 52.4539 169.991 51.5599 170.88 50.4442C171.766 49.3307 172.527 47.9424 172.525 46.181C172.525 46.0089 172.518 45.8333 172.503 45.6543C172.279 42.977 171.294 40.2754 170.07 38.1074C169.457 37.0229 168.784 36.0723 168.103 35.3238C167.417 34.5754 166.735 34.0221 166.028 33.7507C164.749 33.2748 163.454 33.3245 162.356 33.1997C161.806 33.1408 161.31 33.045 160.883 32.859C160.456 32.6707 160.091 32.4051 159.759 31.9523C159.456 31.5446 159.245 30.8816 159.047 30.0223C158.746 28.7368 158.451 27.0435 157.579 25.1931C156.709 23.3417 155.254 21.3435 152.682 19.4215C150.919 18.099 149.074 17.592 147.313 17.5954C144.765 17.5989 142.403 18.613 140.445 19.5901C139.467 20.0799 138.587 20.5638 137.853 20.9161C137.124 21.2719 136.522 21.474 136.225 21.4647L136.112 21.4555C135.905 21.4174 135.751 21.3435 135.594 21.2187C135.32 21.0039 135.05 20.5927 134.767 20.0348C133.914 18.3693 132.885 15.5025 129.137 13.9317C127.386 13.1902 125.864 12.8749 124.507 12.8749C121.537 12.8737 119.477 14.396 117.626 15.8652L117.982 16.318L118.339 16.7719C120.186 15.3074 121.958 14.0299 124.507 14.0299C125.685 14.0299 127.049 14.3025 128.691 14.9966C131.237 16.0824 132.287 17.6971 133.071 19.2044C133.46 19.9586 133.765 20.6816 134.163 21.2984C134.363 21.6057 134.589 21.8898 134.878 22.1208C135.164 22.3529 135.517 22.5239 135.912 22.5932C136.017 22.6117 136.122 22.6186 136.225 22.6198C136.895 22.6094 137.563 22.3275 138.348 21.9579C140.669 20.833 143.956 18.7389 147.313 18.7505C148.861 18.7528 150.422 19.1732 151.996 20.3479C155.237 22.7803 156.498 25.207 157.186 27.3369C157.529 28.403 157.721 29.3963 157.928 30.2868C158.139 31.175 158.354 31.9743 158.831 32.6361C159.281 33.2529 159.838 33.6652 160.427 33.9182C161.313 34.3005 162.243 34.3582 163.133 34.424C164.025 34.4841 164.878 34.5488 165.624 34.8318C166.053 34.9889 166.648 35.4335 167.254 36.1034C169.094 38.1109 171.062 42.0645 171.358 45.7502C171.37 45.8969 171.375 46.0412 171.375 46.181C171.374 47.1293 171.111 47.9297 170.698 48.6677C170.081 49.7742 169.11 50.7144 168.25 51.62C167.82 52.0739 167.417 52.5209 167.106 53.0037C166.797 53.4853 166.571 54.0213 166.571 54.6196C166.57 55.0146 166.674 55.4211 166.878 55.8127C167.497 56.9943 168.405 58.259 169.146 59.5526C169.893 60.8439 170.451 62.1514 170.447 63.3295C170.443 64.1092 170.226 64.8426 169.634 65.5992C169.053 66.3442 167.958 67.1157 166.593 67.8122C162.494 69.9224 156.065 71.4274 153.636 71.9552L153.448 71.9749C153.213 71.976 152.94 71.8801 152.622 71.6468C152.068 71.2426 151.45 70.4318 150.888 69.4304C150.039 67.9265 149.293 66.0046 148.767 64.3702C148.504 63.5536 148.294 62.8063 148.153 62.2219C148.082 61.9297 148.029 61.6779 147.993 61.4815C147.958 61.2886 147.944 61.1396 147.945 61.1073C147.935 60.8382 147.86 60.6938 147.77 60.4813C147.426 59.7363 146.593 58.4623 145.44 56.8129C141.991 51.8868 135.773 43.8698 132.758 40.3343C131.346 38.678 129.946 37.6281 128.522 37.0044C127.097 36.3795 125.665 36.1878 124.215 36.1889C122.605 36.1901 120.966 36.4188 119.211 36.5689C118.422 36.6359 117.732 37.0425 117.163 37.62C116.166 38.6376 115.438 40.1992 114.841 41.9837C113.067 47.3291 112.586 54.7697 112.582 54.794L113.155 54.8321L113.094 54.2569H113.093L112.925 54.2626C112.59 54.2626 111.801 54.2095 110.838 53.7879C109.876 53.3652 108.732 52.5798 107.662 51.0725C106.991 50.1254 106.776 49.3711 106.775 48.722C106.773 47.8454 107.189 47.068 107.725 46.2884C108.25 45.5053 108.894 44.7765 109.165 43.864C109.21 43.7081 109.234 43.5522 109.234 43.3939C109.239 43.0636 109.108 42.7356 108.902 42.5103C108.538 42.113 108.065 41.9525 107.55 41.8139C106.774 41.6175 105.845 41.5182 104.955 41.3449C104.068 41.1763 103.237 40.9257 102.706 40.5295C102.348 40.2812 101.884 39.5304 101.575 38.5036C101.257 37.4791 101.06 36.1866 101.06 34.8445C101.055 32.1464 101.863 29.2923 103.853 27.7584C105.068 26.8183 106.056 26.5491 106.901 26.5457C107.708 26.5457 108.411 26.8055 109.036 27.0931C109.349 27.2364 109.639 27.3865 109.922 27.5101C110.207 27.6302 110.481 27.74 110.822 27.7446C111 27.7457 111.202 27.7042 111.38 27.6002C111.561 27.4963 111.702 27.3403 111.802 27.1706C112.038 26.7825 112.129 26.3528 112.127 25.9428C112.122 25.2613 111.92 24.6145 111.743 23.851C111.562 23.0887 111.39 22.2144 111.39 21.1252C111.39 20.7579 111.409 20.3675 111.455 19.9482C111.536 19.2575 111.833 18.7632 112.299 18.3439C112.993 17.7167 114.1 17.3275 115.158 17.1265C116.213 16.9209 117.209 16.8909 117.677 16.8909L117.889 16.8932L117.958 16.8955C118.095 16.9013 118.231 16.8574 118.339 16.7719L117.982 16.318Z" fill="#1E1E1E"/>
<path d="M112.27 51.5712C112.27 51.5712 109.294 49.0937 107.311 51.5712C105.328 54.0487 104.62 62.7194 105.328 64.2328C106.037 65.7474 108.02 66.4351 108.444 66.4351C108.87 66.4351 112.27 51.5712 112.27 51.5712Z" fill="#B2CFF3"/>
<path d="M112.22 51.1403L112.587 50.7061C112.567 50.689 112.215 50.385 111.66 50.0754C111.102 49.768 110.339 49.4424 109.466 49.4402C108.597 49.4299 107.623 49.8138 106.884 50.7895C106.04 51.9035 105.505 53.7727 105.116 55.8225C104.737 57.8688 104.545 60.0706 104.545 61.7536C104.545 62.3249 104.567 62.8356 104.614 63.2686C104.664 63.7051 104.726 64.0535 104.859 64.3575C105.283 65.2886 106.039 65.9159 106.731 66.3261C107.079 66.5306 107.414 66.6803 107.701 66.7831C107.996 66.8837 108.205 66.9442 108.447 66.95C108.676 66.9442 108.789 66.8425 108.85 66.79C108.968 66.6746 108.989 66.6117 109.029 66.542C109.15 66.293 109.259 65.9422 109.411 65.4235C110.44 61.8644 112.769 51.2717 112.772 51.2637C112.817 51.0569 112.747 50.8432 112.587 50.7061L112.22 51.1403L111.668 51.0158C111.666 51.018 111.458 51.9675 111.137 53.3946C110.656 55.5357 109.926 58.7486 109.276 61.4211C108.952 62.7567 108.648 63.9587 108.407 64.8179C108.288 65.2452 108.183 65.5903 108.105 65.8108C108.067 65.9194 108.033 65.9993 108.021 66.0245L108.019 66.029L108.323 66.2141L108.072 65.9616L108.019 66.029L108.323 66.2141L108.072 65.9616L108.447 66.3398V65.8074C108.204 65.8177 108.114 65.9262 108.072 65.9616L108.447 66.3398V65.8074V65.8599L108.452 65.8074H108.447V65.8599L108.452 65.8074C108.421 65.8074 108.232 65.7674 108.014 65.6828C107.334 65.4349 106.28 64.7882 105.89 63.8844C105.846 63.7965 105.777 63.5165 105.738 63.1441C105.698 62.7704 105.676 62.294 105.676 61.7536C105.675 60.1574 105.863 58.0002 106.228 56.0339C106.584 54.071 107.159 52.2726 107.777 51.4911C108.342 50.7735 108.888 50.593 109.466 50.5827C110.044 50.5793 110.656 50.8192 111.113 51.0763C111.342 51.2031 111.532 51.3311 111.662 51.4259L111.809 51.539L111.844 51.5676L111.851 51.5733L112.22 51.1403Z" fill="#1E1E1E"/>
<path d="M87.2712 105.888C87.2712 105.888 80.4256 126.119 79.5129 135.933C78.6002 145.746 78.1445 152.691 78.1445 152.691C78.1445 152.691 74.9495 152.691 74.9495 153.446C74.9495 154.2 74.9495 154.2 74.9495 154.2C74.9495 154.2 66.8882 169.601 68.1051 173.979C69.322 178.357 77.536 185.453 80.8825 184.849C84.229 184.245 91.3776 173.073 92.443 171.261C93.5072 169.449 90.9219 152.842 90.9219 152.842C90.9219 152.842 87.7269 125.063 88.6396 118.57C89.5523 112.079 90.0092 109.361 89.5523 107.398C89.0966 105.436 89.4008 105.284 87.2712 105.888Z" fill="white"/>
<path d="M87.2394 104.923L86.6978 104.74C86.6955 104.745 84.9904 109.866 83.17 116.236C81.3496 122.609 79.4126 130.209 78.9475 135.258C78.039 145.192 77.5842 152.22 77.5842 152.224L78.1544 152.261V151.685C78.1419 151.686 77.3339 151.685 76.4963 151.785C76.0757 151.835 75.6506 151.908 75.2792 152.041C75.093 152.11 74.9147 152.189 74.7455 152.33C74.5798 152.461 74.4004 152.715 74.4027 153.025C74.4027 153.788 74.4027 153.788 74.4027 153.788H74.9741L74.4679 153.523C74.4633 153.53 72.724 156.905 70.9813 160.975C70.1093 163.009 69.2363 165.217 68.5769 167.273C67.9186 169.331 67.4684 171.223 67.465 172.704C67.465 173.153 67.5073 173.568 67.6101 173.946C67.9346 175.122 68.6615 176.386 69.6168 177.658C71.0521 179.56 73.012 181.467 74.9718 182.919C75.9523 183.644 76.9316 184.254 77.8573 184.691C78.7841 185.127 79.6537 185.396 80.4537 185.4C80.6331 185.4 80.8102 185.385 80.9816 185.354C81.5324 185.25 82.0638 184.962 82.6192 184.566C84.5414 183.172 86.8269 180.294 88.8062 177.534C90.7786 174.775 92.4025 172.16 92.8813 171.334C93.0458 171.037 93.1007 170.727 93.151 170.334C93.1967 169.944 93.215 169.482 93.215 168.954C93.2138 166.399 92.7681 162.264 92.3247 158.741C91.8814 155.22 91.4391 152.329 91.438 152.326L90.8734 152.414L91.4414 152.348C91.4402 152.345 91.2894 151.007 91.0608 148.839C90.3763 142.341 89.0096 128.399 89.0107 121.125C89.0096 119.743 89.061 118.602 89.1684 117.83C89.8312 113.024 90.2575 110.266 90.2598 108.269C90.2598 107.538 90.2015 106.905 90.0678 106.321C89.9158 105.668 89.8598 105.227 89.7261 104.834C89.6575 104.64 89.5558 104.427 89.3478 104.257C89.1398 104.085 88.8713 104.027 88.6496 104.03C88.2142 104.038 87.7822 104.172 87.0829 104.369C86.9023 104.421 86.7572 104.561 86.6978 104.74L87.2394 104.923L87.396 105.478C88.0782 105.277 88.5125 105.176 88.6496 105.183L88.6839 105.185H88.6862L88.7216 105.055L88.6119 105.134L88.6862 105.185L88.7216 105.055L88.6119 105.134L88.6508 105.225C88.7228 105.423 88.8004 105.902 88.9536 106.58C89.0633 107.059 89.117 107.599 89.117 108.269C89.1193 110.099 88.7022 112.864 88.0359 117.671C87.9159 118.541 87.868 119.714 87.868 121.125C87.8691 130.974 90.3055 152.467 90.3055 152.48L90.3089 152.502C90.3089 152.504 90.4186 153.221 90.5843 154.379C91.0814 157.847 92.0745 165.294 92.0722 168.954C92.0722 169.453 92.0539 169.88 92.0162 170.2C91.9831 170.517 91.9111 170.738 91.8939 170.753C91.3797 171.643 89.3364 174.924 87.028 178.028C85.8738 179.58 84.6499 181.091 83.5277 182.234C82.9678 182.806 82.4318 183.284 81.9553 183.627C81.4799 183.972 81.0593 184.171 80.7771 184.22C80.6811 184.237 80.5725 184.247 80.4537 184.247C79.7429 184.254 78.6584 183.875 77.4791 183.196C75.7043 182.182 73.6931 180.531 72.0406 178.756C70.3859 176.987 69.0946 175.067 68.7117 173.639C68.6443 173.396 68.6077 173.079 68.6077 172.704C68.6043 171.461 69.0203 169.625 69.6637 167.627C70.627 164.623 72.0829 161.221 73.2977 158.579C73.9045 157.257 74.4519 156.125 74.8461 155.323C75.2404 154.522 75.4815 154.055 75.4815 154.054L75.5455 153.788C75.5455 153.788 75.5455 153.788 75.5455 153.025H75.2484L75.5089 153.172L75.5455 153.025H75.2484L75.5089 153.172L75.3741 153.096L75.4769 153.216L75.5089 153.172L75.3741 153.096L75.4769 153.216C75.4769 153.203 75.686 153.099 75.9592 153.041C76.3729 152.944 76.9339 152.89 77.3796 152.864C77.6025 152.851 77.7979 152.844 77.9373 152.84C78.0756 152.837 78.1544 152.837 78.1544 152.837C78.4561 152.837 78.7052 152.602 78.7247 152.299C78.7247 152.294 78.8378 150.547 79.0652 147.552C79.2915 144.558 79.632 140.324 80.0857 135.364C80.5302 130.487 82.4547 122.894 84.2682 116.555C85.1744 113.383 86.0532 110.52 86.7046 108.45C87.0315 107.415 87.3 106.579 87.4874 106.002C87.6748 105.425 87.7811 105.108 87.7811 105.106L87.2394 104.923Z" fill="#1E1E1E"/>
<path d="M86.6458 159.472C87.8031 160.782 88.8188 162.279 89.4611 163.927C89.5689 164.203 89.9131 164.351 90.2294 164.257C90.5457 164.162 90.7154 163.862 90.6076 163.585C89.9119 161.801 88.8248 160.208 87.6056 158.826C87.402 158.595 87.0215 158.551 86.7561 158.73C86.4907 158.908 86.4422 159.24 86.6458 159.472Z" fill="#1E1E1E"/>
<path d="M79.5986 152.996L79.7447 153.083C80.4341 153.499 83.4395 155.409 86.0328 158.422C86.2383 158.661 86.599 158.687 86.8375 158.481C87.0761 158.274 87.1023 157.912 86.8957 157.674C83.7842 154.065 80.1944 152.02 80.1636 152C79.8885 151.844 79.5404 151.94 79.3851 152.215C79.2288 152.49 79.3247 152.84 79.5986 152.996Z" fill="#1E1E1E"/>
<path d="M80.0792 149.392C80.0792 149.392 80.1563 149.446 80.3047 149.553C81.3422 150.297 85.6819 153.635 87.4731 157.266C87.6169 157.556 87.9686 157.673 88.2572 157.528C88.5458 157.383 88.6626 157.029 88.5177 156.739C87.375 154.448 85.4353 152.392 83.7808 150.885C82.1274 149.38 80.7545 148.433 80.7393 148.424C80.4729 148.239 80.1095 148.308 79.9272 148.575C79.745 148.843 79.8127 149.209 80.0792 149.392Z" fill="#1E1E1E"/>
<path d="M82.9165 121.112C82.9218 121.145 83.4818 129.673 86.5236 136.661C86.6472 136.943 86.9654 137.068 87.2362 136.939C87.506 136.81 87.6242 136.476 87.5017 136.194C86.0346 132.832 85.15 129.031 84.6394 126.078C84.3836 124.601 84.2203 123.336 84.1214 122.442C84.0719 121.995 84.0386 121.641 84.0182 121.4C83.9967 121.158 83.9881 121.033 83.9881 121.033C83.9677 120.723 83.7108 120.49 83.4141 120.511C83.1185 120.533 82.895 120.802 82.9165 121.112Z" fill="#1E1E1E"/>
<path d="M113.565 99.26C113.565 99.26 104.552 101.928 98.2292 102.242C91.9051 102.556 87.4778 104.282 87.4778 107.421C87.4778 110.56 84.9484 132.377 88.1105 150.427C91.2725 168.476 94.7503 184.014 95.3829 186.839C96.0155 189.664 89.8494 204.261 91.4304 206.144C93.0114 208.027 94.7503 209.44 94.7503 209.44C94.7503 209.44 123.998 211.951 139.65 211.638C155.301 211.323 167.317 209.284 168.898 208.499C170.479 207.714 173.166 205.046 171.743 202.064C170.321 199.081 169.53 199.081 169.213 197.512C168.898 195.942 167.949 178.521 167.949 178.521L194.351 177.893C194.351 177.893 195.774 174.754 192.612 168.319C189.45 161.884 183.443 137.242 181.071 126.883C178.7 116.524 179.806 113.543 179.332 111.659C178.857 109.776 176.961 108.52 172.375 107.578C167.791 106.637 144.551 100.83 144.551 100.83C144.551 100.83 123.049 97.8471 113.565 99.26Z" fill="white"/>
<path d="M113.465 99.3158L113.301 98.7684C113.298 98.7684 112.749 98.9318 111.816 99.1855C109.022 99.9466 102.813 101.496 98.1899 101.724C94.9993 101.885 92.2716 102.395 90.2782 103.304C89.2815 103.76 88.4624 104.319 87.877 105.014C87.2916 105.706 86.9547 106.55 86.957 107.469C86.9593 108.37 86.721 111.132 86.4828 114.975C86.2433 118.827 86.005 123.796 86.005 129.231C86.005 136.024 86.3773 143.544 87.594 150.528C90.741 168.574 94.2008 184.106 94.8298 186.931C94.8481 187.012 94.8619 187.141 94.8619 187.304C94.8653 188.011 94.6121 189.283 94.218 190.781C93.6292 193.038 92.7367 195.852 91.9898 198.458C91.244 201.072 90.6345 203.443 90.6276 204.987C90.6368 205.552 90.6883 206.039 91.0194 206.459C92.6325 208.389 94.3818 209.814 94.3979 209.828C94.4861 209.9 94.5972 209.946 94.7106 209.955C94.7198 209.955 120.472 212.179 136.52 212.18C137.524 212.18 138.49 212.171 139.41 212.153C147.211 211.995 154.106 211.405 159.254 210.756C161.828 210.431 163.966 210.092 165.566 209.782C166.366 209.628 167.033 209.48 167.556 209.344C168.085 209.207 168.456 209.091 168.732 208.956C169.45 208.595 170.303 207.939 171.012 207.05C171.715 206.163 172.275 205.028 172.278 203.736C172.278 203.101 172.138 202.435 171.822 201.772C171.1 200.248 170.511 199.446 170.099 198.878C169.684 198.3 169.496 198.045 169.352 197.357C169.323 197.22 169.27 196.768 169.215 196.154C169.022 193.979 168.743 189.55 168.514 185.674C168.4 183.735 168.297 181.933 168.223 180.615C168.149 179.299 168.104 178.468 168.104 178.467L167.532 178.498L167.546 179.068L193.794 178.442C194.015 178.436 194.212 178.306 194.302 178.104C194.332 178.039 194.671 177.252 194.67 175.742C194.671 174.066 194.253 171.504 192.567 168.055C191.808 166.508 190.845 163.772 189.811 160.413C186.704 150.324 182.902 134.536 181.137 126.784C179.671 120.351 179.555 116.828 179.555 114.613C179.555 114.168 179.559 113.775 179.559 113.418C179.558 112.702 179.543 112.122 179.405 111.564C179.138 110.47 178.412 109.536 177.221 108.823C176.026 108.102 174.361 107.546 172.05 107.067C169.796 106.602 162.871 104.914 156.53 103.347C153.358 102.564 150.327 101.808 148.091 101.251C145.854 100.692 144.414 100.331 144.41 100.33L144.349 100.318C144.336 100.317 130.361 98.3661 119.961 98.3649C117.496 98.3649 115.231 98.4735 113.379 98.7501L113.301 98.7684L113.465 99.3158L113.549 99.8804C115.309 99.6164 117.532 99.5078 119.961 99.5078C125.095 99.5078 131.16 99.9924 135.934 100.478C138.321 100.722 140.387 100.964 141.854 101.147C143.323 101.328 144.189 101.45 144.191 101.45L144.27 100.884L144.131 101.438C144.138 101.439 167.222 107.237 171.817 108.186C174.062 108.647 175.619 109.188 176.626 109.799C177.635 110.419 178.089 111.053 178.293 111.84C178.391 112.223 178.415 112.722 178.414 113.418C178.414 113.765 178.409 114.16 178.409 114.613C178.408 116.882 178.536 120.536 180.019 127.038C181.2 132.219 183.282 140.964 185.466 149.224C186.558 153.355 187.674 157.364 188.716 160.749C189.761 164.136 190.722 166.888 191.537 168.556C193.158 171.874 193.524 174.255 193.524 175.742C193.524 176.412 193.45 176.901 193.38 177.215C193.345 177.372 193.31 177.486 193.287 177.556L193.261 177.628L193.256 177.639L193.437 177.716L193.257 177.636L193.256 177.639L193.437 177.716L193.257 177.636L193.78 177.87L193.766 177.299L167.519 177.926C167.363 177.93 167.217 177.996 167.112 178.109C167.007 178.222 166.952 178.373 166.961 178.528C166.961 178.528 167.196 182.88 167.472 187.43C167.609 189.704 167.756 192.028 167.889 193.884C167.955 194.812 168.018 195.623 168.074 196.254C168.133 196.891 168.179 197.326 168.228 197.581C168.397 198.461 168.759 198.99 169.171 199.549C169.583 200.118 170.094 200.806 170.787 202.261C171.031 202.778 171.131 203.266 171.132 203.736C171.133 204.685 170.709 205.59 170.114 206.34C169.524 207.089 168.761 207.666 168.219 207.934C168.102 207.995 167.756 208.115 167.269 208.239C165.545 208.686 161.952 209.316 157.114 209.861C152.274 210.406 146.174 210.873 139.387 211.01C138.476 211.028 137.517 211.037 136.52 211.037C128.544 211.037 118.11 210.482 109.677 209.926C105.46 209.649 101.742 209.372 99.0801 209.163C96.4165 208.955 94.8137 208.816 94.8092 208.816L94.7599 209.386L95.1231 208.943L95.052 208.884C94.7141 208.602 93.2385 207.331 91.8993 205.727C91.8706 205.716 91.7652 205.442 91.7732 204.987C91.771 204.154 92.0241 202.803 92.4182 201.247C93.0071 198.908 93.8984 196.075 94.6453 193.515C95.0177 192.234 95.3556 191.021 95.6019 189.963C95.8471 188.902 96.0052 188.007 96.0075 187.304C96.0063 187.084 95.9914 186.879 95.9479 186.683C95.3201 183.864 91.8637 168.35 88.7236 150.333C87.5218 143.446 87.1506 135.982 87.1506 129.231C87.1506 123.829 87.3878 118.883 87.6261 115.045C87.8632 111.199 88.1015 108.498 88.1027 107.469C88.1061 106.82 88.3192 106.272 88.7545 105.749C89.4064 104.967 90.6059 104.283 92.2407 103.789C93.872 103.294 95.9239 102.981 98.2472 102.866C104.651 102.541 113.605 99.8666 113.627 99.8632L113.465 99.3158Z" fill="#1E1E1E"/>
<path d="M168.341 136.39C166.241 144.996 162.733 160.055 161.714 168.799C161.677 169.112 161.895 169.393 162.199 169.431C162.503 169.468 162.78 169.246 162.816 168.934C163.817 160.318 167.321 145.247 169.418 136.666C169.493 136.361 169.312 136.052 169.014 135.977C168.717 135.901 168.416 136.085 168.341 136.39Z" fill="#1E1E1E"/>
<path d="M170.448 129.716C170.448 129.719 169.861 131.414 168.945 134.174C168.837 134.498 169.094 134.829 169.519 134.911C169.945 134.994 170.377 134.797 170.485 134.473C171.398 131.718 171.982 130.032 171.984 130.027C172.095 129.703 171.843 129.37 171.419 129.285C170.995 129.199 170.561 129.392 170.448 129.716Z" fill="#1E1E1E"/>
<path d="M177.372 151.463C173.429 153.294 167.202 156.816 163.357 162.354C163.176 162.615 163.242 162.973 163.503 163.153C163.765 163.333 164.124 163.268 164.305 163.007C167.936 157.755 174.006 154.283 177.857 152.505C178.146 152.372 178.27 152.029 178.136 151.742C178.003 151.454 177.66 151.33 177.372 151.463Z" fill="#1E1E1E"/>
<path d="M181.612 149.887C181.601 149.891 180.807 150.109 179.545 150.557C179.274 150.652 179.148 150.913 179.262 151.139C179.377 151.365 179.689 151.47 179.959 151.374C180.573 151.157 181.073 150.995 181.417 150.888C181.589 150.835 181.723 150.795 181.812 150.769L181.945 150.731C182.223 150.655 182.375 150.403 182.283 150.171C182.191 149.938 181.892 149.811 181.612 149.887Z" fill="#1E1E1E"/>
<path d="M119.513 198.249C119.278 199.769 119.015 201.246 118.81 202.473C118.605 203.708 118.454 204.651 118.45 205.254L118.459 205.469C118.489 205.797 118.738 206.032 119.014 205.996C119.289 205.959 119.488 205.665 119.458 205.337L119.455 205.254C119.451 204.888 119.591 203.91 119.795 202.705C119.999 201.489 120.263 200.004 120.502 198.463C120.552 198.14 120.372 197.829 120.098 197.77C119.825 197.711 119.564 197.925 119.513 198.249Z" fill="#1E1E1E"/>
<path d="M114.86 168.087C114.861 168.09 115.148 169.346 115.586 171.297C116.245 174.224 117.241 178.709 118.114 182.83C118.985 186.945 119.735 190.729 119.888 192.152C119.922 192.466 119.938 192.818 119.938 193.201C119.938 193.909 119.883 194.718 119.789 195.571C119.755 195.888 119.968 196.174 120.265 196.211C120.564 196.248 120.834 196.021 120.868 195.705C120.965 194.821 121.025 193.973 121.025 193.201C121.025 192.784 121.008 192.39 120.967 192.019C120.853 190.976 120.484 188.977 119.989 186.519C118.509 179.158 115.918 167.818 115.917 167.816C115.846 167.506 115.553 167.317 115.26 167.391C114.969 167.466 114.79 167.778 114.86 168.087Z" fill="#1E1E1E"/>
<path d="M158.154 141.587L136.767 137.515C136.475 137.458 136.189 137.647 136.114 137.946C136.113 137.952 135.433 140.656 134.752 144.016C134.073 147.383 133.387 151.385 133.385 154.081C133.385 154.787 133.431 155.407 133.551 155.932C134.504 160.06 137.06 161.592 137.138 161.634C137.412 161.794 137.759 161.693 137.913 161.408C138.066 161.124 137.969 160.764 137.695 160.603L137.658 160.674L137.697 160.605L137.695 160.603L137.658 160.674L137.697 160.605C137.633 160.562 135.485 159.244 134.656 155.656C134.568 155.277 134.521 154.73 134.522 154.081C134.519 151.578 135.189 147.586 135.865 144.26C136.202 142.594 136.539 141.089 136.793 140.001C137.046 138.913 137.213 138.247 137.213 138.245L136.664 138.095L136.562 138.677L157.949 142.749C158.257 142.808 158.554 142.595 158.611 142.274C158.667 141.953 158.462 141.645 158.154 141.587Z" fill="#1E1E1E"/>
<path d="M158.4 145.191C158.4 145.193 158.265 145.892 158.04 146.985C157.699 148.625 157.155 151.143 156.557 153.471C156.259 154.635 155.946 155.75 155.643 156.681C155.34 157.607 155.036 158.359 154.8 158.737C154.112 159.858 153.092 160.725 152.241 161.302C151.815 161.591 151.433 161.809 151.163 161.952C151.027 162.023 150.918 162.076 150.845 162.111L150.763 162.149L150.742 162.159C150.427 162.294 150.292 162.637 150.44 162.924C150.588 163.212 150.964 163.335 151.279 163.2C151.328 163.171 154.262 161.933 155.898 159.301C156.332 158.587 156.74 157.417 157.164 155.994C158.42 151.747 159.639 145.399 159.64 145.39C159.701 145.077 159.472 144.779 159.129 144.723C158.786 144.669 158.46 144.878 158.4 145.191Z" fill="#1E1E1E"/>
<path d="M173.695 156.638C172.024 157.64 170.414 158.74 169.16 159.886C168.891 160.133 168.841 160.59 169.048 160.91C169.254 161.23 169.639 161.289 169.908 161.044C171.059 159.99 172.617 158.918 174.248 157.942C174.55 157.761 174.672 157.322 174.519 156.962C174.367 156.602 173.999 156.457 173.695 156.638Z" fill="#1E1E1E"/>
<path d="M181.566 154.014C181.556 154.018 178.305 155.079 174.908 156.579C174.628 156.703 174.507 157.019 174.638 157.284C174.769 157.549 175.102 157.664 175.383 157.541C177.05 156.804 178.69 156.172 179.911 155.725C180.522 155.502 181.028 155.324 181.382 155.203C181.735 155.081 181.931 155.018 181.932 155.018C182.225 154.921 182.38 154.62 182.279 154.343C182.178 154.066 181.858 153.919 181.566 154.014Z" fill="#1E1E1E"/>
<path d="M160.018 168.747C160.018 168.747 168.109 162.077 172.994 162.228C177.879 162.38 189.024 169.96 190.245 171.173C191.467 172.386 195.13 178.753 193.909 183.605C192.688 188.456 182.765 199.372 175.131 198.766C167.498 198.159 162.613 190.125 162.613 190.125C162.613 190.125 154.523 182.998 160.018 168.747Z" fill="#D0A2F7"/>
<path d="M159.591 168.783L159.962 169.222C159.964 169.221 160.081 169.125 160.306 168.949C161.092 168.338 163.141 166.794 165.512 165.415C167.874 164.031 170.59 162.838 172.536 162.851L172.685 162.853C173.781 162.883 175.374 163.357 177.106 164.094C179.713 165.196 182.665 166.866 185.068 168.369C186.269 169.12 187.335 169.83 188.154 170.406C188.967 170.975 189.555 171.435 189.725 171.605C189.931 171.803 190.304 172.283 190.707 172.927C191.93 174.866 193.515 178.371 193.506 181.499C193.506 182.176 193.433 182.835 193.275 183.457C193.008 184.515 192.219 186.016 191.062 187.618C189.328 190.026 186.777 192.69 183.98 194.728C181.185 196.774 178.142 198.172 175.491 198.164C175.296 198.164 175.102 198.157 174.91 198.143C171.254 197.86 168.195 195.796 166.051 193.765C164.98 192.754 164.14 191.755 163.571 191.014C163.287 190.643 163.07 190.336 162.925 190.124C162.852 190.018 162.799 189.935 162.763 189.88L162.711 189.8L162.6 189.669L162.594 189.663C162.391 189.48 158.238 185.668 158.239 178.219C158.239 175.603 158.749 172.53 160.135 168.987L159.591 168.783L159.047 168.578C157.616 172.24 157.075 175.457 157.075 178.219C157.077 186.365 161.763 190.467 161.828 190.522L162.213 190.096L161.715 190.39C161.732 190.417 162.989 192.455 165.242 194.587C167.493 196.713 170.76 198.957 174.818 199.28C175.041 199.297 175.265 199.305 175.491 199.305C179.573 199.288 183.922 196.588 187.47 193.347C189.242 191.721 190.807 189.951 192.013 188.276C193.219 186.597 194.07 185.029 194.404 183.734C194.59 183.006 194.67 182.255 194.67 181.499C194.668 179.17 193.919 176.797 193.043 174.855C192.604 173.884 192.133 173.022 191.699 172.329C191.261 171.635 190.874 171.119 190.549 170.797C190.35 170.604 190.035 170.355 189.588 170.022C188.033 168.872 184.971 166.85 181.73 165.084C180.109 164.201 178.445 163.383 176.899 162.772C175.349 162.163 173.926 161.753 172.722 161.713L172.536 161.71C171.169 161.713 169.683 162.147 168.194 162.773C163.744 164.654 159.242 168.329 159.218 168.343L159.047 168.578L159.591 168.783Z" fill="#1E1E1E"/>
<path d="M118.072 92.1908C118.072 92.1908 115.697 92.4731 112.765 95.5778C109.832 98.6826 107.597 109.407 106.061 113.782C104.525 118.157 104.944 119.426 106.061 119.145C107.179 118.863 112.345 113.5 114.161 112.653C115.976 111.807 121.144 110.96 123.797 110.96C126.45 110.96 132.456 114.77 134.969 117.169C137.483 119.568 143.348 126.342 144.465 123.378C145.582 120.415 148.375 104.891 146.84 99.9521C145.303 95.0133 140.695 91.6263 137.343 90.4973C133.991 89.3683 120.725 91.0618 118.072 92.1908Z" fill="#D0A2F7"/>
<path d="M118.252 91.7625L118.184 91.188C118.079 91.1973 115.536 91.544 112.481 94.7883C111.656 95.6679 110.95 96.9797 110.281 98.5377C109.284 100.875 108.403 103.769 107.619 106.498C106.839 109.223 106.157 111.788 105.589 113.407C104.865 115.482 104.548 116.886 104.545 117.873C104.547 118.357 104.617 118.761 104.838 119.105C105.057 119.455 105.481 119.654 105.848 119.64C105.992 119.64 106.13 119.619 106.264 119.586C106.55 119.506 106.767 119.364 107.05 119.172C108.003 118.504 109.485 117.137 110.958 115.827C111.691 115.174 112.417 114.539 113.049 114.027C113.678 113.516 114.234 113.125 114.542 112.984C115.351 112.601 117.108 112.163 118.946 111.851C120.788 111.534 122.748 111.323 124.032 111.324C124.569 111.32 125.408 111.536 126.355 111.923C129.209 113.073 133.094 115.694 134.918 117.447C135.944 118.426 137.577 120.192 139.225 121.717C140.05 122.481 140.879 123.187 141.66 123.717C142.447 124.24 143.167 124.618 143.916 124.63C144.23 124.632 144.561 124.545 144.833 124.343C145.109 124.143 145.305 123.851 145.432 123.512C145.676 122.86 145.965 121.761 146.278 120.335C147.213 116.067 148.319 108.979 148.32 103.888C148.319 102.11 148.19 100.58 147.839 99.4393C147.024 96.8179 145.409 94.6335 143.571 92.9564C141.729 91.2782 139.665 90.1027 137.888 89.5006C136.972 89.1978 135.625 89.0984 133.987 89.0949C131.29 89.0949 127.856 89.4012 124.822 89.8161C123.306 90.0241 121.89 90.2588 120.718 90.4992C119.54 90.7419 118.621 90.98 118.03 91.2296L118.252 91.7625L118.473 92.2941C118.909 92.1069 119.806 91.863 120.944 91.6319C124.366 90.9291 130.065 90.2495 133.987 90.2507C135.563 90.2472 136.869 90.3697 137.527 90.5974C139.133 91.1383 141.088 92.2456 142.806 93.8152C144.528 95.3847 146.014 97.4108 146.75 99.786C147.041 100.715 147.181 102.174 147.178 103.888C147.18 107.174 146.694 111.418 146.096 115.119C145.797 116.969 145.471 118.687 145.163 120.084C144.859 121.478 144.567 122.566 144.364 123.101C144.295 123.286 144.222 123.365 144.166 123.407C144.107 123.447 144.046 123.473 143.916 123.474C143.612 123.487 142.991 123.237 142.294 122.756C141.241 122.043 139.978 120.883 138.798 119.717C137.614 118.548 136.508 117.376 135.703 116.606C134.381 115.345 132.214 113.765 130.009 112.475C128.908 111.832 127.799 111.263 126.78 110.849C125.757 110.438 124.833 110.172 124.032 110.169C122.637 110.169 120.649 110.387 118.755 110.712C116.856 111.041 115.089 111.461 114.064 111.935C113.503 112.2 112.832 112.714 112.049 113.359C110.886 114.324 109.524 115.578 108.35 116.612C107.766 117.129 107.227 117.591 106.794 117.929C106.578 118.097 106.389 118.234 106.242 118.327L106.059 118.434L106.004 118.458L105.988 118.464L105.848 118.484L105.801 118.479L105.796 118.474C105.776 118.461 105.682 118.279 105.687 117.873C105.682 117.144 105.957 115.802 106.664 113.794C107.455 111.532 108.403 107.725 109.526 104.084C110.087 102.266 110.689 100.493 111.329 98.9966C111.965 97.4998 112.65 96.2782 113.306 95.587C114.74 94.0671 116.019 93.2546 116.926 92.82C117.381 92.6027 117.741 92.4802 117.982 92.4132C118.103 92.3785 118.193 92.3588 118.25 92.3484L118.311 92.3369L118.321 92.3357L118.297 92.1566L118.318 92.3357H118.321L118.297 92.1566L118.318 92.3357L118.473 92.2941L118.252 91.7625Z" fill="#1E1E1E"/>
<path d="M117.482 85.5717C117.482 85.5717 115.36 99.1884 115.36 108.081C115.36 116.973 118.331 131.84 118.331 131.84C118.331 131.84 128.937 116.556 134.169 108.497C139.403 100.438 140.675 94.1863 140.675 94.1863L142.655 84.4601C142.655 84.4601 126.108 89.3238 117.482 85.5717Z" fill="#FFC19D"/>
<path d="M117.529 85.1362L116.964 85.0502C116.963 85.0639 114.847 98.9386 114.845 108.079C114.848 117.247 117.813 132.387 117.814 132.407C117.858 132.634 118.033 132.812 118.259 132.859C118.484 132.905 118.715 132.81 118.845 132.619C118.846 132.617 129.408 117.041 134.63 108.812C139.89 100.52 141.176 94.0798 141.187 94.0293L143.159 84.1156C143.199 83.9183 143.131 83.7153 142.984 83.58C142.836 83.4447 142.628 83.3965 142.437 83.4539C142.436 83.4539 142.308 83.4929 142.061 83.5628C140.336 84.0513 132.914 86.0146 126.011 86.0112C122.969 86.0135 120.034 85.627 117.759 84.6121C117.597 84.5399 117.41 84.5479 117.254 84.6339C117.099 84.7188 116.991 84.8736 116.964 85.0502L117.529 85.1362L117.297 85.6614C119.805 86.7738 122.875 87.1568 126.011 87.1579C134.132 87.1545 142.736 84.5582 142.763 84.5525L142.6 84.0032L142.041 83.8908L140.069 93.8045L140.055 93.8688C139.908 94.5499 138.508 100.568 133.668 108.195C131.068 112.294 127.125 118.241 123.833 123.16C122.188 125.62 120.705 127.823 119.633 129.413C118.562 131.001 117.904 131.971 117.902 131.973L118.374 132.297L118.933 132.185C118.933 132.183 118.749 131.245 118.473 129.687C117.642 125.016 115.983 114.794 115.986 108.079C115.986 103.59 116.511 97.8652 117.038 93.2748C117.302 90.9789 117.565 88.9641 117.762 87.5249C117.961 86.0857 118.092 85.2256 118.092 85.2233L117.529 85.1362Z" fill="#1E1E1E"/>
<path d="M118.104 131.84C118.104 131.84 122.222 126.256 126.69 120.085C123.244 119.726 119.169 119.303 115.875 118.965C116.798 125.691 118.104 131.84 118.104 131.84Z" fill="white"/>
<path d="M118.544 132.276L119.014 132.61C119.014 132.61 122.896 126.647 127.11 120.056C127.219 119.883 127.236 119.662 127.153 119.474C127.07 119.287 126.897 119.157 126.701 119.134C123.453 118.751 119.611 118.299 116.506 117.939C116.333 117.919 116.161 117.983 116.038 118.112C115.916 118.242 115.858 118.423 115.879 118.605C116.753 125.81 117.986 132.383 117.987 132.39C118.031 132.626 118.205 132.81 118.43 132.858C118.655 132.906 118.884 132.809 119.014 132.61L118.544 132.276L119.101 132.161C119.101 132.16 119.025 131.755 118.897 131.03C118.511 128.853 117.657 123.822 117.007 118.455L116.444 118.53L116.38 119.121C119.485 119.481 123.326 119.933 126.573 120.315L126.637 119.725L126.166 119.395C124.061 122.688 122.038 125.824 120.541 128.137C119.044 130.452 118.078 131.937 118.074 131.941L118.544 132.276Z" fill="#1E1E1E"/>
<path d="M136.324 36.3549C136.324 36.3549 134.146 32.9599 124.969 32.9599C115.793 32.9599 111.438 43.299 111.283 47.3101C111.127 51.3223 109.572 59.1916 109.105 60.1168C108.638 61.0432 105.217 65.0543 107.239 71.072C109.26 77.0898 116.103 86.3486 117.659 87.8909C119.215 89.4345 124.317 91.3567 127.015 90.3699C131.479 88.7386 143.478 85.2682 145.811 83.1075C148.144 80.948 150.944 75.3934 151.099 70.4548C151.255 65.5174 151.41 61.6604 151.41 61.6604C151.41 61.6604 147.677 55.9506 147.522 52.4027C147.367 48.8536 149.544 48.2364 147.677 46.6929C145.811 45.1506 143.012 47.0021 139.278 44.0702C135.545 41.1383 136.324 36.3549 136.324 36.3549Z" fill="#FFC19D"/>
<path d="M136.644 36.4376L137.132 36.1298C137.04 35.9598 134.585 32.43 125.192 32.445C120.329 32.4438 116.743 35.1937 114.408 38.3926C113.236 39.995 112.361 41.7179 111.765 43.3065C111.171 44.8974 110.852 46.3458 110.808 47.4462C110.733 49.4115 110.305 52.3945 109.836 54.979C109.602 56.2735 109.358 57.4704 109.146 58.395C109.039 58.8579 108.941 59.2519 108.856 59.5528C108.774 59.8492 108.694 60.0697 108.673 60.1065C108.618 60.2191 108.408 60.5338 108.15 60.945C107.369 62.1959 106.09 64.5069 106.09 67.6278C106.09 68.8327 106.281 70.1559 106.759 71.5756C107.812 74.6988 110.065 78.5582 112.256 81.8652C113.352 83.5169 114.431 85.0262 115.338 86.2231C116.249 87.4234 116.971 88.2987 117.409 88.734C118.154 89.4634 119.415 90.1595 120.88 90.72C122.342 91.2725 123.992 91.6676 125.484 91.6699C126.184 91.6688 126.853 91.5815 127.456 91.3621C129.681 90.5512 133.84 89.2635 137.732 87.9093C139.68 87.2316 141.564 86.5355 143.122 85.867C144.684 85.1916 145.901 84.5748 146.608 83.9316C147.875 82.7554 149.186 80.7694 150.234 78.4215C151.276 76.076 152.043 73.3767 152.126 70.79C152.204 68.3055 152.283 66.0921 152.341 64.5012C152.4 62.9092 152.44 61.942 152.44 61.9397C152.444 61.8226 152.411 61.7031 152.347 61.6043C152.347 61.6043 152.291 61.5193 152.19 61.3585C151.836 60.7968 150.94 59.3254 150.122 57.6231C149.302 55.9266 148.573 53.9774 148.517 52.5703C148.512 52.4531 148.51 52.3405 148.51 52.2303C148.511 51.1942 148.721 50.4728 148.942 49.8629C149.155 49.253 149.429 48.7614 149.441 48.1112C149.444 47.816 149.364 47.5002 149.194 47.2153C149.027 46.9293 148.786 46.6697 148.466 46.4055C147.895 45.9323 147.24 45.7232 146.595 45.6256C144.641 45.343 142.653 45.8312 139.984 43.7556C138.753 42.7896 138.053 41.6192 137.651 40.4866C137.249 39.3563 137.156 38.2674 137.156 37.5174C137.156 37.2049 137.172 36.9522 137.187 36.7799L137.208 36.5858L137.216 36.5295C137.239 36.3906 137.209 36.247 137.132 36.1298L136.644 36.4376L136.071 36.3457C136.068 36.3699 135.996 36.8155 135.996 37.5174C135.996 38.3593 136.098 39.5734 136.556 40.868C137.013 42.1602 137.838 43.5385 139.264 44.6562C141.245 46.2183 143.072 46.5296 144.525 46.6238C145.253 46.6732 145.89 46.68 146.419 46.7616C146.95 46.8443 147.354 46.9844 147.724 47.2877C147.975 47.4956 148.118 47.6644 148.19 47.7896C148.262 47.9183 148.279 47.9987 148.282 48.1112C148.296 48.3513 148.103 48.805 147.85 49.4735C147.605 50.1432 147.349 51.0357 147.35 52.2303C147.35 52.3566 147.353 52.4864 147.358 52.6197C147.454 54.5815 148.467 56.9339 149.44 58.8545C150.416 60.7681 151.367 62.2177 151.374 62.2292L151.86 61.9168L151.281 61.8938C151.281 61.8949 151.123 65.7796 150.967 70.7544C150.892 73.139 150.169 75.7222 149.172 77.9586C148.181 80.195 146.904 82.0914 145.817 83.0919C145.347 83.5353 144.17 84.1705 142.66 84.8137C138.107 86.7698 130.465 89.0419 127.055 90.2847C126.624 90.442 126.085 90.5213 125.484 90.5213C124.2 90.5224 122.652 90.1629 121.295 89.6472C119.938 89.1372 118.755 88.4503 118.23 87.9219C117.882 87.5796 117.153 86.7067 116.266 85.5339C113.589 82.0099 109.336 75.6235 107.859 71.2115C107.42 69.909 107.25 68.7132 107.25 67.6278C107.25 65.7567 107.759 64.2083 108.318 63.0286C108.599 62.4405 108.89 61.9454 109.137 61.5492C109.386 61.1483 109.582 60.8692 109.71 60.6199C109.806 60.4235 109.878 60.1926 109.973 59.8607C110.607 57.5921 111.822 51.1161 111.967 47.4898C112.002 46.5709 112.29 45.2029 112.853 43.7062C113.694 41.4572 115.146 38.9026 117.201 36.9396C119.261 34.9743 121.891 33.5971 125.192 33.5936C129.749 33.5948 132.516 34.4344 134.127 35.2408C134.932 35.6451 135.451 36.0414 135.763 36.3262C135.918 36.4687 136.022 36.5824 136.084 36.657L136.148 36.7363L136.157 36.7512L136.311 36.6467L136.155 36.7466L136.157 36.7512L136.311 36.6467L136.155 36.7466L136.644 36.4376Z" fill="#1E1E1E"/>
<path d="M120.068 67.3581C120.081 67.3806 120.577 68.3373 121.384 69.3416C121.787 69.8437 122.27 70.3596 122.826 70.7755C123.38 71.189 124.018 71.5125 124.732 71.5687C124.88 71.5787 125.03 71.585 125.181 71.585C126.388 71.5825 127.699 71.2652 128.781 70.9367C129.322 70.7705 129.804 70.6019 130.18 70.4633C130.551 70.3271 130.83 70.216 130.917 70.186C131.229 70.0773 131.398 69.7238 131.295 69.3966C131.19 69.0693 130.853 68.8919 130.541 69.0006C130.402 69.0506 130.151 69.1505 129.786 69.2854C128.706 69.6864 126.697 70.3409 125.181 70.3359C125.055 70.3359 124.933 70.3309 124.818 70.3221C124.405 70.2934 123.956 70.0886 123.516 69.7576C122.854 69.2654 122.237 68.5085 121.801 67.8777C121.584 67.5617 121.409 67.2781 121.29 67.0758L121.155 66.8397L121.112 66.761C120.955 66.4575 120.594 66.3463 120.306 66.5112C120.016 66.6761 119.911 67.0558 120.068 67.3581Z" fill="#1E1E1E"/>
<path d="M117.106 73.4978C117.122 73.5088 118.192 74.3026 119.713 75.1045C121.237 75.9023 123.198 76.7281 125.101 76.7351C125.254 76.7351 125.405 76.7301 125.557 76.7181C129.134 76.4385 133.989 75.2183 134.006 75.2153C134.304 75.1414 134.478 74.8648 134.394 74.6002C134.311 74.3346 134 74.1798 133.703 74.2547C133.702 74.2547 133.405 74.3286 132.899 74.4464C131.386 74.7979 128.008 75.5269 125.46 75.7236C125.342 75.7326 125.223 75.7365 125.101 75.7365C123.578 75.7445 121.721 75.0086 120.285 74.2457C119.565 73.8663 118.945 73.4848 118.509 73.1992C118.291 73.0574 118.118 72.9386 118.001 72.8557C117.883 72.7738 117.826 72.7309 117.826 72.7309C117.587 72.5542 117.233 72.5831 117.035 72.7948C116.837 73.0065 116.869 73.321 117.106 73.4978Z" fill="#1E1E1E"/>
<path d="M120.51 75.1901C120.51 75.1901 122.176 79.1328 123.994 79.3039C125.812 79.475 128.235 76.0468 128.235 76.0468C128.235 76.0468 125.392 76.7844 124.405 76.5448C123.418 76.3053 120.51 75.1901 120.51 75.1901Z" fill="#FF9C6A"/>
<path d="M120.549 75.7352L120.049 75.9707C120.058 75.9882 120.479 76.8571 121.15 77.7686C121.486 78.2255 121.884 78.6932 122.342 79.0759C122.801 79.4542 123.329 79.7628 123.951 79.8173L124.131 79.825C124.726 79.8217 125.28 79.6025 125.793 79.3136C127.322 78.4392 128.604 76.8353 128.628 76.8135C128.775 76.6314 128.791 76.3796 128.666 76.1823C128.539 75.986 128.302 75.889 128.071 75.9413C128.071 75.9413 127.948 75.9697 127.738 76.0122C127.115 76.143 125.716 76.4003 124.909 76.3971C124.738 76.3971 124.596 76.384 124.521 76.3676C124.084 76.2771 123.113 75.9849 122.281 75.7221C121.444 75.4572 120.729 75.2195 120.728 75.2184C120.517 75.1487 120.282 75.2097 120.135 75.3732C119.987 75.5368 119.953 75.7734 120.049 75.9707L120.549 75.7352L120.372 76.252C120.373 76.252 121.095 76.493 121.941 76.7601C122.793 77.0283 123.749 77.3194 124.289 77.4339C124.487 77.4743 124.689 77.4863 124.909 77.4874C125.58 77.4863 126.413 77.3631 127.1 77.2442C127.785 77.1243 128.313 77.0054 128.32 77.0043L128.196 76.4723L127.763 76.1321L127.67 76.2411C127.453 76.4952 126.868 77.1483 126.169 77.7185C125.478 78.2985 124.651 78.7521 124.131 78.7347L124.043 78.7314C123.766 78.7118 123.415 78.5417 123.058 78.2429C122.521 77.8003 122.002 77.1047 121.636 76.5268C121.452 76.2379 121.303 75.9773 121.202 75.7919L121.087 75.5739L121.049 75.4997L120.549 75.7352Z" fill="#1E1E1E"/>
<path d="M121.513 56.6193C121.33 57.8939 120.271 58.8244 119.148 58.6986C118.026 58.5727 117.264 57.439 117.447 56.1656C117.63 54.8922 118.689 53.9605 119.812 54.0863C120.934 54.2122 121.696 55.3459 121.513 56.6193Z" fill="#1E1E1E"/>
<path d="M139.538 59.9427C139.355 61.0746 138.296 61.9018 137.174 61.7899C136.051 61.6791 135.289 60.6703 135.472 59.5383C135.654 58.4063 136.713 57.5792 137.836 57.69C138.958 57.8019 139.72 58.8097 139.538 59.9427Z" fill="#1E1E1E"/>
<path d="M126.088 54.5901H125.487C125.487 56.5634 124.615 58.3454 123.2 59.639C121.785 60.9315 119.836 61.7301 117.678 61.7301C115.519 61.7301 113.571 60.9315 112.155 59.639C110.742 58.3454 109.868 56.5634 109.868 54.5901C109.868 52.6167 110.742 50.8347 112.155 49.5411C113.571 48.2487 115.519 47.4501 117.678 47.4501C119.836 47.4501 121.785 48.2487 123.2 49.5411C124.615 50.8347 125.487 52.6167 125.487 54.5901H126.088H126.69C126.69 50.0394 122.656 46.3501 117.678 46.3501C112.7 46.3501 108.666 50.0394 108.665 54.5901C108.666 59.1407 112.7 62.8301 117.678 62.8301C122.656 62.8301 126.69 59.1407 126.69 54.5901H126.088Z" fill="#1E1E1E"/>
<path d="M145.658 58.71H145.057C145.057 60.6833 144.185 62.4642 142.77 63.7578C141.355 65.0514 139.406 65.8489 137.247 65.85C135.089 65.8489 133.141 65.0514 131.725 63.7578C130.312 62.4642 129.439 60.6833 129.438 58.71C129.439 56.7366 130.312 54.9546 131.725 53.661C133.141 52.3674 135.089 51.5699 137.247 51.5699C139.406 51.5699 141.355 52.3674 142.77 53.661C144.185 54.9546 145.057 56.7366 145.057 58.71H145.658H146.26C146.26 54.1582 142.226 50.47 137.247 50.47C132.27 50.47 128.236 54.1582 128.235 58.71C128.236 63.2606 132.27 66.9489 137.247 66.95C142.226 66.9489 146.26 63.2606 146.26 58.71H145.658Z" fill="#1E1E1E"/>
<path d="M125.937 55.8582L125.873 55.7034L125.934 55.8597L125.937 55.8582L125.873 55.7034L125.934 55.8597C125.955 55.8423 126.427 55.5181 127.001 55.5225C127.551 55.5355 128.182 55.7555 128.826 56.8814C129.004 57.1983 129.337 57.2591 129.571 57.016C129.804 56.7728 129.849 56.3184 129.67 56.0015C128.853 54.5268 127.81 54.0623 127.001 54.0753C126.093 54.0811 125.463 54.5659 125.417 54.5948C125.161 54.7902 125.069 55.2316 125.213 55.5804C125.357 55.9291 125.68 56.0536 125.937 55.8582Z" fill="#1E1E1E"/>
<path d="M145.7 61.6152L151.811 62.3104C152.111 62.3444 152.39 62.1838 152.434 61.9518C152.478 61.7189 152.27 61.503 151.97 61.469L145.859 60.7747C145.559 60.7398 145.28 60.9005 145.236 61.1325C145.192 61.3653 145.4 61.5812 145.7 61.6152Z" fill="#1E1E1E"/>
<path d="M115.851 47.1447H115.852C115.986 47.0886 116.998 46.7235 118.27 46.7274C119.435 46.7373 120.785 46.9823 122.247 48.0472C122.976 48.5825 124.081 48.5176 124.715 47.9035C125.35 47.2884 125.273 46.3555 124.545 45.8201C122.428 44.2533 120.097 43.7652 118.27 43.7751C115.957 43.7819 114.397 44.461 114.249 44.5201C113.389 44.894 113.052 45.7837 113.494 46.509C113.937 47.2333 114.991 47.5187 115.851 47.1447Z" fill="#1E1E1E"/>
<path d="M135.048 51.1896L134.549 50.3067L135.029 51.1988L135.048 51.1896L134.549 50.3067L135.029 51.1988L135.059 51.1862C135.226 51.1141 136.032 50.8087 137.114 50.811C137.811 50.8122 138.622 50.9288 139.529 51.3085C140.436 51.6905 141.452 52.3413 142.527 53.4896C143.195 54.2021 144.355 54.2741 145.118 53.6508C145.881 53.0264 145.958 51.9433 145.29 51.2296C143.91 49.7531 142.451 48.773 141.036 48.1794C139.62 47.5835 138.263 47.3788 137.114 47.38C134.924 47.3868 133.5 48.0788 133.334 48.1554C132.438 48.598 132.094 49.6353 132.568 50.4736C133.041 51.312 134.151 51.6322 135.048 51.1896Z" fill="#1E1E1E"/>
<path d="M151.328 80.1075L151.302 80.1497C151.021 80.6044 148.415 84.63 143.178 87.9442C140.386 89.7134 137.314 90.9726 134.567 92.1441C131.82 93.3221 129.393 94.3907 127.873 95.9152C127.654 96.1371 127.673 96.4793 127.914 96.6796C128.157 96.881 128.531 96.8636 128.751 96.6417C130.008 95.3576 132.332 94.2879 135.067 93.125C137.802 91.9578 140.942 90.6759 143.852 88.8342C149.669 85.1486 152.339 80.6694 152.368 80.6261C152.524 80.363 152.419 80.0349 152.131 79.8909C151.844 79.748 151.485 79.8455 151.328 80.1075Z" fill="#B2CFF3"/>
<path d="M123.644 101.504C124.747 102.812 127.121 102.812 128.947 101.504C130.771 100.197 131.356 98.0774 130.252 96.7709C129.147 95.4632 126.773 95.4632 124.948 96.7709C123.124 98.0774 122.539 100.197 123.644 101.504Z" fill="#B2CFF3"/>
<path d="M123.727 101.466L123.243 101.816C123.921 102.626 124.979 103.002 126.062 103C127.146 102.999 128.286 102.627 129.272 101.916C130.572 100.971 131.32 99.6404 131.325 98.3468C131.326 97.6744 131.112 97.0078 130.652 96.4594C129.97 95.6437 128.905 95.2716 127.818 95.275C126.735 95.2762 125.603 95.6527 124.623 96.3593C123.323 97.3035 122.575 98.6347 122.57 99.9282C122.569 100.599 122.783 101.267 123.243 101.816L123.727 101.466L124.209 101.117C123.932 100.785 123.795 100.383 123.794 99.9282C123.789 99.0567 124.335 98.0055 125.374 97.2569C126.155 96.6915 127.046 96.4116 127.818 96.4127C128.626 96.415 129.281 96.6733 129.686 97.1579C129.963 97.4901 130.1 97.8917 130.101 98.3468C130.106 99.2183 129.56 100.27 128.521 101.017C127.736 101.586 126.842 101.863 126.062 101.862C125.264 101.859 124.614 101.599 124.209 101.117L123.727 101.466Z" fill="#1E1E1E"/>
<path d="M150.767 59.0552C150.767 59.0552 146.603 68.3338 145.492 71.0467C144.382 73.7585 146.88 79.4688 151.461 80.182C156.041 80.8963 158.262 79.1832 160.205 75.1861C162.149 71.1889 164.925 66.6207 163.259 62.7669C161.594 58.9119 157.291 55.7724 150.767 59.0552Z" fill="#B2CFF3"/>
<path d="M150.785 59.5808L150.277 59.3447C150.276 59.3492 146.136 68.3676 145.02 71.0311C144.808 71.5373 144.716 72.1042 144.715 72.7003C144.719 74.2716 145.353 76.0735 146.49 77.601C147.628 79.1228 149.299 80.3758 151.392 80.6952C152.089 80.801 152.739 80.8549 153.348 80.8549C155.107 80.8594 156.553 80.3938 157.737 79.4737C158.921 78.5548 159.835 77.2241 160.679 75.5291C161.43 74.0163 162.323 72.3955 163.035 70.7387C163.746 69.0819 164.284 67.3846 164.285 65.694C164.286 64.7706 164.121 63.8483 163.729 62.9642C163.108 61.5616 162.142 60.2456 160.832 59.2715C159.523 58.2986 157.866 57.6789 155.927 57.68C154.313 57.68 152.509 58.1051 150.54 59.0758C150.423 59.1332 150.331 59.2266 150.277 59.3447L150.785 59.5808L151.031 60.0859C152.877 59.1771 154.509 58.8048 155.927 58.8048C157.629 58.807 159.033 59.3368 160.167 60.177C161.299 61.0172 162.156 62.1757 162.707 63.4209C163.028 64.1486 163.166 64.9033 163.166 65.694C163.169 67.1383 162.692 68.7051 162.009 70.2933C161.326 71.8815 160.445 73.4843 159.679 75.0252C158.874 76.6449 158.039 77.8214 157.054 78.5818C156.068 79.341 154.923 79.7257 153.348 79.7302C152.804 79.7302 152.21 79.6818 151.56 79.5828C149.819 79.3185 148.39 78.268 147.385 76.925C146.379 75.5876 145.829 73.9623 145.834 72.7003C145.834 72.2223 145.911 71.8016 146.051 71.4675C146.596 70.1628 147.911 67.2429 149.083 64.6581C149.67 63.3657 150.223 62.1555 150.628 61.268C151.034 60.3806 151.292 59.8182 151.292 59.8159L150.785 59.5808Z" fill="#1E1E1E"/>
<path d="M157.075 57.4262C157.075 57.4262 161.677 47.0189 157.601 36.3264L158.127 33.475C158.127 33.475 161.94 39.8902 162.203 47.162C162.466 54.4327 160.231 58.71 160.231 58.71L157.075 57.4262Z" fill="#B2CFF3"/>
<path d="M157.134 57.3732L157.652 57.6226C157.67 57.5766 160.086 52.537 160.089 45.8003C160.089 42.8185 159.612 39.5002 158.231 36.153L157.701 36.3725L158.263 36.4851L158.83 33.647L158.268 33.5344L157.785 33.8458L157.826 33.9113C158.258 34.5961 161.836 40.5837 162.085 47.1791C162.101 47.5743 162.108 47.9592 162.108 48.335C162.108 51.5316 161.581 54.0525 161.06 55.7703C160.798 56.6287 160.538 57.2859 160.345 57.7237C160.249 57.9431 160.168 58.1086 160.114 58.2166L160.052 58.3349L160.035 58.3671L160.534 58.6509L160.735 58.1132L157.335 56.8355L157.134 57.3732L156.932 57.9121L160.332 59.1887C160.596 59.2875 160.893 59.1795 161.033 58.9336C161.066 58.8739 163.255 54.9821 163.255 48.335C163.255 47.9443 163.248 47.5445 163.232 47.1343C162.93 39.6978 158.77 33.2667 158.749 33.223C158.623 33.0265 158.39 32.9266 158.16 32.9702C157.93 33.0139 157.75 33.192 157.704 33.4218L157.138 36.2599C157.116 36.3725 157.126 36.4862 157.171 36.592C158.484 39.777 158.942 42.9392 158.942 45.8003C158.942 49.0302 158.358 51.8728 157.773 53.902C157.482 54.9166 157.189 55.7278 156.972 56.2828C156.863 56.5609 156.773 56.7746 156.711 56.9171L156.64 57.0768L156.617 57.125C156.547 57.2709 156.541 57.4376 156.602 57.5881C156.662 57.7386 156.781 57.8547 156.932 57.9121L157.134 57.3732Z" fill="#1E1E1E"/>
<path d="M56.4888 158.836C56.4888 158.836 51.3335 167.589 52.091 169.777C52.8497 171.965 61.4919 181.5 63.6146 181.656C65.7374 181.813 71.6514 182.281 76.8066 179.78C81.9619 177.279 82.2652 163.681 81.6587 160.712C81.0522 157.741 76.5034 152.272 73.4709 151.489C70.4384 150.709 59.218 155.866 56.4888 158.836Z" fill="#D0A2F7"/>
<path d="M56.6107 159.126L56.1145 158.831C56.1111 158.839 54.9728 160.674 53.8287 162.861C53.2573 163.954 52.6835 165.135 52.2476 166.229C51.8141 167.328 51.5058 168.317 51.5 169.142C51.5 169.386 51.5278 169.621 51.6101 169.849C51.7434 170.206 51.9822 170.594 52.3126 171.07C53.4636 172.712 55.7587 175.267 58.0294 177.464C59.1642 178.562 60.2886 179.565 61.2657 180.314C61.7549 180.689 62.2058 181.001 62.6161 181.233C63.0299 181.462 63.3858 181.625 63.788 181.66C64.5044 181.71 65.6658 181.795 67.0881 181.795C69.9338 181.793 73.8355 181.46 77.4381 179.801C78.5937 179.267 79.4932 178.302 80.2026 177.122C82.3169 173.579 82.9046 167.949 82.915 164.163C82.9127 162.702 82.8257 161.532 82.6727 160.815C82.4954 159.997 82.0642 159.092 81.4777 158.148C80.5944 156.736 79.353 155.249 78.02 154.025C76.6823 152.804 75.2797 151.837 73.9525 151.503C73.6778 151.436 73.3822 151.41 73.0623 151.41C71.9901 151.412 70.6119 151.709 69.0575 152.178C66.7322 152.885 64.0384 153.997 61.6668 155.189C59.2917 156.389 57.2586 157.64 56.1899 158.735L56.1145 158.831L56.6107 159.126L57.0314 159.517C57.6029 158.922 58.6855 158.152 60.022 157.374C62.0296 156.202 64.6203 154.985 67.0522 154.067C69.4748 153.148 71.7757 152.539 73.0623 152.545C73.3138 152.545 73.5225 152.568 73.672 152.605C74.32 152.761 75.1349 153.193 75.9694 153.81C77.2225 154.734 78.5277 156.061 79.5581 157.406C80.5909 158.744 81.3467 160.126 81.5391 161.048C81.662 161.613 81.757 162.756 81.7559 164.163C81.7559 166.604 81.4835 169.884 80.7208 172.742C80.3417 174.172 79.8375 175.494 79.2046 176.546C78.5694 177.602 77.8136 178.375 76.9443 178.774C73.5839 180.326 69.8399 180.661 67.0881 180.659C65.7122 180.659 64.5878 180.578 63.8703 180.527C63.7892 180.53 63.4507 180.414 63.045 180.162C61.5845 179.287 59.0982 177.006 56.9526 174.748C55.8758 173.618 54.8754 172.488 54.1092 171.535C53.7267 171.061 53.4022 170.628 53.1587 170.268C52.9153 169.911 52.7542 169.615 52.702 169.467C52.68 169.407 52.658 169.295 52.6591 169.142C52.6522 168.612 52.9107 167.674 53.3268 166.642C53.9469 165.084 54.8951 163.27 55.6857 161.854C56.0809 161.146 56.4368 160.536 56.693 160.104C56.9503 159.672 57.1056 159.421 57.1056 159.42L56.6107 159.126Z" fill="#1E1E1E"/>
<path d="M76.4143 156.372C76.4143 156.372 66.4569 141.612 64.0056 131.873C61.5544 122.134 58.3366 111.33 58.3366 111.33C58.3366 111.33 57.8776 105.243 56.4982 102.048C55.12 98.8517 53.8944 98.5474 51.7496 96.2654C49.6048 93.9823 48.6856 92.7649 48.2254 90.1786C47.7664 87.5912 44.2422 90.1786 43.9357 92.309C43.6293 94.4394 48.2254 100.83 48.2254 100.83C48.2254 100.83 32.4463 102.808 27.3901 103.417C22.335 104.025 27.2374 109.504 31.2207 112.091C35.2039 114.677 42.5575 114.526 46.2344 114.83C49.9112 115.134 49.9111 116.199 49.9111 116.199C49.9111 116.199 52.056 147.546 54.3534 158.35C56.652 169.155 62.6263 173.72 67.0697 172.959C71.5119 172.198 77.0271 166.415 77.6399 162.307C78.2527 158.198 76.4143 156.372 76.4143 156.372Z" fill="#FFC19D"/>
<path d="M76.3363 156.747L76.8207 156.426C76.8196 156.426 76.6658 156.199 76.3887 155.777C75.4174 154.299 72.9485 150.46 70.4586 145.933C67.9676 141.409 65.4568 136.182 64.4028 131.995C61.9293 122.193 58.6883 111.336 58.6871 111.332L58.1281 111.496L58.7092 111.453C58.7081 111.444 58.5916 109.903 58.2993 107.952C58.0047 105.998 57.5447 103.644 56.8121 101.943C56.0994 100.29 55.3855 99.3219 54.5913 98.5189C53.797 97.7147 52.9679 97.0824 51.9186 95.9667C50.8437 94.8267 50.1007 93.9741 49.5801 93.1191C49.0607 92.2642 48.7416 91.3977 48.518 90.1458C48.4342 89.6774 48.2548 89.2782 47.9532 88.9932C47.6527 88.7048 47.2475 88.5767 46.8725 88.5801C46.4288 88.5824 46.006 88.729 45.6031 88.9436C44.9987 89.2701 44.4292 89.7674 43.9669 90.3489C43.508 90.9316 43.1517 91.5973 43.0468 92.3046L43.0259 92.6057C43.034 93.358 43.338 94.2002 43.7561 95.129C45.0162 97.8866 47.4606 101.266 47.4699 101.282L47.9439 100.948L47.8717 100.375C47.8682 100.375 46.8783 100.499 45.3084 100.695C40.6001 101.282 30.7047 102.516 26.8883 102.974C26.0464 103.076 25.393 103.301 24.9156 103.697C24.4346 104.091 24.197 104.675 24.2052 105.245C24.2087 105.9 24.4556 106.55 24.8294 107.212C25.9614 109.181 28.3371 111.336 30.4974 112.743C32.6472 114.128 35.5703 114.735 38.4258 115.069C41.2767 115.398 44.0728 115.436 45.8896 115.587C47.6865 115.732 48.5262 116.073 48.8557 116.294C49.0223 116.405 49.0642 116.479 49.0724 116.493L49.0735 116.494L49.3519 116.388H49.0595L49.0735 116.494L49.3519 116.388H49.0595L49.0607 116.427C49.0607 116.429 49.6011 124.306 50.4314 133.542C51.2618 142.784 52.3774 153.364 53.5467 158.854C54.639 163.972 56.5466 167.753 58.7756 170.275C61.0023 172.794 63.5655 174.067 65.9494 174.07C66.3127 174.07 66.6714 174.04 67.0231 173.98C69.4594 173.554 72.0227 171.844 74.1119 169.724C76.1919 167.594 77.7978 165.06 78.1472 162.794C78.2392 162.178 78.28 161.606 78.28 161.08C78.2823 157.914 76.823 156.408 76.7485 156.34L76.3363 156.747L75.9252 157.156L75.9263 157.157C76.0032 157.244 77.1119 158.451 77.1154 161.08C77.1154 161.548 77.0793 162.063 76.9954 162.626C76.7276 164.487 75.2462 166.922 73.2769 168.92C71.3158 170.927 68.8632 172.504 66.8252 172.842C66.541 172.891 66.2487 172.916 65.9494 172.916C63.9976 172.919 61.7197 171.855 59.6514 169.515C57.5854 167.18 55.7442 163.581 54.6856 158.616C53.5408 153.251 52.4182 142.658 51.5913 133.439C51.1767 128.828 50.8344 124.555 50.5956 121.434C50.3569 118.314 50.223 116.354 50.223 116.348L49.6418 116.388H50.2241C50.2241 116.306 50.2032 116.135 50.0949 115.94C49.9318 115.642 49.5929 115.318 48.9687 115.053C48.3422 114.784 47.4175 114.555 45.9862 114.437C44.0996 114.282 41.3407 114.244 38.5597 113.923C35.7822 113.607 32.9965 112.991 31.1344 111.777C29.7846 110.904 28.3056 109.671 27.1888 108.437C26.6298 107.821 26.1617 107.205 25.8437 106.645C25.5235 106.087 25.3662 105.588 25.3697 105.245C25.3779 104.942 25.4513 104.77 25.6679 104.579C25.888 104.39 26.32 104.202 27.0281 104.118C32.1243 103.507 48.0161 101.52 48.0173 101.52C48.2199 101.494 48.3957 101.364 48.4773 101.178C48.5599 100.993 48.5366 100.777 48.4179 100.612C48.4179 100.612 48.3527 100.522 48.2362 100.355C47.8263 99.7719 46.7968 98.2708 45.8779 96.6786C45.4179 95.8836 44.987 95.0644 44.6773 94.3364C44.364 93.6129 44.1858 92.9645 44.1905 92.6057L44.1998 92.4672C44.2731 91.9065 44.7122 91.1681 45.2805 90.6189C45.5623 90.3431 45.8709 90.1112 46.1574 89.9577C46.4439 89.802 46.7071 89.7316 46.8725 89.7339C47.0181 89.7385 47.0786 89.7662 47.1496 89.8285C47.2195 89.8932 47.3162 90.0385 47.3709 90.3454C47.6085 91.6931 47.9847 92.7372 48.5832 93.7156C49.1818 94.6964 49.9819 95.6009 51.0673 96.7547C52.1783 97.9327 53.0471 98.5996 53.7575 99.3242C54.4678 100.05 55.0653 100.84 55.7419 102.398C56.3976 103.907 56.8634 106.216 57.1475 108.122C57.2908 109.076 57.3909 109.932 57.455 110.549C57.519 111.167 57.547 111.538 57.5482 111.539L57.5703 111.659C57.5703 111.662 57.7717 112.335 58.1141 113.505C59.1401 117.013 61.4239 124.949 63.2732 132.274C64.5368 137.271 67.6788 143.439 70.5064 148.394C73.334 153.343 75.8471 157.061 75.853 157.069L75.9252 157.156L76.3363 156.747Z" fill="#1E1E1E"/>
<path d="M26.2167 104.996C26.2167 104.996 24.1521 96.1349 23.1198 95.8185C22.0875 95.502 21.9589 97.8761 22.3455 99.9325C22.7331 101.99 23.7654 107.053 25.1844 108.003C26.6043 108.952 26.2167 104.996 26.2167 104.996Z" fill="#FFC19D"/>
<path d="M26.2385 104.729L26.7121 104.58C26.7101 104.574 26.1873 102.548 25.5287 100.473C25.1999 99.4348 24.8376 98.3861 24.4822 97.5563C24.303 97.1414 24.1277 96.781 23.9456 96.4913C23.853 96.3465 23.7605 96.218 23.6512 96.1047C23.5409 95.9936 23.4149 95.8869 23.2269 95.8325C23.1294 95.8052 23.028 95.79 22.9276 95.79C22.6746 95.7867 22.4235 95.8956 22.2453 96.0666C21.9746 96.3258 21.8407 96.6666 21.7511 97.0314C21.6654 97.3984 21.63 97.8067 21.63 98.2412C21.63 98.8783 21.7068 99.5709 21.8456 100.235C22.0435 101.181 22.4048 102.821 22.9059 104.356C23.157 105.124 23.4425 105.865 23.7703 106.492C24.1021 107.117 24.4634 107.642 24.9596 107.949C25.1624 108.071 25.3721 108.149 25.5956 108.15C25.8792 108.155 26.1529 107.997 26.3114 107.795C26.5546 107.489 26.6422 107.136 26.7052 106.781C26.7633 106.425 26.779 106.055 26.78 105.722C26.779 105.143 26.7288 104.678 26.7278 104.665L26.7121 104.58L26.2385 104.729L25.7502 104.795L25.7561 104.862C25.7689 105.002 25.7955 105.341 25.7955 105.722C25.7965 106.109 25.764 106.545 25.6872 106.817C25.6508 106.953 25.6025 107.04 25.5838 107.061L25.5759 107.07L25.6006 107.104L25.5878 107.063L25.5759 107.07L25.6006 107.104L25.5878 107.063L25.5956 107.09V107.061L25.5878 107.063L25.5956 107.09V107.061C25.5907 107.062 25.5346 107.056 25.4302 106.993C25.2087 106.867 24.9016 106.49 24.6219 105.947C23.7615 104.316 23.09 101.377 22.8045 99.9901C22.6824 99.4032 22.6145 98.7803 22.6145 98.2412C22.6126 97.7534 22.6755 97.3309 22.7661 97.0989C22.8104 96.9813 22.8577 96.9182 22.8803 96.8986L22.9276 96.8789L22.9886 96.8888L23.0211 96.7439L22.9493 96.8724L22.9886 96.8888L23.0211 96.7439L22.9493 96.8724C22.9581 96.8703 23.095 97.0194 23.2279 97.2666C23.472 97.6989 23.7674 98.41 24.0549 99.2115C24.489 100.417 24.9183 101.838 25.2373 102.954C25.5563 104.07 25.765 104.877 25.765 104.879L26.2385 104.729Z" fill="#1E1E1E"/>
<path d="M28.4883 106.629C28.4883 106.629 23.0328 102.448 21.6292 100.124C20.2267 97.8007 18.0443 101.518 21.1621 104.461C24.2799 107.404 27.553 109.883 29.2684 110.192C30.9826 110.502 28.4883 106.629 28.4883 106.629Z" fill="#FFC19D"/>
<path d="M28.4408 106.787L28.795 106.349C28.795 106.349 28.4652 106.107 27.9425 105.705C27.1597 105.102 25.9506 104.146 24.8159 103.143C23.6835 102.146 22.6196 101.077 22.1678 100.352C21.9854 100.064 21.7787 99.8317 21.5348 99.6637C21.292 99.4946 21.0028 99.394 20.7101 99.3951C20.155 99.3973 19.7194 99.73 19.4616 100.133C19.1956 100.543 19.0562 101.061 19.0551 101.64C19.0539 102.71 19.5498 104.002 20.8077 105.138C22.3617 106.542 23.9541 107.837 25.3873 108.827C26.8298 109.815 28.0714 110.509 29.1063 110.699L29.3874 110.725C29.6464 110.731 29.9658 110.631 30.1563 110.404C30.3467 110.181 30.3839 109.936 30.3851 109.731C30.3816 109.375 30.2724 109.04 30.1342 108.688C29.7149 107.648 28.939 106.506 28.9297 106.49L28.795 106.349L28.4408 106.787L27.9518 107.085C27.9518 107.085 28.0308 107.202 28.1551 107.4C28.3409 107.698 28.6208 108.166 28.8461 108.629C29.0761 109.085 29.2341 109.57 29.2236 109.731L29.2224 109.762L29.2213 109.768L29.4338 109.818L29.3072 109.658L29.2213 109.768L29.4338 109.818L29.3072 109.658L29.4431 109.831L29.3804 109.622L29.3072 109.658L29.4431 109.831L29.3804 109.622L29.4083 109.712L29.3955 109.62L29.3804 109.622L29.4083 109.712L29.3955 109.62H29.3874L29.3142 109.612C28.6557 109.508 27.435 108.885 26.0691 107.932C24.6939 106.982 23.1318 105.714 21.6079 104.337C20.5591 103.387 20.2177 102.389 20.2165 101.64C20.2153 101.235 20.3222 100.906 20.4476 100.716C20.5812 100.518 20.6823 100.497 20.7101 100.5L20.853 100.559C20.9343 100.614 21.0504 100.727 21.1712 100.92C21.5638 101.539 22.1805 102.213 22.8972 102.911C25.04 104.991 28.0761 107.216 28.0865 107.225L28.4408 106.787Z" fill="#1E1E1E"/>
<path d="M33.475 113.298C33.475 113.298 30.7718 113.455 28.0686 110.957C25.3653 108.46 22.6621 97.3759 22.6621 97.3759C22.6621 97.3759 22.5125 95.1905 24.7646 97.0637C27.0179 98.9369 30.0215 106.899 30.1711 107.523C30.3218 108.147 33.475 109.552 33.475 109.552" fill="#FFC19D"/>
<path d="M33.8857 112.645H33.8764L33.8189 112.646C33.3828 112.645 31.0578 112.546 28.7153 110.47C28.1314 109.961 27.4374 108.852 26.8019 107.506C25.8405 105.484 24.96 102.921 24.3257 100.873C24.0092 99.8481 23.7524 98.9519 23.5754 98.3115C23.3983 97.6724 23.3022 97.2938 23.3022 97.2926L22.7336 97.4363L23.3186 97.3943V97.392L23.3175 97.3569L23.3761 97.0017L23.3983 96.9573L23.4042 96.9514L23.3737 96.9187L23.3901 96.9596L23.4042 96.9514L23.3737 96.9187L23.3901 96.9596L23.4112 96.9585C23.4933 96.9468 23.8943 97.0566 24.5426 97.5836C25.0233 97.961 25.6436 98.7661 26.2438 99.7499C27.1525 101.227 28.0564 103.108 28.7411 104.669C29.0835 105.451 29.3719 106.152 29.5806 106.685C29.6861 106.951 29.7705 107.174 29.8315 107.344C29.8913 107.507 29.9311 107.634 29.9323 107.642C30.0144 107.923 30.1539 108.052 30.2911 108.19C30.5373 108.419 30.8526 108.621 31.2079 108.83C32.2678 109.445 33.6771 110.044 33.6876 110.05C33.9854 110.177 34.3301 110.04 34.4579 109.743C34.5845 109.446 34.4473 109.102 34.1495 108.976C34.1495 108.975 33.9526 108.892 33.6501 108.754C33.1963 108.547 32.5093 108.221 31.9395 107.9C31.6546 107.741 31.399 107.581 31.229 107.451L31.0543 107.299L31.0402 107.282L31.0379 107.28L30.8304 107.418L31.0696 107.358L31.0379 107.28L30.8304 107.418L31.0696 107.358C31.0332 107.22 30.9687 107.04 30.8609 106.748C30.4869 105.751 29.6427 103.692 28.6251 101.657C28.1162 100.639 27.5652 99.6296 27.0036 98.7579C26.4385 97.8851 25.8745 97.1524 25.2742 96.671C24.525 96.0821 23.9752 95.8017 23.4112 95.79C23.1404 95.7876 22.8707 95.8799 22.6785 96.033C22.3877 96.2667 22.2751 96.56 22.213 96.7925C22.1532 97.0297 22.1462 97.2319 22.145 97.3569L22.1485 97.4784L22.1649 97.5801C22.1673 97.5894 22.8696 100.348 23.9271 103.432C24.4559 104.973 25.0726 106.596 25.7432 108.006C26.4185 109.418 27.122 110.613 27.9368 111.342C30.5654 113.671 33.2116 113.816 33.8189 113.815L33.9514 113.811C34.2738 113.794 34.5224 113.518 34.5036 113.197C34.486 112.874 34.2093 112.628 33.8857 112.645Z" fill="#1E1E1E"/>
<path d="M48.2096 115.36C48.2096 115.36 37.7798 114.472 35.6939 114.029C33.6079 113.584 28.84 99.3795 28.84 99.3795C28.84 99.3795 29.138 98.4917 30.6279 99.0836C32.1179 99.6754 37.6303 109.59 37.6303 109.59C37.6303 109.59 46.8681 105.743 49.55 108.11C52.232 110.478 52.53 111.661 52.53 111.661" fill="#FFC19D"/>
<path d="M48.1278 115.248C48.1267 115.248 47.4669 115.191 46.44 115.1C44.9008 114.961 42.5405 114.743 40.3701 114.516C38.2065 114.292 36.2019 114.053 35.4712 113.895L35.4289 113.874C35.2996 113.809 35 113.507 34.6924 113.044C33.5775 111.413 32.1069 107.932 30.9519 104.905C30.3722 103.388 29.8644 101.978 29.5019 100.947C29.1406 99.9162 28.9244 99.2687 28.9244 99.2676L28.3824 99.4483L28.9244 99.6291L28.6363 99.533L28.9153 99.6542L28.9244 99.6291L28.6363 99.533L28.9153 99.6542L28.9164 99.6531L28.9873 99.5776C29.0331 99.549 29.1017 99.5112 29.2766 99.5089C29.4276 99.5089 29.6609 99.5455 29.9879 99.676C29.9971 99.6691 30.2475 99.851 30.514 100.162C31.4951 101.26 33.1006 103.795 34.4237 106.019C35.0881 107.133 35.6873 108.175 36.1207 108.938C36.5553 109.701 36.8205 110.182 36.8205 110.183C36.9623 110.439 37.2734 110.547 37.5421 110.435C37.5433 110.435 37.6233 110.4 37.7777 110.339C38.3174 110.124 39.7343 109.578 41.4175 109.089C43.0974 108.6 45.0528 108.172 46.6195 108.174C47.7253 108.17 48.6024 108.397 49.0632 108.818C50.4 110.007 51.125 110.884 51.5104 111.444C51.7025 111.724 51.8088 111.924 51.866 112.044L51.9175 112.165L51.9221 112.181L52.1908 112.099L51.9186 112.168L51.9221 112.181L52.1908 112.099L51.9186 112.168C51.9952 112.474 52.3063 112.661 52.6116 112.584C52.9181 112.507 53.1045 112.196 53.0278 111.89C52.9878 111.734 52.6024 110.436 49.8225 107.964C49.0003 107.244 47.8556 107.035 46.6195 107.03C44.6069 107.034 42.2523 107.625 40.3735 108.209C38.4981 108.793 37.111 109.375 37.1007 109.38L37.3214 109.907L37.8223 109.63C37.82 109.626 36.4157 107.083 34.8171 104.456C34.0177 103.142 33.1704 101.808 32.4179 100.751C32.0406 100.222 31.6884 99.7629 31.3682 99.4014C31.0377 99.0411 30.7838 98.7757 30.4122 98.6144C29.9822 98.4417 29.6083 98.365 29.2766 98.365C28.7792 98.3593 28.3847 98.5584 28.1617 98.7803C27.9353 98.9999 27.8587 99.2115 27.8392 99.2676C27.8003 99.3854 27.8003 99.5112 27.8392 99.6291C27.8415 99.6348 29.056 103.279 30.5403 106.994C31.2836 108.851 32.0932 110.724 32.8616 112.185C33.2482 112.915 33.6209 113.542 33.988 114.025C34.1721 114.267 34.3551 114.474 34.5495 114.643C34.7462 114.81 34.9566 114.951 35.2322 115.014C35.8108 115.136 36.8686 115.277 38.1699 115.427C42.0625 115.876 48.0272 116.388 48.0306 116.388C48.3451 116.415 48.6218 116.182 48.6493 115.867C48.6756 115.553 48.4434 115.276 48.1278 115.248Z" fill="#1E1E1E"/>
<path d="M119.995 143.17C119.995 143.17 116.186 138.888 114.493 135.558C112.801 132.228 111.108 134.607 111.248 136.668C111.39 138.73 113.365 141.267 113.365 141.267L119.995 143.17Z" fill="#FFC19D"/>
<path d="M119.951 143.097L120.347 142.68C120.346 142.68 120.102 142.423 119.705 141.981C118.511 140.661 115.942 137.678 114.666 135.314C114.321 134.679 113.964 134.213 113.581 133.888C113.201 133.564 112.775 133.384 112.352 133.385C112 133.385 111.672 133.51 111.405 133.703C111.002 133.994 110.715 134.42 110.516 134.897C110.319 135.377 110.211 135.914 110.21 136.459L110.221 136.744C110.316 137.945 110.917 139.121 111.473 140.04C112.032 140.957 112.565 141.597 112.576 141.611C112.652 141.702 112.748 141.765 112.859 141.794L119.813 143.667C120.056 143.732 120.312 143.618 120.437 143.387C120.561 143.158 120.524 142.867 120.347 142.68L119.951 143.097L120.09 142.525L113.135 140.653L112.997 141.224L113.417 140.836L113.337 140.736C113.149 140.498 112.665 139.858 112.22 139.078C111.773 138.302 111.381 137.376 111.335 136.653L111.327 136.459C111.324 135.957 111.471 135.428 111.689 135.072C111.796 134.893 111.917 134.758 112.031 134.677C112.148 134.596 112.246 134.564 112.352 134.563C112.478 134.564 112.648 134.61 112.883 134.808C113.118 135.003 113.402 135.353 113.695 135.898C114.621 137.604 116.08 139.489 117.312 140.97C118.545 142.446 119.552 143.506 119.557 143.512L119.951 143.097Z" fill="#1E1E1E"/>
<path d="M172.283 167.2C172.283 167.2 162.626 168.852 153.527 166.833C144.427 164.813 128.827 159.121 128.827 159.121C128.827 159.121 123.999 144.984 122.142 144.067C120.285 143.148 103.2 137.273 101.158 136.355C99.1148 135.437 96.3291 136.172 97.2573 138.007C97.2573 138.007 93.8269 137.746 94.2876 140.02C94.747 142.294 100.881 145.023 100.881 145.023C100.881 145.023 94.5942 142.598 95.2076 145.327C95.821 148.055 106.249 152.451 106.249 152.451C106.249 152.451 95.9738 150.481 96.7411 152.604C97.5073 154.726 102.108 156.393 102.108 156.393C102.108 156.393 109.316 158.819 109.776 158.971C110.236 159.122 116.063 165.793 118.67 167.461C121.277 169.129 125.418 170.493 125.418 170.493C125.418 170.493 147.652 185.806 158.693 190.051C169.734 194.296 178.322 191.567 183.842 185.2C189.364 178.832 182.463 172.009 179.242 169.433C176.022 166.855 172.283 167.2 172.283 167.2Z" fill="#FFC19D"/>
<path d="M172.239 167.194L172.14 166.631C172.14 166.631 171.92 166.669 171.5 166.727C170.24 166.904 167.239 167.258 163.532 167.258C160.512 167.258 157.024 167.022 153.635 166.27C149.133 165.272 142.973 163.352 137.952 161.682C135.441 160.847 133.213 160.075 131.613 159.512C130.013 158.949 129.046 158.597 129.044 158.595L128.843 159.131L129.39 158.948C129.389 158.944 128.182 155.412 126.739 151.755C126.017 149.926 125.237 148.067 124.512 146.591C124.149 145.853 123.801 145.211 123.472 144.705C123.307 144.453 123.146 144.233 122.981 144.048C122.814 143.865 122.65 143.709 122.425 143.595C122.152 143.461 121.684 143.272 121.028 143.018C118.745 142.138 114.292 140.554 110.179 139.088C108.124 138.355 106.154 137.651 104.589 137.083C103.029 136.515 101.854 136.072 101.45 135.89C100.771 135.586 100.037 135.445 99.3446 135.445C98.6674 135.447 98.0271 135.576 97.5001 135.873C97.2389 136.024 97.0031 136.22 96.8297 136.476C96.6552 136.731 96.5535 137.046 96.5547 137.374C96.5547 137.687 96.6413 138.003 96.7997 138.315L97.3163 138.059L97.3614 137.49C97.3487 137.489 97.2157 137.479 97.0054 137.479C96.5824 137.481 95.8577 137.512 95.1597 137.775C94.8118 137.908 94.4616 138.106 94.1842 138.422C93.9045 138.736 93.7266 139.178 93.73 139.669C93.73 139.834 93.7485 140.005 93.7843 140.18C93.9542 140.965 94.509 141.612 95.1839 142.228C96.2056 143.144 97.5729 143.968 98.6951 144.579C99.8162 145.189 100.689 145.577 100.698 145.582L100.935 145.061L101.145 144.529C101.135 144.526 100.48 144.272 99.6012 144.018C98.7194 143.764 97.6272 143.501 96.6726 143.499C96.2033 143.501 95.7549 143.556 95.3492 143.783C95.1481 143.898 94.9609 144.067 94.8349 144.285C94.7078 144.503 94.6488 144.759 94.65 145.017C94.65 145.17 94.6696 145.326 94.7055 145.487C94.8199 145.979 95.11 146.409 95.4879 146.831C96.1536 147.567 97.1325 148.291 98.2421 148.996C101.561 151.104 106.054 152.993 106.069 153L106.295 152.475L106.405 151.915C106.387 151.913 102.058 151.076 99.1366 151.074C98.4247 151.075 97.7959 151.119 97.277 151.264C97.017 151.34 96.7754 151.439 96.5616 151.618C96.3478 151.791 96.1756 152.098 96.1825 152.413C96.1825 152.556 96.2102 152.692 96.2565 152.818C96.5061 153.497 97.0066 154.054 97.5867 154.545C99.3273 156.003 101.934 156.929 101.961 156.945L101.974 156.95C101.976 156.95 109.168 159.37 109.634 159.523L109.744 159.2L109.543 159.482L109.634 159.523L109.744 159.2L109.543 159.482C109.567 159.494 109.745 159.651 109.962 159.868C110.746 160.639 112.284 162.292 113.895 163.923C115.517 165.557 117.188 167.163 118.386 167.934C121.092 169.658 125.233 171.012 125.255 171.022L125.438 170.481L125.107 170.949C125.111 170.952 130.668 174.777 137.608 179.133C144.554 183.492 152.861 188.378 158.459 190.532C162.159 191.953 165.607 192.61 168.775 192.61C175.195 192.615 180.442 189.893 184.221 185.529C185.785 183.732 186.433 181.835 186.43 180.018C186.426 177.549 185.279 175.27 183.867 173.371C182.451 171.471 180.754 169.939 179.552 168.978C176.858 166.829 173.865 166.61 172.699 166.607C172.385 166.607 172.2 166.624 172.185 166.625L172.14 166.631L172.239 167.194L172.293 167.762L172.311 167.761C172.359 167.757 172.494 167.749 172.699 167.749C173.723 167.747 176.446 167.957 178.825 169.865C179.974 170.783 181.608 172.263 182.936 174.048C184.269 175.834 185.278 177.913 185.274 180.018C185.271 181.571 184.748 183.162 183.344 184.786C179.741 188.931 174.86 191.464 168.775 191.468C165.769 191.468 162.464 190.846 158.878 189.468C153.45 187.385 145.141 182.511 138.229 178.169C134.769 175.997 131.652 173.958 129.402 172.461C128.276 171.713 127.368 171.1 126.74 170.675C126.113 170.25 125.768 170.012 125.767 170.012L125.62 169.939C125.619 169.938 125.371 169.857 124.948 169.705C123.683 169.253 120.885 168.175 119.013 166.975C118.424 166.599 117.581 165.884 116.675 165.035C115.314 163.759 113.789 162.177 112.563 160.898C111.949 160.257 111.411 159.694 110.998 159.277C110.791 159.069 110.617 158.898 110.473 158.767L110.274 158.597C110.203 158.546 110.167 158.502 110.001 158.44C109.776 158.366 107.858 157.722 106.003 157.098C104.146 156.474 102.351 155.87 102.347 155.869L102.16 156.409L102.36 155.873C102.359 155.873 102.296 155.85 102.174 155.802C101.747 155.637 100.647 155.181 99.5966 154.555C99.0719 154.244 98.561 153.89 98.1565 153.52C97.7508 153.151 97.4631 152.768 97.3452 152.435L97.3383 152.411L97.3221 152.413H97.3383V152.411L97.3221 152.413H97.3383H97.21L97.3232 152.469L97.3383 152.413H97.21L97.3232 152.469L97.2354 152.426L97.314 152.485L97.3232 152.469L97.2354 152.426L97.314 152.485L97.3094 152.482L97.314 152.486V152.485L97.3094 152.482L97.314 152.486C97.3221 152.464 97.5266 152.356 97.8583 152.302C98.1877 152.244 98.6339 152.214 99.1366 152.215C100.493 152.214 102.27 152.419 103.691 152.624C104.403 152.727 105.027 152.831 105.475 152.907C105.921 152.985 106.184 153.035 106.185 153.035C106.474 153.091 106.761 152.921 106.848 152.643C106.934 152.364 106.793 152.065 106.522 151.949C106.522 151.949 106.363 151.883 106.081 151.76C105.091 151.326 102.592 150.197 100.297 148.892C99.1493 148.242 98.0525 147.544 97.2319 146.884C96.8216 146.555 96.4819 146.234 96.2415 145.946C95.9999 145.659 95.8682 145.405 95.8335 145.239L95.8057 145.017L95.8381 144.853C95.8589 144.818 95.8982 144.772 96.0415 144.721C96.1802 144.672 96.4044 144.64 96.6726 144.64C97.4088 144.638 98.4489 144.871 99.2753 145.113C99.6902 145.234 100.055 145.355 100.315 145.445C100.576 145.535 100.725 145.593 100.726 145.593C101.018 145.705 101.346 145.568 101.469 145.282C101.59 144.996 101.458 144.667 101.173 144.541C101.172 144.541 101.084 144.501 100.919 144.424C100.344 144.155 98.8812 143.441 97.5382 142.565C96.8667 142.128 96.2253 141.649 95.748 141.183C95.266 140.72 94.9713 140.261 94.917 139.956C94.895 139.846 94.8858 139.751 94.8858 139.669C94.8904 139.425 94.9528 139.296 95.0591 139.168C95.2163 138.979 95.5549 138.816 95.9444 138.73C96.3304 138.641 96.7453 138.621 97.0054 138.621L97.2076 138.625L97.2724 138.629C97.4793 138.645 97.6792 138.549 97.7959 138.378C97.9127 138.207 97.9265 137.988 97.8329 137.804C97.7382 137.617 97.7104 137.475 97.7104 137.374C97.7116 137.265 97.737 137.193 97.7901 137.111C97.8699 136.991 98.0467 136.852 98.3218 136.75C98.5957 136.648 98.9551 136.586 99.3446 136.587C99.8763 136.586 100.46 136.699 100.972 136.93C101.528 137.179 102.963 137.711 104.886 138.406C107.763 139.448 111.686 140.834 115.062 142.047C116.75 142.653 118.301 143.216 119.515 143.668C120.722 144.118 121.617 144.471 121.908 144.617C121.916 144.617 122.006 144.68 122.114 144.803C122.54 145.271 123.203 146.469 123.874 147.933C124.892 150.137 126.001 152.989 126.851 155.283C127.277 156.43 127.638 157.439 127.893 158.16C128.148 158.881 128.295 159.313 128.296 159.314C128.351 159.478 128.479 159.607 128.643 159.667C128.657 159.67 144.223 165.351 153.381 167.385C156.886 168.161 160.451 168.4 163.532 168.4C168.573 168.4 172.316 167.759 172.338 167.756L172.239 167.194Z" fill="#1E1E1E"/>
<path d="M97.1821 138.056C97.1821 138.056 101.548 139.712 105.972 141.367C108.184 142.195 110.41 143.024 112.114 143.646C112.965 143.957 113.687 144.215 114.213 144.398C114.476 144.49 114.69 144.563 114.851 144.614L115.061 144.676L115.151 144.699L115.305 144.715C115.62 144.715 115.875 144.469 115.875 144.163C115.875 143.859 115.62 143.611 115.305 143.611V144.008L115.392 143.619L115.305 143.611V144.008L115.392 143.619C115.389 143.62 115.262 143.584 115.095 143.529C113.799 143.104 109.407 141.472 105.363 139.956C103.339 139.196 101.397 138.464 99.9619 137.922C98.5269 137.38 97.5992 137.03 97.5969 137.028C97.304 136.917 96.9735 137.057 96.8595 137.341C96.7444 137.624 96.8891 137.945 97.1821 138.056Z" fill="#1E1E1E"/>
<path d="M100.774 145.364L112.004 150.333C112.292 150.462 112.623 150.315 112.742 150.006C112.862 149.697 112.724 149.344 112.436 149.215L101.206 144.246C100.918 144.118 100.588 144.266 100.468 144.574C100.349 144.883 100.486 145.236 100.774 145.364Z" fill="#1E1E1E"/>
<path d="M105.987 152.976L109.438 154.462C109.751 154.596 110.083 154.364 110.182 153.942C110.281 153.519 110.109 153.069 109.798 152.934L106.347 151.448C106.034 151.313 105.701 151.547 105.603 151.969C105.504 152.391 105.675 152.841 105.987 152.976Z" fill="#1E1E1E"/>
</g>
<defs>
<clipPath id="clip0_9988_2600">
<rect width="206" height="206" fill="white"/>
</clipPath>
</defs>
</svg>
