<svg width="206" height="206" viewBox="0 0 206 206" fill="none" xmlns="http://www.w3.org/2000/svg">
<path d="M194.066 125.656H11.9335C7.90283 125.656 4.63501 122.389 4.63501 118.358V77.3405C4.63501 73.3098 7.90283 70.042 11.9335 70.042H194.066C198.097 70.042 201.365 73.3098 201.365 77.3405V118.357C201.365 122.389 198.097 125.656 194.066 125.656Z" fill="#D0A2F7"/>
<path d="M201.365 77.3931V118.307C201.365 120.884 200.041 123.15 198.036 124.454C198.399 123.584 198.599 122.628 198.599 121.631V80.7121C198.599 76.6517 195.311 73.3639 191.251 73.3639H9.21628C7.73338 73.3639 6.35279 73.8038 5.19678 74.5657C6.30115 71.9117 8.92447 70.04 11.9823 70.04H194.016C198.077 70.0396 201.365 73.3327 201.365 77.3931Z" fill="white"/>
<path d="M38.6438 94.6685C38.1328 94.3621 37.6047 94.0898 37.0596 93.8511C36.5997 93.647 36.0843 93.455 35.5139 93.2762C34.9429 93.0975 34.3856 93.0078 33.8405 93.0078C33.3972 93.0078 33.044 93.0765 32.78 93.2119C32.5159 93.3488 32.3839 93.5783 32.3839 93.9022C32.3839 94.1409 32.4609 94.3363 32.6139 94.4897C32.7668 94.6427 32.988 94.7835 33.2778 94.9111C33.5672 95.0393 33.9204 95.163 34.3384 95.2819C34.7554 95.4012 35.2284 95.5459 35.7565 95.7164C36.591 95.9717 37.3446 96.2527 38.0178 96.5597C38.6906 96.8656 39.2654 97.228 39.7424 97.6455C40.2188 98.063 40.5856 98.5692 40.8409 99.1655C41.0962 99.7617 41.2243 100.486 41.2243 101.337C41.2243 102.427 41.0241 103.343 40.6241 104.084C40.2237 104.824 39.6956 105.417 39.0399 105.859C38.3837 106.302 37.6432 106.622 36.817 106.817C35.9908 107.012 35.1602 107.111 34.3262 107.111C33.6617 107.111 32.9807 107.06 32.2826 106.957C31.584 106.856 30.8898 106.711 30.2005 106.523C29.5107 106.336 28.8467 106.114 28.2076 105.859C27.5689 105.603 26.977 105.314 26.4319 104.99L28.5778 100.622C29.1741 100.996 29.7952 101.328 30.4431 101.618C30.9877 101.873 31.6055 102.103 32.2953 102.308C32.9851 102.512 33.6875 102.614 34.4032 102.614C34.9478 102.614 35.3268 102.542 35.5397 102.397C35.7526 102.253 35.8593 102.061 35.8593 101.822C35.8593 101.567 35.7526 101.35 35.5397 101.171C35.3268 100.992 35.0331 100.835 34.6584 100.698C34.2838 100.562 33.8537 100.426 33.368 100.289C32.8828 100.153 32.3674 99.9917 31.8222 99.8036C31.0214 99.5313 30.3315 99.2375 29.7528 98.9219C29.1736 98.6067 28.6967 98.2491 28.322 97.8491C27.9474 97.4487 27.6707 96.9932 27.4919 96.4822C27.3127 95.9712 27.2235 95.3837 27.2235 94.7197C27.2235 93.7147 27.4067 92.829 27.773 92.0627C28.1389 91.2965 28.6372 90.6573 29.2676 90.1468C29.8975 89.6358 30.617 89.2485 31.4262 88.9844C32.2349 88.7204 33.0913 88.5884 33.994 88.5884C34.6584 88.5884 35.3054 88.6522 35.9358 88.7803C36.5656 88.9079 37.1751 89.0702 37.7626 89.2655C38.3501 89.4618 38.8996 89.6742 39.4101 89.9042C39.9212 90.1341 40.381 90.3514 40.7898 90.5555L38.6438 94.6685Z" fill="white"/>
<path d="M52.6185 102.614C53.1973 102.614 53.6917 102.486 54.1004 102.231C54.5092 101.976 54.8414 101.64 55.0967 101.222C55.3519 100.805 55.5395 100.324 55.6588 99.7786C55.7777 99.2335 55.8376 98.6631 55.8376 98.0673V88.7417H60.8197V98.0673C60.8197 99.3275 60.658 100.507 60.3345 101.605C60.0106 102.704 59.5078 103.654 58.8273 104.454C58.1458 105.255 57.2898 105.885 56.2595 106.345C55.2287 106.805 54.0152 107.035 52.619 107.035C51.1712 107.035 49.9319 106.792 48.902 106.306C47.8712 105.821 47.0241 105.17 46.3596 104.352C45.6956 103.535 45.2099 102.585 44.9035 101.504C44.5966 100.422 44.4436 99.2769 44.4436 98.0673V88.7417H49.4257V98.0673C49.4257 98.6635 49.4851 99.2384 49.6045 99.7913C49.7234 100.345 49.9109 100.83 50.1667 101.248C50.4219 101.665 50.7498 101.998 51.1502 102.245C51.5497 102.491 52.0393 102.614 52.6185 102.614Z" fill="white"/>
<path d="M80.3898 102.231C80.3898 103.048 80.2193 103.751 79.8788 104.339C79.5378 104.927 79.0696 105.408 78.4733 105.782C77.8771 106.157 77.1834 106.434 76.3913 106.613C75.5991 106.791 74.7598 106.881 73.8746 106.881H64.9583V88.741H75.4842C76.1141 88.741 76.685 88.8774 77.1955 89.1497C77.7066 89.4225 78.1406 89.7757 78.4987 90.2102C78.8562 90.6448 79.1329 91.1387 79.3288 91.6921C79.5241 92.246 79.6225 92.8121 79.6225 93.3909C79.6225 94.2429 79.4053 95.0559 78.9712 95.831C78.5367 96.6061 77.8853 97.1892 77.0168 97.5808C78.0554 97.8873 78.8772 98.4197 79.4822 99.1777C80.0873 99.9358 80.3898 100.954 80.3898 102.231ZM69.9404 92.9826V95.7672H73.3383C73.6788 95.7672 73.9901 95.6736 74.2707 95.4861C74.5518 95.299 74.6921 94.9244 74.6921 94.3622C74.6921 93.8683 74.5727 93.5151 74.3345 93.3017C74.0958 93.0893 73.8147 92.9826 73.4912 92.9826H69.9404ZM75.3312 101.209C75.3312 100.767 75.2119 100.396 74.9736 100.098C74.7349 99.8003 74.4285 99.6508 74.0539 99.6508H69.9404V102.691H73.8751C74.2838 102.691 74.6287 102.563 74.9098 102.308C75.1904 102.052 75.3312 101.686 75.3312 101.209Z" fill="white"/>
<path d="M94.8501 94.6685C94.3391 94.3621 93.811 94.0898 93.2659 93.8511C92.806 93.647 92.2906 93.455 91.7207 93.2762C91.1492 93.0975 90.5914 93.0078 90.0468 93.0078C89.604 93.0078 89.2503 93.0765 88.9863 93.2119C88.7222 93.3488 88.5902 93.5783 88.5902 93.9022C88.5902 94.1409 88.6672 94.3363 88.8206 94.4897C88.9741 94.6427 89.1948 94.7835 89.4851 94.9111C89.7745 95.0393 90.1277 95.163 90.5457 95.2819C90.9627 95.4012 91.4352 95.5459 91.9633 95.7164C92.7983 95.9717 93.5519 96.2528 94.2242 96.5597C94.8969 96.8656 95.4717 97.228 95.9487 97.6455C96.4251 98.063 96.7919 98.5692 97.0477 99.1655C97.303 99.7617 97.4306 100.486 97.4306 101.337C97.4306 102.427 97.2299 103.343 96.8304 104.084C96.43 104.824 95.9019 105.417 95.2462 105.859C94.591 106.302 93.8495 106.622 93.0238 106.817C92.1976 107.013 91.367 107.111 90.533 107.111C89.8685 107.111 89.187 107.06 88.4894 106.957C87.7908 106.856 87.0971 106.711 86.4073 106.523C85.7175 106.336 85.0535 106.114 84.4143 105.859C83.7757 105.603 83.1833 105.314 82.6387 104.99L84.7851 100.622C85.3809 100.996 86.0025 101.328 86.6499 101.618C87.1945 101.873 87.8122 102.103 88.5021 102.308C89.1919 102.512 89.8948 102.614 90.61 102.614C91.1551 102.614 91.5341 102.542 91.7475 102.397C91.9599 102.253 92.0666 102.061 92.0666 101.822C92.0666 101.567 91.9599 101.35 91.7475 101.171C91.5341 100.992 91.2403 100.835 90.8657 100.698C90.4911 100.562 90.0609 100.426 89.5757 100.289C89.09 100.153 88.5746 99.9917 88.03 99.8036C87.2291 99.5313 86.5393 99.2376 85.9606 98.9219C85.3809 98.6067 84.9044 98.2491 84.5298 97.8492C84.1552 97.4487 83.8785 96.9932 83.6997 96.4822C83.5209 95.9712 83.4313 95.3837 83.4313 94.7197C83.4313 93.7147 83.614 92.829 83.9803 92.0628C84.3466 91.2965 84.8445 90.6573 85.4754 90.1468C86.1053 89.6358 86.8248 89.2485 87.6339 88.9844C88.4426 88.7204 89.299 88.5884 90.2017 88.5884C90.8662 88.5884 91.5131 88.6522 92.1435 88.7803C92.7729 88.9079 93.3824 89.0702 93.9699 89.2655C94.5574 89.4618 95.1064 89.6742 95.6174 89.9042C96.1284 90.1341 96.5883 90.3514 96.997 90.5555L94.8501 94.6685Z" fill="white"/>
<path d="M99.908 97.6576C99.908 96.5503 100.116 95.4605 100.534 94.3873C100.951 93.3146 101.56 92.3525 102.361 91.5005C103.161 90.6489 104.132 89.9591 105.273 89.431C106.414 88.9034 107.717 88.6394 109.182 88.6394C110.936 88.6394 112.457 89.0014 113.743 89.7253C115.029 90.4492 115.986 91.4074 116.617 92.5995L112.81 95.3076C112.639 94.8647 112.414 94.4989 112.133 94.209C111.852 93.9197 111.541 93.6897 111.201 93.5192C110.86 93.3492 110.506 93.2299 110.14 93.1617C109.774 93.0939 109.42 93.0593 109.08 93.0593C108.364 93.0593 107.747 93.1997 107.227 93.4807C106.707 93.7618 106.282 94.1282 105.95 94.5793C105.618 95.0309 105.37 95.5419 105.209 96.1119C105.047 96.6833 104.966 97.2493 104.966 97.811C104.966 98.4414 105.06 99.046 105.247 99.6252C105.434 100.204 105.707 100.715 106.065 101.158C106.422 101.601 106.861 101.954 107.38 102.218C107.899 102.482 108.483 102.614 109.13 102.614C109.47 102.614 109.82 102.576 110.177 102.499C110.535 102.422 110.88 102.295 111.212 102.116C111.544 101.937 111.842 101.707 112.106 101.426C112.37 101.145 112.579 100.8 112.732 100.391L116.794 102.819C116.521 103.483 116.108 104.08 115.555 104.607C115.001 105.135 114.371 105.578 113.664 105.935C112.957 106.293 112.199 106.566 111.39 106.753C110.581 106.94 109.793 107.034 109.027 107.034C107.681 107.034 106.45 106.765 105.335 106.229C104.219 105.692 103.257 104.981 102.448 104.095C101.639 103.21 101.013 102.205 100.57 101.081C100.13 99.9569 99.908 98.816 99.908 97.6576Z" fill="white"/>
<path d="M119.836 106.881V88.741H128.165C129.05 88.741 129.867 88.9241 130.617 89.2905C131.367 89.6568 132.01 90.1337 132.546 90.7212C133.083 91.3088 133.504 91.9815 133.811 92.7395C134.118 93.4975 134.271 94.2599 134.271 95.0257C134.271 96.0824 134.041 97.0659 133.581 97.9769C133.121 98.8884 132.482 99.6337 131.665 100.212L135.497 106.88H129.876L126.683 101.31H124.818V106.88L119.836 106.881ZM124.818 96.968H127.96C128.266 96.968 128.552 96.798 128.816 96.457C129.08 96.1165 129.212 95.6395 129.212 95.0262C129.212 94.3963 129.058 93.915 128.752 93.5833C128.446 93.251 128.139 93.0849 127.833 93.0849H124.818V96.968Z" fill="white"/>
<path d="M138.359 106.881V88.741H143.341V106.881H138.359Z" fill="white"/>
<path d="M163.165 102.231C163.165 103.048 162.995 103.751 162.654 104.339C162.313 104.927 161.845 105.408 161.249 105.782C160.653 106.157 159.959 106.434 159.167 106.613C158.375 106.791 157.536 106.881 156.651 106.881H147.734V88.741H158.261C158.891 88.741 159.462 88.8774 159.973 89.1497C160.484 89.4225 160.918 89.7757 161.276 90.2102C161.633 90.6448 161.91 91.1387 162.106 91.6921C162.302 92.246 162.4 92.8121 162.4 93.3909C162.4 94.2429 162.183 95.0559 161.748 95.831C161.314 96.6061 160.662 97.1892 159.794 97.5808C160.832 97.8873 161.655 98.4197 162.259 99.1777C162.863 99.9358 163.165 100.954 163.165 102.231ZM152.717 92.9826V95.7672H156.114C156.455 95.7672 156.766 95.6736 157.047 95.4861C157.328 95.299 157.468 94.9244 157.468 94.3622C157.468 93.8683 157.349 93.5151 157.111 93.3017C156.872 93.0893 156.591 92.9826 156.267 92.9826H152.717ZM158.107 101.209C158.107 100.767 157.988 100.396 157.75 100.098C157.511 99.8003 157.205 99.6508 156.83 99.6508H152.717V102.691H156.651C157.06 102.691 157.404 102.563 157.685 102.308C157.967 102.052 158.107 101.686 158.107 101.209Z" fill="white"/>
<path d="M179.567 102.537V106.881H166.64V88.7412H179.337V93.0847H171.622V95.6393H178.213V99.6758H171.622V102.537H179.567Z" fill="white"/>
<path d="M160.777 115.03V112.27" stroke="#263238" stroke-width="2" stroke-miterlimit="10" stroke-linecap="round" stroke-linejoin="round"/>
<path d="M156.207 116.923L154.255 114.971" stroke="#263238" stroke-width="2" stroke-miterlimit="10" stroke-linecap="round" stroke-linejoin="round"/>
<path d="M154.314 121.492H151.554" stroke="#263238" stroke-width="2" stroke-miterlimit="10" stroke-linecap="round" stroke-linejoin="round"/>
<path d="M156.207 126.062L154.255 128.013" stroke="#263238" stroke-width="2" stroke-miterlimit="10" stroke-linecap="round" stroke-linejoin="round"/>
<path d="M160.777 127.955V130.714" stroke="#263238" stroke-width="2" stroke-miterlimit="10" stroke-linecap="round" stroke-linejoin="round"/>
<path d="M165.346 126.062L167.298 128.013" stroke="#263238" stroke-width="2" stroke-miterlimit="10" stroke-linecap="round" stroke-linejoin="round"/>
<path d="M167.239 121.492H169.999" stroke="#263238" stroke-width="2" stroke-miterlimit="10" stroke-linecap="round" stroke-linejoin="round"/>
<path d="M165.346 116.923L167.298 114.971" stroke="#263238" stroke-width="2" stroke-miterlimit="10" stroke-linecap="round" stroke-linejoin="round"/>
<path d="M157.562 154.43H179.103C179.103 154.43 181.387 152.983 181.387 144.418C181.387 138.48 181.038 131.168 178.366 130.87C175.841 130.589 175.649 134.092 175.649 134.092C175.649 134.092 175.648 129.506 172.893 129.56C169.953 129.618 169.982 134.053 169.982 134.053C169.982 134.053 169.943 129.415 166.954 129.415C163.966 129.415 164.043 134.072 164.043 134.072C164.043 134.072 163.834 125.877 163.344 122.448C162.84 118.916 159.307 118.023 158.376 122.487C157.489 126.736 157.755 141.738 157.561 141.932C157.367 142.126 154.964 137.587 152.946 136.267C150.927 134.948 148.091 135.179 150.303 140.03C152.516 144.882 155.893 154.43 157.562 154.43Z" fill="white" stroke="#263238" stroke-width="2" stroke-miterlimit="10" stroke-linecap="round" stroke-linejoin="round"/>
<path d="M179.154 162.312H157.317C156.488 162.312 155.815 161.64 155.815 160.81V155.932C155.815 155.103 156.487 154.43 157.317 154.43H179.154C179.983 154.43 180.656 155.102 180.656 155.932V160.81C180.656 161.64 179.983 162.312 179.154 162.312Z" fill="#D0A2F7"/>
<path d="M180.656 155.934V160.812C180.656 161.641 179.983 162.314 179.154 162.314H176.71C177.536 162.314 178.212 161.641 178.212 160.812V155.934C178.212 155.104 177.536 154.432 176.71 154.432H179.154C179.984 154.432 180.656 155.104 180.656 155.934Z" fill="white"/>
<path d="M179.154 162.312H157.317C156.488 162.312 155.815 161.64 155.815 160.81V155.932C155.815 155.103 156.487 154.43 157.317 154.43H179.154C179.983 154.43 180.656 155.102 180.656 155.932V160.81C180.656 161.64 179.983 162.312 179.154 162.312Z" stroke="#263238" stroke-width="2" stroke-miterlimit="10" stroke-linecap="round" stroke-linejoin="round"/>
<path d="M46.7974 36.05C47.0759 38.0829 48.6741 39.681 50.7069 39.9595C48.6741 40.238 47.0759 41.8366 46.7974 43.869C46.5189 41.8366 44.9203 40.238 42.8879 39.9595C44.9203 39.681 46.5189 38.0829 46.7974 36.05Z" stroke="#263238" stroke-width="2" stroke-miterlimit="10" stroke-linecap="round" stroke-linejoin="round"/>
<path d="M99.9348 54.0051C100.084 55.0891 100.936 55.9415 102.02 56.0903C100.936 56.239 100.084 57.091 99.9348 58.175C99.7861 57.091 98.9341 56.2386 97.8501 56.0903C98.9341 55.9415 99.7861 55.0891 99.9348 54.0051Z" fill="#B2CFF3" stroke="#B2CFF3" stroke-width="2" stroke-miterlimit="10" stroke-linecap="round" stroke-linejoin="round"/>
<path d="M183.679 54.075C183.827 55.1589 184.679 56.0114 185.764 56.1601C184.68 56.3088 183.827 57.1612 183.679 58.2452C183.53 57.1612 182.678 56.3088 181.594 56.1601C182.678 56.0114 183.53 55.1589 183.679 54.075Z" fill="#D0A2F7" stroke="#D0A2F7" stroke-width="2" stroke-miterlimit="10" stroke-linecap="round" stroke-linejoin="round"/>
<path d="M141.44 165.843C141.589 166.927 142.442 167.779 143.526 167.927C142.442 168.076 141.589 168.928 141.44 170.012C141.292 168.928 140.44 168.076 139.356 167.927C140.439 167.779 141.292 166.927 141.44 165.843Z" fill="#B2CFF3" stroke="#B2CFF3" stroke-width="2" stroke-miterlimit="10" stroke-linecap="round" stroke-linejoin="round"/>
<path d="M79.3354 148.835C79.4841 149.919 80.3361 150.771 81.4205 150.92C80.3365 151.069 79.4841 151.921 79.3354 153.005C79.1866 151.921 78.3346 151.068 77.2502 150.92C78.3342 150.771 79.1866 149.919 79.3354 148.835Z" fill="#D0A2F7" stroke="#D0A2F7" stroke-width="2" stroke-miterlimit="10" stroke-linecap="round" stroke-linejoin="round"/>
<path d="M29.1446 166.103C29.4231 168.135 31.0216 169.734 33.054 170.012C31.0216 170.291 29.4231 171.889 29.1446 173.922C28.8661 171.889 27.2679 170.291 25.2351 170.012C27.2675 169.734 28.8657 168.136 29.1446 166.103Z" stroke="#263238" stroke-width="2" stroke-miterlimit="10" stroke-linecap="round" stroke-linejoin="round"/>
<path d="M107.997 37.595C108.275 39.6278 109.874 41.2259 111.906 41.5044C109.874 41.7829 108.275 43.3815 107.997 45.4139C107.718 43.3815 106.12 41.7829 104.087 41.5044C106.12 41.2259 107.718 39.6278 107.997 37.595Z" stroke="#263238" stroke-width="2" stroke-miterlimit="10" stroke-linecap="round" stroke-linejoin="round"/>
</svg>
