<svg width="160" height="32" viewBox="0 0 160 32" fill="none" xmlns="http://www.w3.org/2000/svg">
<path d="M17.9045 12.9604H14.8619C14.7751 12.4614 14.6151 12.0194 14.3819 11.6343C14.1487 11.2438 13.8585 10.913 13.5114 10.6418C13.1643 10.3706 12.7684 10.1672 12.3237 10.0316C11.8843 9.89063 11.4098 9.82012 10.9 9.82012C9.99423 9.82012 9.19155 10.0479 8.49191 10.5035C7.79227 10.9536 7.24449 11.6153 6.84857 12.4885C6.45265 13.3563 6.25469 14.4166 6.25469 15.6694C6.25469 16.944 6.45265 18.0178 6.84857 18.891C7.24992 19.7588 7.79769 20.415 8.49191 20.8598C9.19155 21.2991 9.99152 21.5187 10.8918 21.5187C11.3908 21.5187 11.8572 21.4536 12.2911 21.3235C12.7304 21.1879 13.1236 20.9899 13.4707 20.7296C13.8233 20.4693 14.1188 20.1493 14.3575 19.7696C14.6015 19.39 14.7697 18.9561 14.8619 18.468L17.9045 18.4842C17.7906 19.2761 17.5438 20.0191 17.1642 20.7133C16.7899 21.4075 16.2991 22.0204 15.6917 22.5519C15.0842 23.078 14.3738 23.4902 13.5602 23.7885C12.7467 24.0814 11.8437 24.2278 10.8512 24.2278C9.3868 24.2278 8.07972 23.8888 6.92993 23.2109C5.78013 22.5329 4.8744 21.554 4.21273 20.274C3.55105 18.9941 3.22021 17.4592 3.22021 15.6694C3.22021 13.8742 3.55376 12.3394 4.22086 11.0648C4.88796 9.78487 5.7964 8.80592 6.9462 8.12797C8.09599 7.45003 9.39764 7.11106 10.8512 7.11106C11.7786 7.11106 12.6409 7.24122 13.4382 7.50155C14.2355 7.76188 14.9459 8.14424 15.5696 8.64863C16.1934 9.1476 16.7059 9.76046 17.1072 10.4872C17.514 11.2086 17.7797 12.0329 17.9045 12.9604Z" fill="#645CAA"/>
<path d="M25.989 24.2441C24.7687 24.2441 23.7111 23.9756 22.8162 23.4387C21.9213 22.9017 21.2271 22.1506 20.7335 21.1852C20.2454 20.2198 20.0014 19.0917 20.0014 17.8009C20.0014 16.5101 20.2454 15.3793 20.7335 14.4084C21.2271 13.4376 21.9213 12.6838 22.8162 12.1468C23.7111 11.6099 24.7687 11.3414 25.989 11.3414C27.2093 11.3414 28.2669 11.6099 29.1618 12.1468C30.0566 12.6838 30.7481 13.4376 31.2363 14.4084C31.7298 15.3793 31.9766 16.5101 31.9766 17.8009C31.9766 19.0917 31.7298 20.2198 31.2363 21.1852C30.7481 22.1506 30.0566 22.9017 29.1618 23.4387C28.2669 23.9756 27.2093 24.2441 25.989 24.2441ZM26.0052 21.8848C26.6669 21.8848 27.2201 21.7031 27.6649 21.3397C28.1096 20.9709 28.4404 20.4774 28.6574 19.8591C28.8797 19.2408 28.9909 18.552 28.9909 17.7927C28.9909 17.028 28.8797 16.3365 28.6574 15.7182C28.4404 15.0945 28.1096 14.5983 27.6649 14.2295C27.2201 13.8607 26.6669 13.6763 26.0052 13.6763C25.3273 13.6763 24.7633 13.8607 24.3131 14.2295C23.8684 14.5983 23.5348 15.0945 23.3125 15.7182C23.0955 16.3365 22.987 17.028 22.987 17.7927C22.987 18.552 23.0955 19.2408 23.3125 19.8591C23.5348 20.4774 23.8684 20.9709 24.3131 21.3397C24.7633 21.7031 25.3273 21.8848 26.0052 21.8848Z" fill="#645CAA"/>
<path d="M39.1133 24.2197C38.1316 24.2197 37.253 23.9675 36.4774 23.4631C35.7019 22.9587 35.089 22.2265 34.6389 21.2665C34.1887 20.3066 33.9636 19.1405 33.9636 17.7683C33.9636 16.3799 34.1914 15.2084 34.647 14.2539C35.108 13.2939 35.729 12.5699 36.51 12.0817C37.291 11.5882 38.1615 11.3414 39.1214 11.3414C39.8536 11.3414 40.4556 11.4662 40.9275 11.7157C41.3993 11.9597 41.7735 12.2553 42.0502 12.6024C42.3268 12.9441 42.541 13.2668 42.6928 13.5705H42.8149V7.33884H45.768V24H42.8718V22.0312H42.6928C42.541 22.335 42.3213 22.6577 42.0339 22.9994C41.7464 23.3356 41.3668 23.6231 40.8949 23.8617C40.4231 24.1003 39.8292 24.2197 39.1133 24.2197ZM39.935 21.8035C40.5587 21.8035 41.0902 21.6353 41.5295 21.2991C41.9688 20.9574 42.3023 20.4828 42.5301 19.8754C42.7579 19.2679 42.8718 18.5602 42.8718 17.7521C42.8718 16.944 42.7579 16.2416 42.5301 15.645C42.3078 15.0484 41.9769 14.5847 41.5376 14.2539C41.1037 13.923 40.5695 13.7576 39.935 13.7576C39.2787 13.7576 38.7309 13.9285 38.2916 14.2701C37.8523 14.6118 37.5215 15.0837 37.2991 15.6857C37.0768 16.2877 36.9656 16.9765 36.9656 17.7521C36.9656 18.5331 37.0768 19.23 37.2991 19.8428C37.5269 20.4503 37.8605 20.9303 38.2998 21.2828C38.7445 21.6299 39.2896 21.8035 39.935 21.8035Z" fill="#645CAA"/>
<path d="M48.9062 24V11.5041H51.8512V24H48.9062ZM50.3868 9.73063C49.9204 9.73063 49.5191 9.57606 49.1828 9.26692C48.8465 8.95235 48.6784 8.57541 48.6784 8.13611C48.6784 7.69138 48.8465 7.31444 49.1828 7.0053C49.5191 6.69073 49.9204 6.53345 50.3868 6.53345C50.8587 6.53345 51.26 6.69073 51.5909 7.0053C51.9271 7.31444 52.0953 7.69138 52.0953 8.13611C52.0953 8.57541 51.9271 8.95235 51.5909 9.26692C51.26 9.57606 50.8587 9.73063 50.3868 9.73063Z" fill="#645CAA"/>
<path d="M57.8246 16.6782V24H54.8796V11.5041H57.6944V13.6275H57.8408C58.1283 12.9278 58.5866 12.3719 59.2157 11.9597C59.8503 11.5475 60.634 11.3414 61.5668 11.3414C62.4292 11.3414 63.1803 11.5258 63.8203 11.8946C64.4657 12.2634 64.9647 12.7977 65.3172 13.4973C65.6752 14.1969 65.8514 15.0457 65.846 16.0436V24H62.901V16.4992C62.901 15.664 62.6841 15.0105 62.2502 14.5386C61.8217 14.0668 61.2278 13.8308 60.4685 13.8308C59.9533 13.8308 59.495 13.9447 59.0937 14.1725C58.6978 14.3949 58.3859 14.7176 58.1581 15.1406C57.9357 15.5637 57.8246 16.0762 57.8246 16.6782Z" fill="#645CAA"/>
<path d="M74.2742 28.9463C73.2166 28.9463 72.3082 28.8026 71.5489 28.5151C70.7896 28.2331 70.1794 27.8534 69.7184 27.3762C69.2574 26.8989 68.9374 26.3701 68.7584 25.7898L71.4106 25.1471C71.5299 25.3911 71.7034 25.6325 71.9312 25.8711C72.159 26.1152 72.4654 26.3159 72.8505 26.4731C73.241 26.6358 73.7318 26.7172 74.323 26.7172C75.1582 26.7172 75.8497 26.5138 76.3975 26.107C76.9453 25.7057 77.2192 25.044 77.2192 24.122V21.7546H77.0728C76.9209 22.0584 76.6985 22.3702 76.4057 22.6902C76.1182 23.0102 75.7358 23.2787 75.2586 23.4956C74.7867 23.7126 74.1928 23.821 73.4769 23.821C72.517 23.821 71.6465 23.5959 70.8655 23.1458C70.0899 22.6902 69.4716 22.0123 69.0106 21.112C68.5551 20.2062 68.3273 19.0727 68.3273 17.7114C68.3273 16.3392 68.5551 15.1813 69.0106 14.2376C69.4716 13.2885 70.0926 12.5699 70.8736 12.0817C71.6546 11.5882 72.5251 11.3414 73.4851 11.3414C74.2173 11.3414 74.8193 11.4662 75.2911 11.7157C75.7684 11.9597 76.148 12.2553 76.4301 12.6024C76.7121 12.9441 76.9263 13.2668 77.0728 13.5705H77.2355V11.5041H80.1398V24.2034C80.1398 25.2718 79.8849 26.1559 79.3751 26.8555C78.8652 27.5551 78.1683 28.0785 77.2843 28.4256C76.4002 28.7727 75.3969 28.9463 74.2742 28.9463ZM74.2986 21.5106C74.9223 21.5106 75.4538 21.3587 75.8931 21.055C76.3324 20.7513 76.666 20.3147 76.8938 19.7452C77.1216 19.1757 77.2355 18.4924 77.2355 17.6951C77.2355 16.9087 77.1216 16.2199 76.8938 15.6287C76.6714 15.0376 76.3406 14.5793 75.9013 14.2539C75.4674 13.923 74.9332 13.7576 74.2986 13.7576C73.6424 13.7576 73.0946 13.9285 72.6553 14.2701C72.216 14.6118 71.8851 15.081 71.6628 15.6776C71.4404 16.2687 71.3292 16.9412 71.3292 17.6951C71.3292 18.4598 71.4404 19.1296 71.6628 19.7045C71.8905 20.274 72.2241 20.7188 72.6634 21.0387C73.1081 21.3533 73.6532 21.5106 74.2986 21.5106Z" fill="#645CAA"/>
<path d="M130.31 24V7.33884H133.255V13.5705H133.377C133.529 13.2668 133.743 12.9441 134.02 12.6024C134.296 12.2553 134.671 11.9597 135.142 11.7157C135.614 11.4662 136.216 11.3414 136.948 11.3414C137.914 11.3414 138.784 11.5882 139.56 12.0817C140.341 12.5699 140.959 13.2939 141.415 14.2539C141.876 15.2084 142.106 16.3799 142.106 17.7683C142.106 19.1405 141.881 20.3066 141.431 21.2665C140.981 22.2265 140.368 22.9587 139.592 23.4631C138.817 23.9675 137.938 24.2197 136.957 24.2197C136.241 24.2197 135.647 24.1003 135.175 23.8617C134.703 23.6231 134.323 23.3356 134.036 22.9994C133.754 22.6577 133.534 22.335 133.377 22.0312H133.206V24H130.31ZM133.198 17.7521C133.198 18.5602 133.312 19.2679 133.54 19.8754C133.773 20.4828 134.106 20.9574 134.54 21.2991C134.98 21.6353 135.511 21.8035 136.135 21.8035C136.786 21.8035 137.331 21.6299 137.77 21.2828C138.209 20.9303 138.54 20.4503 138.763 19.8428C138.99 19.23 139.104 18.5331 139.104 17.7521C139.104 16.9765 138.993 16.2877 138.771 15.6857C138.548 15.0837 138.218 14.6118 137.778 14.2701C137.339 13.9285 136.791 13.7576 136.135 13.7576C135.506 13.7576 134.972 13.923 134.532 14.2539C134.093 14.5847 133.759 15.0484 133.532 15.645C133.309 16.2416 133.198 16.944 133.198 17.7521Z" fill="#645CAA"/>
<path d="M144.61 24V11.5041H147.555V24H144.61ZM146.091 9.73063C145.624 9.73063 145.223 9.57606 144.886 9.26692C144.55 8.95235 144.382 8.57541 144.382 8.13611C144.382 7.69138 144.55 7.31444 144.886 7.0053C145.223 6.69073 145.624 6.53345 146.091 6.53345C146.562 6.53345 146.964 6.69073 147.295 7.0053C147.631 7.31444 147.799 7.69138 147.799 8.13611C147.799 8.57541 147.631 8.95235 147.295 9.26692C146.964 9.57606 146.562 9.73063 146.091 9.73063Z" fill="#645CAA"/>
<path d="M156.823 11.5041V13.782H149.64V11.5041H156.823ZM151.413 8.51033H154.358V20.2415C154.358 20.6374 154.418 20.9411 154.537 21.1526C154.662 21.3587 154.824 21.4997 155.025 21.5757C155.226 21.6516 155.448 21.6896 155.692 21.6896C155.877 21.6896 156.045 21.676 156.197 21.6489C156.354 21.6218 156.473 21.5974 156.555 21.5757L157.051 23.878C156.894 23.9322 156.668 23.9919 156.376 24.0569C156.088 24.122 155.736 24.16 155.318 24.1708C154.58 24.1925 153.916 24.0814 153.325 23.8373C152.734 23.5878 152.265 23.2027 151.917 22.6821C151.576 22.1614 151.408 21.5106 151.413 20.7296V8.51033Z" fill="#645CAA"/>
<path d="M105.138 19.2147C104.961 19.0206 104.784 18.8262 104.608 18.6322L102.162 15.9412C99.4491 12.9881 97.5196 11.2047 94.7879 11.2047C93.4797 11.2047 92.2822 11.7127 91.4161 12.635C90.5834 13.5221 90.1246 14.7171 90.1246 16C90.1246 17.2829 90.5834 18.4779 91.4162 19.3649C92.2822 20.2873 93.4797 20.7952 94.7879 20.7952C96.5947 20.7952 97.2875 20.0491 99.2294 18.2197C99.5824 17.8871 100.033 17.7039 100.497 17.7039C101.016 17.7039 101.504 17.9262 101.871 18.33L103.478 20.0977L102.914 20.6756C100.182 23.4713 98.4484 25.3334 94.7879 25.3334C89.8602 25.3334 86 21.2336 86 15.9999C85.9999 10.7664 89.86 6.66669 94.7878 6.66669C99.2846 6.66669 102.293 9.68377 105.128 12.7853C105.306 12.9794 105.483 13.1738 105.659 13.3678L105.659 13.3682L108.105 16.0588C110.818 19.012 112.747 20.7954 115.479 20.7954C116.787 20.7954 117.984 20.2874 118.85 19.365C119.683 18.478 120.142 17.283 120.142 16.0001C120.142 14.7172 119.683 13.5222 118.85 12.6351C117.984 11.7128 116.787 11.2048 115.479 11.2048C113.672 11.2048 112.979 11.951 111.037 13.7804C110.684 14.113 110.234 14.2962 109.77 14.2962C109.25 14.2962 108.762 14.0739 108.395 13.6701L106.788 11.9023L107.353 11.3244C110.085 8.52874 111.818 6.66669 115.479 6.66669C120.406 6.66669 124.267 10.7664 124.267 16.0002C124.267 21.2336 120.407 25.3334 115.479 25.3334C110.982 25.3334 107.974 22.3162 105.138 19.2147Z" fill="#D0A2F7"/>
</svg>
