<svg width="24" height="24" viewBox="0 0 24 24" fill="none" xmlns="http://www.w3.org/2000/svg">
<path d="M20.4 1.20001H3.59995C2.27995 1.20001 1.19995 2.28001 1.19995 3.60001V20.4C1.19995 21.7212 2.27995 22.8 3.59995 22.8H12V14.4H9.59995V11.43H12V8.97001C12 6.37321 13.4544 4.54921 16.5192 4.54921L18.6828 4.55161V7.67761H17.2464C16.0536 7.67761 15.6 8.57281 15.6 9.40321V11.4312H18.6816L18 14.4H15.6V22.8H20.4C21.72 22.8 22.8 21.7212 22.8 20.4V3.60001C22.8 2.28001 21.72 1.20001 20.4 1.20001Z" fill="#1E1E1E"/>
</svg>
