<svg width="24" height="24" viewBox="0 0 24 24" fill="none" xmlns="http://www.w3.org/2000/svg">
<path fill-rule="evenodd" clip-rule="evenodd" d="M5.81141 1.34912C4.62778 1.34912 3.49261 1.8192 2.65549 2.65599C1.81838 3.49278 1.34787 4.62778 1.34741 5.81141V17.7154C1.34741 18.8993 1.81772 20.0348 2.65489 20.8719C3.49205 21.7091 4.62749 22.1794 5.81141 22.1794H17.7154C18.899 22.179 20.034 21.7084 20.8708 20.8713C21.7076 20.0342 22.1777 18.899 22.1777 17.7154V5.81141C22.1772 4.62807 21.707 3.49334 20.8702 2.6566C20.0335 1.81985 18.8987 1.34958 17.7154 1.34912H5.81141ZM18.9994 5.81826C18.9994 6.15926 18.864 6.48628 18.6228 6.7274C18.3817 6.96852 18.0547 7.10398 17.7137 7.10398C17.3727 7.10398 17.0457 6.96852 16.8046 6.7274C16.5634 6.48628 16.428 6.15926 16.428 5.81826C16.428 5.47727 16.5634 5.15024 16.8046 4.90913C17.0457 4.66801 17.3727 4.53255 17.7137 4.53255C18.0547 4.53255 18.3817 4.66801 18.6228 4.90913C18.864 5.15024 18.9994 5.47727 18.9994 5.81826ZM11.7651 8.19769C10.8194 8.19769 9.91249 8.57336 9.24379 9.24207C8.57509 9.91077 8.19941 10.8177 8.19941 11.7634C8.19941 12.7091 8.57509 13.616 9.24379 14.2847C9.91249 14.9534 10.8194 15.3291 11.7651 15.3291C12.7108 15.3291 13.6178 14.9534 14.2865 14.2847C14.9552 13.616 15.3308 12.7091 15.3308 11.7634C15.3308 10.8177 14.9552 9.91077 14.2865 9.24207C13.6178 8.57336 12.7108 8.19769 11.7651 8.19769ZM6.48341 11.7634C6.48341 10.3631 7.0397 9.02008 8.02989 8.02988C9.02008 7.03969 10.3631 6.48341 11.7634 6.48341C13.1638 6.48341 14.5067 7.03969 15.4969 8.02988C16.4871 9.02008 17.0434 10.3631 17.0434 11.7634C17.0434 13.1637 16.4871 14.5067 15.4969 15.4969C14.5067 16.4871 13.1638 17.0434 11.7634 17.0434C10.3631 17.0434 9.02008 16.4871 8.02989 15.4969C7.0397 14.5067 6.48341 13.1637 6.48341 11.7634Z" fill="#1E1E1E"/>
</svg>
