<svg width="206" height="206" viewBox="0 0 206 206" fill="none" xmlns="http://www.w3.org/2000/svg">
<path d="M161.885 200.53H44.6305C32.2115 200.53 22.145 190.466 22.145 178.053V28.4612C22.145 16.0476 32.2115 5.9846 44.6305 5.9846H161.885C174.303 5.9846 184.37 16.0476 184.37 28.4612V178.053C184.37 190.466 174.303 200.53 161.885 200.53Z" fill="white"/>
<path d="M63.4225 55.4015V46.7613H65.9394V55.4015C65.9394 56.0966 65.3756 56.6604 64.6814 56.6604C63.9862 56.6604 63.4225 56.0966 63.4225 55.4015ZM60.3716 46.6905H68.9912V48.8561H60.3716V46.6905Z" fill="#2C2C2C"/>
<path d="M101.966 55.4015V46.7613H104.483V55.4015C104.483 56.0966 103.919 56.6604 103.225 56.6604C102.53 56.6604 101.966 56.0966 101.966 55.4015ZM98.9143 46.6905H107.534V48.8561H98.9143V46.6905Z" fill="#2C2C2C"/>
<path d="M79.7693 55.7053L77.3921 48.215C77.1526 47.4602 77.7155 46.6905 78.5075 46.6905H78.5243C79.0424 46.6905 79.499 47.0316 79.6463 47.5282L81.6749 54.368H80.5921L82.8425 46.6905H84.8525L87.1029 54.368H86.0341L88.0637 47.5282C88.2109 47.0316 88.6675 46.6905 89.1856 46.6905C89.9786 46.6905 90.5415 47.4612 90.3011 48.216L87.9127 55.7071C87.7319 56.2746 87.2045 56.6604 86.6091 56.6604C86.0015 56.6604 85.4666 56.2597 85.2952 55.6764L83.3345 48.9968H84.3475L82.399 55.6745C82.2284 56.2588 81.6935 56.6604 81.085 56.6604H81.0739C80.4775 56.6604 79.95 56.2737 79.7693 55.7053Z" fill="#2C2C2C"/>
<path d="M121.188 50.7521H126.332V53.0021H121.188V50.7521ZM121.188 46.3855H126.566V48.6355H121.188V46.3855ZM119.107 55.6185V46.3855H121.731V55.6185C121.731 56.3543 121.143 56.9519 120.419 56.9519C119.695 56.9519 119.107 56.3543 119.107 55.6185Z" fill="#2C2C2C"/>
<path d="M141.473 56.8147C140.638 56.8147 139.914 56.688 139.301 56.4354C139.078 56.3441 138.864 56.2332 138.656 56.1037C138.057 55.731 137.967 54.8886 138.464 54.3882L138.493 54.3583C138.867 53.98 139.457 53.9297 139.897 54.2279C140.035 54.3211 140.176 54.4031 140.319 54.473C140.713 54.6658 141.158 54.7618 141.655 54.7618C142.077 54.7618 142.403 54.6891 142.632 54.5438C142.862 54.3984 142.977 54.1999 142.977 53.9455C142.977 53.7116 142.892 53.5178 142.724 53.3631C142.555 53.2084 142.332 53.0724 142.056 52.955C141.779 52.8376 141.475 52.7257 141.142 52.6176C140.809 52.5095 140.477 52.3781 140.144 52.2244C139.811 52.0697 139.506 51.8796 139.23 51.6541C138.953 51.4286 138.73 51.1481 138.562 50.8108C138.393 50.4734 138.309 50.056 138.309 49.5593C138.309 48.9219 138.461 48.3786 138.766 47.9276C139.07 47.4775 139.494 47.1309 140.038 46.8877C140.582 46.6445 141.215 46.5215 141.937 46.5215C142.658 46.5215 143.323 46.6445 143.933 46.8877C144.031 46.9268 144.125 46.9678 144.216 47.0116C144.912 47.3424 145.076 48.2584 144.528 48.8008C144.177 49.1493 143.623 49.2415 143.207 48.975C143.112 48.9135 143.017 48.8604 142.921 48.8138C142.611 48.6638 142.274 48.5892 141.908 48.5892C141.561 48.5892 141.29 48.6498 141.093 48.7719C140.896 48.893 140.797 49.0663 140.797 49.2919C140.797 49.5174 140.882 49.7 141.051 49.8398C141.219 49.9805 141.442 50.1054 141.719 50.2125C141.995 50.3206 142.3 50.4315 142.632 50.5433C142.966 50.6561 143.295 50.7875 143.623 50.9366C143.951 51.0875 144.254 51.2795 144.53 51.5134C144.807 51.7473 145.03 52.0436 145.199 52.3996C145.367 52.7555 145.452 53.187 145.452 53.693C145.452 54.6863 145.102 55.4561 144.404 55.9984C143.706 56.5435 142.728 56.8147 141.473 56.8147Z" fill="#2C2C2C"/>
<path d="M40.0947 55.4156V46.6907H41.9081L45.7334 52.4701H44.8751L48.6855 46.6907H50.4998V55.4156C50.4998 56.1024 49.9425 56.6597 49.2558 56.6597C48.5681 56.6597 48.0108 56.1024 48.0108 55.4156V50.8533L48.4041 50.9651L46.1126 54.4102H44.481L42.2035 50.9651L42.5977 50.8533V55.4156C42.5977 56.1024 42.0404 56.6597 41.3537 56.6597H41.3387C40.652 56.6597 40.0947 56.1024 40.0947 55.4156Z" fill="#2C2C2C"/>
<path d="M160.744 56.8147C159.909 56.8147 159.185 56.688 158.572 56.4354C158.349 56.3441 158.135 56.2332 157.927 56.1037C157.329 55.731 157.239 54.8886 157.735 54.3882L157.764 54.3583C158.14 53.98 158.729 53.9297 159.169 54.2279C159.306 54.3211 159.447 54.4031 159.591 54.473C159.985 54.6658 160.43 54.7618 160.927 54.7618C161.349 54.7618 161.674 54.6891 161.903 54.5438C162.134 54.3984 162.248 54.1999 162.248 53.9455C162.248 53.7116 162.164 53.5178 161.996 53.3631C161.826 53.2084 161.603 53.0724 161.328 52.955C161.051 52.8376 160.746 52.7257 160.413 52.6176C160.081 52.5095 159.748 52.3781 159.415 52.2244C159.083 52.0697 158.777 51.8796 158.501 51.6541C158.224 51.4286 158.002 51.1481 157.833 50.8108C157.664 50.4734 157.581 50.056 157.581 49.5593C157.581 48.9219 157.732 48.3786 158.037 47.9276C158.342 47.4775 158.766 47.1309 159.309 46.8877C159.853 46.6445 160.486 46.5215 161.208 46.5215C161.93 46.5215 162.595 46.6445 163.204 46.8877C163.302 46.9268 163.396 46.9678 163.488 47.0116C164.184 47.3424 164.348 48.2584 163.8 48.8008C163.448 49.1493 162.895 49.2415 162.478 48.975C162.383 48.9135 162.288 48.8604 162.192 48.8138C161.883 48.6638 161.546 48.5892 161.179 48.5892C160.833 48.5892 160.562 48.6498 160.365 48.7719C160.167 48.893 160.069 49.0663 160.069 49.2919C160.069 49.5174 160.153 49.7 160.322 49.8398C160.491 49.9805 160.713 50.1054 160.99 50.2125C161.266 50.3206 161.572 50.4315 161.903 50.5433C162.237 50.6561 162.567 50.7875 162.895 50.9366C163.223 51.0875 163.526 51.2795 163.802 51.5134C164.078 51.7473 164.301 52.0436 164.471 52.3996C164.638 52.7555 164.723 53.187 164.723 53.693C164.723 54.6863 164.374 55.4561 163.676 55.9984C162.978 56.5435 161.999 56.8147 160.744 56.8147Z" fill="#2C2C2C"/>
<path d="M164.153 176.267H42.0716C38.5315 176.267 35.6614 173.396 35.6614 169.856V47.7754C35.6614 44.2352 38.5315 41.3651 42.0716 41.3651H164.153C167.693 41.3651 170.563 44.2352 170.563 47.7754V169.856C170.563 173.396 167.693 176.267 164.153 176.267Z" stroke="#D0A2F7" stroke-width="2.41379" stroke-miterlimit="10" stroke-linecap="round" stroke-linejoin="round"/>
<path d="M54.9331 41.3651V176.267" stroke="#D0A2F7" stroke-width="2.41379" stroke-miterlimit="10" stroke-linecap="round" stroke-linejoin="round"/>
<path d="M112.748 176.267V41.3651" stroke="#D0A2F7" stroke-width="2.41379" stroke-miterlimit="10" stroke-linecap="round" stroke-linejoin="round"/>
<path d="M93.4763 41.3651V176.267" stroke="#D0A2F7" stroke-width="2.41379" stroke-miterlimit="10" stroke-linecap="round" stroke-linejoin="round"/>
<path d="M74.2048 41.3651V176.267" stroke="#D0A2F7" stroke-width="2.41379" stroke-miterlimit="10" stroke-linecap="round" stroke-linejoin="round"/>
<path d="M151.291 176.267V41.3651" stroke="#D0A2F7" stroke-width="2.41379" stroke-miterlimit="10" stroke-linecap="round" stroke-linejoin="round"/>
<path d="M132.02 41.3651V176.267" stroke="#D0A2F7" stroke-width="2.41379" stroke-miterlimit="10" stroke-linecap="round" stroke-linejoin="round"/>
<path d="M35.6614 61.063H170.563" stroke="#D0A2F7" stroke-width="2.41379" stroke-miterlimit="10" stroke-linecap="round" stroke-linejoin="round"/>
<path d="M35.6614 80.2637H170.563" stroke="#D0A2F7" stroke-width="2.41379" stroke-miterlimit="10" stroke-linecap="round" stroke-linejoin="round"/>
<path d="M35.6614 99.4644H170.563" stroke="#D0A2F7" stroke-width="2.41379" stroke-miterlimit="10" stroke-linecap="round" stroke-linejoin="round"/>
<path d="M35.6614 118.665H170.563" stroke="#D0A2F7" stroke-width="2.41379" stroke-miterlimit="10" stroke-linecap="round" stroke-linejoin="round"/>
<path d="M35.6614 137.865H170.563" stroke="#D0A2F7" stroke-width="2.41379" stroke-miterlimit="10" stroke-linecap="round" stroke-linejoin="round"/>
<path d="M35.6614 157.066H170.563" stroke="#D0A2F7" stroke-width="2.41379" stroke-miterlimit="10" stroke-linecap="round" stroke-linejoin="round"/>
<path d="M151.397 89.8637C151.397 95.1659 147.099 99.4636 141.797 99.4636C136.495 99.4636 132.196 95.1659 132.196 89.8637C132.196 84.5614 136.495 80.2637 141.797 80.2637C147.099 80.2637 151.397 84.5614 151.397 89.8637Z" fill="#B2CFF3"/>
<path d="M112.825 109.064C112.825 114.367 108.527 118.664 103.225 118.664C97.9231 118.664 93.6245 114.367 93.6245 109.064C93.6245 103.762 97.9231 99.4644 103.225 99.4644C108.527 99.4644 112.825 103.762 112.825 109.064Z" fill="#B2CFF3"/>
<path d="M83.7341 137.865H64.5333C59.2311 137.865 54.9333 142.164 54.9333 147.465C54.9333 152.767 59.2311 157.066 64.5333 157.066H83.7341C89.0363 157.066 93.334 152.767 93.334 147.465C93.334 142.164 89.0363 137.865 83.7341 137.865Z" fill="#B2CFF3"/>
<path d="M151.428 157.022H132.16V137.754H151.428V157.022Z" fill="#D0A2F7"/>
<path d="M150.806 143.969H145.212V138.375H150.806V143.969Z" fill="white"/>
<path d="M55.0872 118.486H35.8191V99.2175H55.0872V118.486Z" fill="#D0A2F7"/>
<path d="M54.4658 105.433H48.8718V99.8389H54.4658V105.433Z" fill="white"/>
<path d="M51.8414 29.7619H41.1223C40.4421 29.7619 39.8914 30.3126 39.8914 30.9929C39.8914 31.6722 40.4421 32.2229 41.1223 32.2229H51.8414C52.5208 32.2229 53.0724 31.6722 53.0724 30.9929C53.0724 30.3126 52.5208 29.7619 51.8414 29.7619ZM41.1223 21.5038H51.8414C52.5208 21.5038 53.0724 20.9531 53.0724 20.2738C53.0724 19.5935 52.5208 19.0428 51.8414 19.0428H41.1223C40.4421 19.0428 39.8914 19.5935 39.8914 20.2738C39.8914 20.9531 40.4421 21.5038 41.1223 21.5038ZM51.8414 24.4019H41.1223C40.4421 24.4019 39.8914 24.9535 39.8914 25.6328C39.8914 26.3122 40.4421 26.8638 41.1223 26.8638H51.8414C52.5208 26.8638 53.0724 26.3122 53.0724 25.6328C53.0724 24.9535 52.5208 24.4019 51.8414 24.4019Z" fill="#D0A2F7"/>
<path d="M165.029 24.3702H160.964V20.3054C160.964 19.6075 160.398 19.0428 159.701 19.0428C159.003 19.0428 158.439 19.6075 158.439 20.3054V24.3702H154.374C153.676 24.3702 153.111 24.9358 153.111 25.6328C153.111 26.3299 153.676 26.8955 154.374 26.8955H158.439V30.9602C158.439 31.6582 159.003 32.2229 159.701 32.2229C160.398 32.2229 160.964 31.6582 160.964 30.9602V26.8955H165.029C165.726 26.8955 166.291 26.3299 166.291 25.6328C166.291 24.9358 165.726 24.3702 165.029 24.3702Z" fill="#D0A2F7"/>
</svg>
