<svg width="400" height="400" viewBox="0 0 400 400" fill="none" xmlns="http://www.w3.org/2000/svg">
<path d="M366.137 326.525H27.5297C21.2806 326.525 16.2146 321.459 16.2146 315.21V98.9582C16.2146 92.7091 21.2806 87.6431 27.5297 87.6431H366.137C372.386 87.6431 377.452 92.7091 377.452 98.9582V315.21C377.452 321.459 372.386 326.525 366.137 326.525Z" fill="white" stroke="#645CAA" stroke-width="2.66667" stroke-miterlimit="10" stroke-linecap="round" stroke-linejoin="round"/>
<path d="M381.937 332H18.2125C10.5777 332 4.3877 325.811 4.3877 318.175V311.097H395.761V318.175C395.762 325.81 389.572 332 381.937 332Z" fill="white" stroke="#645CAA" stroke-width="2.66667" stroke-miterlimit="10" stroke-linecap="round" stroke-linejoin="round"/>
<path d="M161.222 308.857L166.079 316.583H234.418L238.927 308.857H161.222Z" fill="#645CAA" stroke="#645CAA" stroke-width="2.66667" stroke-miterlimit="10" stroke-linecap="round" stroke-linejoin="round"/>
<path d="M363.151 302.541H29.1011C27.6967 302.541 26.5587 301.403 26.5587 299.999V103.922C26.5587 102.517 27.6967 101.379 29.1011 101.379H363.151C364.555 101.379 365.694 102.517 365.694 103.921V300C365.694 301.403 364.555 302.541 363.151 302.541Z" fill="#EBEBEB"/>
<path d="M365.331 302.836H26.1963L26.559 116.413H365.331V302.836Z" fill="#F8F8F8"/>
<path d="M54.3727 109.148C54.3727 110.644 53.1601 111.856 51.6641 111.856C50.168 111.856 48.9563 110.644 48.9563 109.148C48.9563 107.652 50.1688 106.44 51.6641 106.44C53.1594 106.44 54.3727 107.652 54.3727 109.148Z" fill="#645CAA"/>
<path d="M37.9578 109.148C37.9578 110.644 36.7453 111.856 35.2492 111.856C33.754 111.856 32.5406 110.644 32.5406 109.148C32.5406 107.652 33.754 106.44 35.2492 106.44C36.7453 106.44 37.9578 107.652 37.9578 109.148Z" fill="#D0A2F7"/>
<path d="M45.8372 109.148C45.8372 110.644 44.6247 111.856 43.1286 111.856C41.6326 111.856 40.42 110.644 40.42 109.148C40.42 107.652 41.6326 106.44 43.1286 106.44C44.6247 106.44 45.8372 107.652 45.8372 109.148Z" fill="#FFC146"/>
<path d="M365.694 284.834H26.1964V302.836H365.694V284.834Z" fill="#263238"/>
<path d="M39.0215 295.919V296.495H36.3184V296.039L37.7756 294.656C38.1313 294.315 38.1943 294.1 38.1943 293.897C38.1943 293.561 37.9636 293.367 37.513 293.367C37.1573 293.367 36.8582 293.487 36.6539 293.749L36.177 293.382C36.4597 293 36.9685 292.774 37.5705 292.774C38.3667 292.774 38.8801 293.177 38.8801 293.828C38.8801 294.183 38.7807 294.509 38.2719 294.986L37.2924 295.919H39.0215Z" fill="white"/>
<path d="M39.39 294.1C39.39 293.838 39.5834 293.665 39.8196 293.665C40.0549 293.665 40.2491 293.838 40.2491 294.1C40.2491 294.351 40.0549 294.534 39.8196 294.534C39.5834 294.534 39.39 294.351 39.39 294.1ZM39.39 296.097C39.39 295.834 39.5834 295.662 39.8196 295.662C40.0549 295.662 40.2491 295.834 40.2491 296.097C40.2491 296.347 40.0549 296.531 39.8196 296.531C39.5834 296.532 39.39 296.348 39.39 296.097Z" fill="white"/>
<path d="M41.9557 292.827V296.495H41.2752V293.399H40.4993V292.827H41.9557Z" fill="white"/>
<path d="M45.9522 295.662H45.3021V296.495H44.6418V295.662H42.63V295.19L44.4375 292.827H45.1661L43.4627 295.086H44.6628V294.346H45.3021V295.086H45.9522V295.662Z" fill="white"/>
<path d="M330.209 294.196H51.9432V295.464H330.209V294.196Z" fill="white"/>
<path d="M138.693 292.829H51.7347V296.213H138.693V292.829Z" fill="#D0A2F7"/>
<path d="M141.501 294.83C141.501 297.168 139.606 299.064 137.267 299.064C134.929 299.064 133.033 297.168 133.033 294.83C133.033 292.492 134.928 290.596 137.267 290.596C139.606 290.597 141.501 292.492 141.501 294.83Z" fill="#D0A2F7"/>
<path d="M337.218 294.789C337.218 295.519 336.626 295.979 335.876 295.979C334.876 295.979 334.289 295.335 334.289 294.155C334.289 292.898 335.022 292.206 336.086 292.206C336.453 292.206 336.804 292.285 337.05 292.442L336.799 292.955C336.6 292.824 336.359 292.777 336.102 292.777C335.411 292.777 334.976 293.208 334.976 294.04V294.046C335.197 293.789 335.548 293.664 335.956 293.664C336.679 293.664 337.218 294.103 337.218 294.789ZM336.557 294.821C336.557 294.439 336.269 294.198 335.824 294.198C335.384 294.198 335.08 294.464 335.08 294.826C335.08 295.172 335.353 295.444 335.84 295.444C336.265 295.444 336.557 295.203 336.557 294.821Z" fill="white"/>
<path d="M337.549 293.532C337.549 293.271 337.743 293.097 337.979 293.097C338.214 293.097 338.409 293.271 338.409 293.532C338.409 293.783 338.214 293.967 337.979 293.967C337.742 293.967 337.549 293.783 337.549 293.532ZM337.549 295.529C337.549 295.266 337.743 295.094 337.979 295.094C338.214 295.094 338.409 295.266 338.409 295.529C338.409 295.78 338.214 295.964 337.979 295.964C337.742 295.963 337.549 295.78 337.549 295.529Z" fill="white"/>
<path d="M338.847 294.093C338.847 292.888 339.506 292.206 340.376 292.206C341.251 292.206 341.912 292.888 341.912 294.093C341.912 295.297 341.251 295.98 340.376 295.98C339.507 295.979 338.847 295.297 338.847 294.093ZM341.226 294.093C341.226 293.208 340.881 292.799 340.377 292.799C339.88 292.799 339.533 293.208 339.533 294.093C339.533 294.979 339.88 295.386 340.377 295.386C340.88 295.386 341.226 294.979 341.226 294.093Z" fill="white"/>
<path d="M342.368 294.093C342.368 292.888 343.028 292.206 343.898 292.206C344.773 292.206 345.433 292.888 345.433 294.093C345.433 295.297 344.774 295.98 343.898 295.98C343.029 295.979 342.368 295.297 342.368 294.093ZM344.747 294.093C344.747 293.208 344.402 292.799 343.898 292.799C343.401 292.799 343.055 293.208 343.055 294.093C343.055 294.979 343.401 295.386 343.898 295.386C344.402 295.386 344.747 294.979 344.747 294.093Z" fill="white"/>
<path d="M351.359 293.865H350.09V290.208H353.741V291.476H351.359V293.865Z" fill="white"/>
<path d="M353.744 298.638H350.086V294.988H351.355V297.37H353.744V298.638Z" fill="white"/>
<path d="M359.569 298.638H355.918V297.37H358.3V294.98H359.569V298.638Z" fill="white"/>
<path d="M359.572 293.858H358.303V291.476H355.914V290.208H359.572V293.858Z" fill="white"/>
<path d="M72.7025 127.497H52.7134L42.7188 144.809L52.7134 162.12H72.7025L82.6971 144.809L72.7025 127.497Z" fill="#EBEBEB"/>
<path d="M54.3448 148.197C53.4515 147.208 52.5504 146.209 51.8995 145.046C51.2486 143.883 50.8602 142.527 51.0754 141.212C51.2012 140.443 51.5282 139.71 51.5803 138.933C51.6517 137.863 51.202 136.745 51.581 135.743C52.1737 134.175 54.2834 133.933 55.5627 132.851C56.5585 132.008 57.044 130.638 58.14 129.929C59.097 129.309 60.3274 129.323 61.456 129.483C62.5854 129.643 63.7211 129.927 64.8512 129.775C65.6567 129.667 66.4156 129.341 67.2048 129.146C67.994 128.951 68.8741 128.899 69.5771 129.308C70.28 129.716 70.6746 130.714 70.2132 131.383C71.5229 130.78 73.1859 131.8 73.5448 133.197C73.9029 134.594 73.1859 136.103 72.0759 137.024C70.9667 137.945 69.5312 138.374 68.1144 138.641C64.1025 139.396 59.751 138.97 56.2937 136.799" fill="#263238"/>
<path d="M72.8775 152.469C72.7424 149.991 72.0495 144.912 71.3683 140.322C70.6358 135.384 66.2362 131.837 61.2564 132.17L60.7616 132.204C55.4478 132.872 53.0468 137.758 53.8624 143.052L55.4221 162.12H68.3902C68.3902 162.12 68.0834 158.774 68.0818 158.742C68.0818 158.742 73.1572 157.601 72.8775 152.469Z" fill="#FFBE9D"/>
<path d="M68.0861 158.667C68.0861 158.667 64.8633 159.147 61.2747 157.215C61.2747 157.215 63.1016 160.799 68.1871 159.995L68.0861 158.667Z" fill="#EB996E"/>
<path d="M69.7175 144.72C69.7571 145.106 69.4627 145.457 69.0612 145.506C68.6596 145.555 68.3015 145.283 68.2619 144.897C68.2223 144.511 68.5159 144.159 68.9175 144.111C69.3198 144.062 69.6787 144.335 69.7175 144.72Z" fill="#263238"/>
<path d="M70.4336 142.901C70.3489 143.003 69.7671 142.629 68.9787 142.684C68.1911 142.728 67.6396 143.172 67.5479 143.081C67.5029 143.042 67.5837 142.863 67.8237 142.663C68.059 142.464 68.4699 142.258 68.9616 142.227C69.4525 142.197 69.8774 142.35 70.1268 142.519C70.3816 142.688 70.4755 142.855 70.4336 142.901Z" fill="#263238"/>
<path d="M62.2745 145.252C62.3141 145.638 62.0198 145.99 61.6182 146.039C61.2166 146.087 60.8585 145.815 60.8189 145.429C60.7793 145.043 61.0737 144.691 61.4745 144.643C61.8768 144.594 62.2349 144.867 62.2745 145.252Z" fill="#263238"/>
<path d="M62.6983 143.566C62.6136 143.668 62.0311 143.294 61.2434 143.349C60.4558 143.393 59.9043 143.837 59.8126 143.746C59.7676 143.707 59.8476 143.528 60.0884 143.328C60.3237 143.128 60.7346 142.923 61.2256 142.892C61.7165 142.862 62.1414 143.015 62.3915 143.184C62.6463 143.353 62.7403 143.521 62.6983 143.566Z" fill="#263238"/>
<path d="M65.9487 149.219C65.9417 149.174 66.4264 149.056 67.2132 148.902C67.4128 148.867 67.6008 148.815 67.6257 148.675C67.663 148.526 67.5643 148.315 67.4517 148.088C67.2295 147.613 66.9981 147.116 66.7542 146.595C65.7817 144.469 65.0639 142.716 65.1494 142.677C65.2356 142.639 66.0931 144.331 67.0656 146.457C67.301 146.982 67.5247 147.482 67.7391 147.96C67.8307 148.184 67.9791 148.434 67.896 148.743C67.8517 148.897 67.7119 149.016 67.5845 149.059C67.4579 149.108 67.3453 149.117 67.2458 149.13C66.4497 149.226 65.9549 149.263 65.9487 149.219Z" fill="#263238"/>
<path d="M62.6958 140.465C62.6321 140.684 61.8391 140.635 60.9217 140.809C60.0012 140.964 59.2734 141.285 59.1383 141.101C59.0777 141.012 59.1942 140.802 59.4816 140.575C59.7667 140.348 60.2304 140.119 60.7811 140.02C61.3318 139.922 61.8461 139.977 62.1917 140.091C62.5397 140.204 62.7222 140.361 62.6958 140.465Z" fill="#263238"/>
<path d="M69.9921 140.64C69.8655 140.828 69.3101 140.679 68.6569 140.714C68.0028 140.725 67.4599 140.915 67.3201 140.736C67.2579 140.649 67.3333 140.465 67.5632 140.279C67.79 140.094 68.1784 139.929 68.6281 139.913C69.0779 139.897 69.4771 140.033 69.7164 140.202C69.9587 140.37 70.0473 140.549 69.9921 140.64Z" fill="#263238"/>
<path d="M54.5352 146.82C54.4451 146.788 50.9427 146.014 51.2891 149.511C51.6355 153.009 55.4261 151.869 55.4223 151.768C55.4184 151.668 54.5352 146.82 54.5352 146.82Z" fill="#FFBE9D"/>
<path d="M53.8724 150.62C53.8561 150.61 53.8157 150.669 53.7171 150.726C53.6215 150.782 53.4514 150.831 53.2627 150.781C52.8797 150.681 52.51 150.126 52.4308 149.497C52.3904 149.179 52.4269 148.87 52.5147 148.607C52.5962 148.341 52.7438 148.146 52.9271 148.094C53.1081 148.032 53.2503 148.131 53.3031 148.225C53.3598 148.318 53.3442 148.39 53.3637 148.394C53.3745 148.402 53.4328 148.328 53.3908 148.187C53.3699 148.119 53.3202 148.04 53.2316 147.981C53.1407 147.921 53.0141 147.899 52.886 147.925C52.618 147.97 52.3997 148.243 52.3034 148.53C52.1923 148.821 52.1434 149.17 52.1884 149.526C52.2809 150.228 52.7065 150.853 53.227 150.948C53.4794 150.988 53.6775 150.894 53.7754 150.801C53.874 150.705 53.8849 150.625 53.8724 150.62Z" fill="#EB996E"/>
<path d="M71.1098 135.532C70.8698 136.925 68.0455 138.2 65.7043 138.132C63.5457 138.069 62.4792 136.998 60.9109 136.237C59.9182 135.755 59.9182 135.755 58.5713 135.974C57.4823 136.151 56.9168 137.436 56.3055 138.355C57.4706 140.894 56.9999 143.847 56.5059 146.598C56.4515 146.902 56.3839 147.23 56.1517 147.434C55.7587 147.78 55.1209 147.573 54.7341 147.218C54.115 146.651 53.8331 145.811 53.6303 144.996C53.1681 143.14 52.9903 141.198 53.2839 139.308C53.5775 137.418 54.3589 135.583 55.6507 134.172C57.264 132.409 59.623 131.393 62.0093 131.27C64.3962 131.147 66.7926 131.886 68.7919 133.196C69.7186 133.804 70.5855 134.555 71.1098 135.532Z" fill="#263238"/>
<path d="M66.4646 150.99C65.8704 150.713 65.2762 150.436 64.682 150.159C64.5794 150.111 64.4699 150.062 64.3573 150.078C64.2307 150.095 64.1297 150.189 64.0489 150.287C63.6357 150.788 63.5308 151.544 63.8516 152.11C64.1716 152.675 64.9251 152.973 65.5247 152.725C66.1563 152.463 66.4639 151.729 66.5128 151.047L66.4646 150.99Z" fill="#EB996E"/>
<path d="M65.5799 152.85C65.6079 152.885 65.2078 153.137 64.5352 152.944C64.2105 152.846 63.84 152.597 63.6108 152.193C63.377 151.8 63.2916 151.237 63.4935 150.731C63.5898 150.48 63.7405 150.258 63.9246 150.083C64.0186 149.995 64.1134 149.923 64.2283 149.856C64.341 149.772 64.5833 149.759 64.6983 149.828C65.1061 150.055 65.3803 150.249 65.6537 150.424C66.1765 150.771 66.4848 151.009 66.4569 151.057C66.4289 151.105 66.0685 150.955 65.5092 150.671C65.1838 150.501 64.8692 150.337 64.5577 150.174C64.4831 150.154 64.4909 150.154 64.4194 150.191C64.3495 150.236 64.2672 150.3 64.1996 150.368C64.0606 150.506 63.9448 150.681 63.8703 150.875C63.7149 151.266 63.7685 151.688 63.9371 152.013C64.1041 152.343 64.3744 152.56 64.6346 152.675C65.1706 152.905 65.5698 152.785 65.5799 152.85Z" fill="#263238"/>
<path d="M65.0171 144.809C64.9774 144.81 64.9821 144.483 64.8268 143.936C64.673 143.398 64.2993 142.616 63.4876 142.019C62.7031 141.419 61.4207 141.088 60.1833 141.553C58.956 141.979 57.8996 143.285 57.9136 144.808C57.8996 146.331 58.9568 147.638 60.1833 148.064C61.4207 148.529 62.7039 148.198 63.4876 147.598C64.2986 147 64.6722 146.218 64.826 145.681C64.9821 145.134 64.9774 144.807 65.0171 144.809C65.031 144.809 65.0404 144.889 65.0458 145.044C65.0543 145.199 65.0396 145.43 64.979 145.72C64.8656 146.292 64.5145 147.149 63.6608 147.827C62.8367 148.505 61.4354 148.91 60.0559 148.415C58.6888 147.965 57.4918 146.512 57.5081 144.809C57.4926 143.105 58.6888 141.654 60.0559 141.203C61.4354 140.708 62.8367 141.114 63.6608 141.792C64.5145 142.469 64.8656 143.326 64.979 143.899C65.0396 144.188 65.0543 144.42 65.0458 144.574C65.0404 144.728 65.031 144.809 65.0171 144.809Z" fill="#263238"/>
<path d="M73.7412 144.466C73.7024 144.467 73.7062 144.149 73.5532 143.616C73.4025 143.092 73.0382 142.331 72.2483 141.75C71.4847 141.167 70.2357 140.845 69.0325 141.298C67.8386 141.714 66.8109 142.984 66.8241 144.466C66.8102 145.948 67.8386 147.218 69.0325 147.634C70.2365 148.087 71.4855 147.765 72.249 147.181C73.039 146.599 73.4033 145.838 73.554 145.315C73.7062 144.783 73.7024 144.464 73.7412 144.466C73.7552 144.466 73.7653 144.544 73.7707 144.695C73.7793 144.845 73.7653 145.071 73.7062 145.353C73.5967 145.911 73.2549 146.747 72.4223 147.408C71.6191 148.07 70.252 148.466 68.9058 147.984C67.5721 147.545 66.4039 146.127 66.4202 144.465C66.4047 142.803 67.5721 141.386 68.9058 140.947C70.252 140.465 71.6191 140.86 72.4223 141.522C73.2549 142.183 73.5967 143.018 73.7062 143.576C73.7653 143.859 73.7793 144.084 73.7707 144.235C73.7653 144.387 73.7552 144.466 73.7412 144.466Z" fill="#263238"/>
<path d="M66.6225 143.66C66.5433 143.735 66.1968 143.511 65.73 143.526C65.2624 143.526 64.9268 143.763 64.8437 143.693C64.7373 143.637 65.0628 143.133 65.723 143.122C66.3817 143.112 66.7258 143.599 66.6225 143.66Z" fill="#263238"/>
<path d="M57.9318 144.289C57.9986 144.379 57.3205 144.998 56.4164 145.673C55.513 146.348 54.7261 146.821 54.6593 146.732C54.5925 146.643 55.2706 146.023 56.1748 145.349C57.0782 144.674 57.865 144.2 57.9318 144.289Z" fill="#263238"/>
<path d="M130.028 144.632C130.028 144.744 121.042 144.834 109.959 144.834C98.8733 144.834 89.8893 144.743 89.8893 144.632C89.8893 144.521 98.8733 144.43 109.959 144.43C121.041 144.43 130.028 144.521 130.028 144.632Z" fill="#263238"/>
<path d="M111.466 148.833C111.466 148.944 106.694 149.035 100.809 149.035C94.9222 149.035 90.1521 148.944 90.1521 148.833C90.1521 148.721 94.923 148.631 100.809 148.631C106.694 148.631 111.466 148.721 111.466 148.833Z" fill="#263238"/>
<path d="M250.276 175.668C250.276 175.668 260.944 180.866 264.69 194.288C268.437 207.709 279.911 242.663 279.911 242.663C279.911 242.663 286.468 250.376 287.17 256.089C287.872 261.801 286.468 275.616 284.36 278.192C282.253 280.768 279.248 280.341 279.248 280.341L251.651 277.724L240.784 204.96L250.276 175.668Z" fill="#B2CFF3"/>
<path d="M159.016 174.397C159.016 174.397 139.284 180.586 134.366 185.971L150.524 261.137L150.266 284.853H243.818C243.818 283.682 244.656 206.109 244.656 206.109L250.276 175.669L217.025 169.815L210.469 164.664L173.472 166.537L167.852 172.157L159.016 174.397Z" fill="#B2CFF3"/>
<g opacity="0.3">
<path d="M166.511 239.606C166.223 238.969 165.811 238.28 165.125 238.138C163.998 237.906 163.245 239.237 162.862 240.323C159.822 248.928 155.803 256.841 150.572 264.319L150.332 275.859C155.786 271.27 161.163 266.354 164.64 260.132C168.117 253.909 169.447 246.102 166.511 239.606Z" fill="black"/>
</g>
<path d="M134.366 185.971C134.366 185.971 127.865 194.835 125.165 200.62C122.465 206.405 100.094 255.004 98.7439 260.019C97.3939 265.033 93.9225 280.847 104.144 284.511H125.165L146.264 241.847L147.343 192.327L134.366 185.971Z" fill="#B2CFF3"/>
<path d="M126.511 253.691C126.483 253.723 126.043 253.278 125.075 252.728C124.109 252.181 122.608 251.554 120.663 251.13C119.692 250.917 118.612 250.751 117.447 250.678C116.281 250.605 115.03 250.626 113.76 250.918C111.21 251.486 108.676 253.096 106.683 255.36C104.659 257.62 103.41 260.291 102.676 262.81C101.931 265.334 101.613 267.702 101.412 269.687C101.215 271.675 101.141 273.294 101.073 274.412C101.04 274.934 101.013 275.36 100.992 275.699C100.97 275.993 100.951 276.148 100.937 276.147C100.923 276.146 100.914 275.992 100.911 275.696C100.912 275.357 100.914 274.93 100.916 274.406C100.937 273.286 100.966 271.663 101.127 269.661C101.293 267.663 101.583 265.272 102.319 262.705C103.042 260.148 104.31 257.404 106.38 255.092C108.419 252.776 111.036 251.122 113.679 250.554C114.997 250.262 116.291 250.254 117.47 250.343C118.654 250.431 119.746 250.616 120.727 250.851C122.691 251.317 124.199 251.995 125.156 252.592C125.633 252.895 125.979 253.166 126.198 253.365C126.413 253.57 126.52 253.681 126.511 253.691Z" fill="#263238"/>
<path d="M116.543 245.197C116.54 245.169 116.791 245.13 117.25 245.083C117.707 245.027 118.376 245.014 119.199 245.057C120.024 245.093 121.001 245.234 122.066 245.48C123.126 245.747 124.271 246.13 125.414 246.668C126.552 247.219 127.57 247.866 128.444 248.523C129.306 249.196 130.031 249.866 130.578 250.485C131.13 251.098 131.54 251.627 131.784 252.017C132.036 252.403 132.163 252.622 132.141 252.637C132.079 252.681 131.509 251.839 130.371 250.681C129.807 250.099 129.077 249.463 128.221 248.821C127.353 248.195 126.352 247.571 125.239 247.033C124.122 246.508 123.007 246.123 121.975 245.842C120.937 245.581 119.984 245.413 119.176 245.342C117.561 245.186 116.547 245.273 116.543 245.197Z" fill="#263238"/>
<path d="M135.547 242.859C135.543 242.886 135.195 242.859 134.575 242.785C133.955 242.705 133.055 242.615 131.941 242.533C129.718 242.364 126.625 242.324 123.246 242.724C119.866 243.132 116.87 243.901 114.748 244.589C113.686 244.932 112.832 245.233 112.249 245.456C111.663 245.675 111.332 245.783 111.322 245.758C111.311 245.732 111.619 245.574 112.189 245.31C112.756 245.041 113.599 244.698 114.656 244.318C116.768 243.556 119.784 242.734 123.197 242.322C126.61 241.918 129.735 242.004 131.967 242.247C133.084 242.367 133.984 242.501 134.599 242.63C135.215 242.751 135.553 242.832 135.547 242.859Z" fill="#263238"/>
<path d="M195.422 201.337C195.414 201.343 195.341 201.256 195.208 201.084C195.058 200.883 194.868 200.629 194.635 200.315C194.12 199.602 193.409 198.617 192.521 197.388C190.707 194.828 188.176 191.257 185.199 187.057L185.526 187.011C184.393 190.338 183.142 194.007 181.827 197.869L181.744 198.114L181.532 197.977C181.395 197.889 181.246 197.793 181.096 197.697C179.356 196.594 177.822 195.268 176.519 193.832C175.222 192.389 174.145 190.849 173.251 189.313C171.464 186.232 170.386 183.193 169.655 180.618C168.928 178.036 168.548 175.899 168.293 174.426C168.17 173.721 168.072 173.157 167.999 172.732C167.963 172.538 167.924 172.396 167.9 172.298C167.863 172.209 167.846 172.159 167.851 172.155C167.937 172.118 168.165 172.932 168.448 174.396C168.749 175.859 169.171 177.982 169.929 180.538C170.691 183.088 171.789 186.091 173.572 189.124C174.464 190.636 175.532 192.149 176.812 193.565C178.097 194.973 179.605 196.272 181.312 197.354C181.458 197.448 181.604 197.543 181.74 197.629L181.444 197.737C182.771 193.879 184.033 190.213 185.175 186.89L185.294 186.543L185.501 186.843C188.429 191.077 190.918 194.677 192.703 197.258C193.554 198.513 194.236 199.518 194.73 200.246C194.945 200.573 195.119 200.837 195.256 201.047C195.374 201.233 195.431 201.332 195.422 201.337Z" fill="#263238"/>
<g opacity="0.3">
<path d="M219.777 237.219C218.911 245.91 220.829 254.856 225.183 262.427C229.537 269.998 235.915 276.745 243.861 280.367C244.118 272.653 243.748 263.566 244.004 255.852L219.777 237.219Z" fill="black"/>
</g>
<path d="M218.897 227.063C218.897 227.063 215.499 228.006 218.047 234.968C220.596 241.93 221.446 241.509 223.144 248.022C224.843 254.535 226.825 260.478 229.799 264.159C232.772 267.84 243.816 275.344 243.816 275.344L253.728 266C253.728 266 252.094 259.036 252.487 254.306C252.879 249.576 253.87 237.966 253.728 235.984C253.586 234.001 251.462 229.188 251.462 229.188V225.894L246.365 210.215C246.365 210.215 243.533 208.94 242.542 213.471L240.844 208.662C240.844 208.662 238.154 208.232 237.445 213.753C236.738 219.275 238.012 226.921 238.012 226.921L236.596 236.549L234.472 243.062L232.631 243.346C232.631 243.346 229.86 242.589 228.343 237.375C226.826 232.16 222.72 225.931 218.897 227.063Z" fill="#FFBE9D"/>
<path d="M250.409 251.691C250.399 251.692 250.383 251.569 250.364 251.334C250.345 251.064 250.322 250.721 250.292 250.296C250.241 249.346 250.171 248.033 250.082 246.397C249.93 243.016 249.717 238.312 249.47 232.819L249.514 232.933C249.059 232.388 248.246 232.226 247.508 232.41C246.759 232.591 246.087 233.059 245.671 233.757C244.805 235.149 244.758 236.965 244.487 238.717C243.95 242.686 243.438 246.464 242.972 249.908C242.737 251.628 242.487 253.265 242.152 254.78C241.826 256.297 241.368 257.677 240.923 258.91C240.485 260.146 240.097 261.265 239.856 262.272C239.614 263.278 239.518 264.168 239.536 264.894C239.567 266.357 239.991 267.099 239.929 267.115C239.916 267.12 239.835 266.934 239.691 266.572C239.574 266.203 239.41 265.643 239.379 264.9C239.336 264.16 239.412 263.247 239.636 262.221C239.859 261.194 240.231 260.059 240.652 258.816C241.08 257.574 241.515 256.214 241.824 254.708C242.142 253.205 242.377 251.577 242.602 249.857C243.059 246.412 243.56 242.632 244.087 238.663C244.212 237.778 244.307 236.904 244.461 236.032C244.618 235.166 244.859 234.295 245.335 233.543C245.788 232.779 246.58 232.219 247.419 232.03C248.247 231.822 249.237 232.003 249.804 232.688L249.845 232.739L249.848 232.803C250.037 238.298 250.198 243.004 250.315 246.387C250.357 248.024 250.391 249.339 250.416 250.291C250.42 250.716 250.423 251.06 250.426 251.331C250.426 251.568 250.42 251.691 250.409 251.691Z" fill="#EB996E"/>
<path d="M244.991 233.849C244.967 233.858 244.809 233.548 244.573 232.963C244.341 232.377 244.032 231.516 243.743 230.425C243.454 229.334 243.186 228.012 243.032 226.524C242.956 225.782 242.902 224.987 242.989 224.16C243.074 223.339 243.318 222.468 243.844 221.732C244.291 221.094 244.929 220.584 245.656 220.372L245.808 220.328L245.886 220.465C247.321 222.997 248.568 225.232 249.445 226.84C249.847 227.593 250.186 228.227 250.46 228.741C250.691 229.19 250.807 229.442 250.786 229.454C250.764 229.467 250.607 229.239 250.337 228.811C250.034 228.313 249.662 227.699 249.218 226.97C248.28 225.397 246.99 223.186 245.54 220.662L245.769 220.754C245.145 220.941 244.58 221.387 244.174 221.966C243.698 222.633 243.469 223.425 243.382 224.204C243.294 224.985 243.336 225.756 243.402 226.489C243.533 227.958 243.769 229.269 244.02 230.357C244.269 231.447 244.535 232.313 244.721 232.911C244.91 233.507 245.019 233.837 244.991 233.849Z" fill="#EB996E"/>
<path d="M242.622 235.123C242.594 235.124 242.563 234.802 242.53 234.22C242.503 233.552 242.469 232.729 242.43 231.756C242.363 229.675 242.298 226.799 242.253 223.623C242.229 220.45 242.105 217.564 242.378 215.473C242.511 214.432 242.719 213.603 242.91 213.048C243.099 212.492 243.253 212.205 243.273 212.213C243.343 212.236 242.841 213.439 242.664 215.504C242.466 217.56 242.633 220.438 242.657 223.617C242.703 226.793 242.723 229.669 242.716 231.752C242.705 232.726 242.695 233.55 242.688 234.218C242.671 234.801 242.65 235.123 242.622 235.123Z" fill="#EB996E"/>
<path d="M234.241 261.231C234.184 261.184 234.804 260.454 235.571 259.13C235.959 258.472 236.354 257.651 236.725 256.713C237.077 255.769 237.395 254.704 237.608 253.561C237.808 252.414 237.883 251.306 237.883 250.298C237.863 249.29 237.781 248.382 237.647 247.63C237.392 246.122 237.066 245.221 237.136 245.196C237.163 245.187 237.261 245.404 237.418 245.81C237.583 246.212 237.762 246.817 237.928 247.577C238.1 248.336 238.214 249.261 238.255 250.291C238.276 251.322 238.21 252.459 238.005 253.632C237.787 254.804 237.45 255.892 237.07 256.85C236.673 257.801 236.242 258.627 235.815 259.278C235.394 259.932 235.014 260.436 234.72 260.755C234.432 261.08 234.262 261.249 234.241 261.231Z" fill="#EB996E"/>
<path d="M251.639 256.36L260.24 259.345C260.24 259.345 268.452 255.098 274.115 259.345C279.779 263.593 284.698 274.788 283.141 279.318C283.141 279.318 279.232 284.144 276.259 284.852C273.285 285.56 261.726 282.76 256.917 281.747C252.095 280.732 243.816 275.344 243.816 275.344L251.639 256.36Z" fill="#FFBE9D"/>
<path d="M252.696 269.032C252.668 269.032 252.637 268.761 252.605 268.27C252.571 267.688 252.529 266.997 252.482 266.193C252.391 264.438 252.272 262.011 252.236 259.326C252.196 256.641 252.272 254.204 252.435 252.449C252.511 251.571 252.607 250.862 252.695 250.377C252.783 249.891 252.845 249.626 252.873 249.631C252.936 249.641 252.803 250.718 252.72 252.469C252.632 254.22 252.601 256.642 252.641 259.321C252.69 261.947 252.734 264.321 252.768 266.184C252.778 267.063 252.776 267.776 252.762 268.268C252.746 268.76 252.724 269.032 252.696 269.032Z" fill="#EB996E"/>
<path d="M281.058 259.008C280.993 259.068 280.113 257.845 278.198 256.43C276.313 255.017 273.251 253.512 269.627 253.308C266 253.112 262.792 254.272 260.763 255.469C258.704 256.665 257.695 257.784 257.637 257.717C257.621 257.702 257.859 257.414 258.346 256.95C258.832 256.484 259.591 255.862 260.617 255.223C262.642 253.942 265.92 252.703 269.649 252.905C273.376 253.114 276.498 254.706 278.37 256.201C279.32 256.948 280.006 257.65 280.438 258.167C280.871 258.683 281.077 258.994 281.058 259.008Z" fill="#263238"/>
<path d="M279.953 251.837C279.898 251.92 278.749 250.76 276.375 249.864C274.037 248.948 270.412 248.525 266.692 249.573C264.834 250.091 263.136 250.834 261.684 251.657C260.233 252.488 259.02 253.396 258.056 254.22C257.091 255.043 256.353 255.762 255.846 256.263C255.341 256.764 255.059 257.041 255.037 257.021C255.018 257.004 255.26 256.691 255.732 256.154C256.205 255.618 256.917 254.864 257.868 254.004C258.817 253.144 260.031 252.198 261.497 251.334C262.967 250.477 264.689 249.712 266.583 249.183C270.395 248.109 274.117 248.591 276.479 249.597C277.672 250.087 278.56 250.65 279.126 251.092C279.417 251.301 279.613 251.504 279.756 251.626C279.894 251.754 279.962 251.826 279.953 251.837Z" fill="#263238"/>
<path d="M280.024 245.621C280.002 245.701 278.498 245.241 276.001 244.903C274.754 244.726 273.255 244.627 271.592 244.624C269.929 244.648 268.103 244.785 266.21 245.108C264.32 245.451 262.556 245.946 260.985 246.491C259.423 247.061 258.048 247.666 256.935 248.259C254.703 249.429 253.447 250.375 253.4 250.306C253.383 250.284 253.69 250.041 254.261 249.618C254.544 249.403 254.897 249.15 255.329 248.888C255.758 248.622 256.234 248.297 256.8 248.006C257.905 247.376 259.284 246.736 260.857 246.14C262.44 245.569 264.225 245.056 266.139 244.71C268.056 244.383 269.908 244.255 271.591 244.251C273.275 244.275 274.788 244.405 276.041 244.62C276.673 244.7 277.231 244.843 277.725 244.947C278.221 245.045 278.639 245.163 278.978 245.268C279.66 245.47 280.032 245.595 280.024 245.621Z" fill="#263238"/>
<path d="M214.127 169.558C214.127 169.558 214.526 170.302 214.723 171.845C214.934 173.378 214.905 175.673 214.397 178.517C214.141 179.939 213.796 181.501 213.285 183.168C212.751 184.837 211.942 186.543 211.026 188.334C209.174 191.906 206.843 195.802 204.143 199.956L203.827 200.441L203.826 199.86C203.823 197.115 203.818 194.234 203.813 191.241L204.115 191.386C201.803 193.252 199.369 195.218 196.861 197.241L196.924 197.149C195.243 202.476 194.136 208.409 193.697 214.585C192.987 224.039 193.56 233.08 194.006 241.283C194.388 249.497 194.638 256.893 194.894 263.104C195.141 269.315 195.365 274.34 195.552 277.811C195.654 279.53 195.733 280.873 195.789 281.806C195.818 282.248 195.841 282.592 195.858 282.844C195.871 283.079 195.868 283.199 195.868 283.199C195.868 283.199 195.844 283.081 195.816 282.848C195.79 282.597 195.754 282.253 195.708 281.813C195.621 280.901 195.51 279.555 195.395 277.821C195.16 274.352 194.892 269.328 194.609 263.117C194.331 256.902 194 249.509 193.634 241.302C193.168 233.106 192.582 224.045 193.294 214.555C193.735 208.353 194.852 202.388 196.552 197.029L196.57 196.973L196.616 196.936C199.128 194.917 201.566 192.957 203.882 191.095L204.185 190.852L204.185 191.241C204.18 194.233 204.175 197.114 204.171 199.86L203.855 199.764C209.192 191.488 213.531 184.298 214.199 178.48C214.734 175.656 214.794 173.38 214.618 171.856C214.543 171.091 214.393 170.52 214.299 170.135C214.178 169.758 214.127 169.558 214.127 169.558Z" fill="#263238"/>
<path d="M200.195 269.756L199.918 269.747C198.794 269.779 197.792 270.807 197.789 271.931C197.786 273.055 198.781 274.088 199.904 274.127C201.028 274.166 202.093 273.205 202.167 272.083C202.242 270.96 201.314 269.866 200.195 269.756Z" fill="white"/>
<path d="M200.195 239.818L199.917 239.809C198.793 239.842 197.792 240.869 197.789 241.993C197.786 243.117 198.781 244.15 199.904 244.189C201.028 244.228 202.092 243.266 202.167 242.145C202.241 241.023 201.314 239.929 200.195 239.818Z" fill="white"/>
<path d="M199.904 213.035C201.028 213.074 202.093 212.112 202.167 210.99C202.242 209.869 201.314 208.774 200.195 208.664L199.918 208.655C198.794 208.687 197.792 209.714 197.789 210.838C197.785 211.962 198.781 212.996 199.904 213.035Z" fill="white"/>
<path d="M166.369 134.479C163.646 131.464 160.899 128.416 158.913 124.871C156.929 121.326 155.744 117.189 156.401 113.179C156.786 110.835 157.781 108.602 157.94 106.231C158.158 102.969 156.786 99.5601 157.943 96.5027C159.751 91.7241 166.184 90.9854 170.084 87.6842C173.121 85.1131 174.601 80.9388 177.942 78.777C180.861 76.888 184.611 76.9291 188.053 77.4162C191.495 77.9032 194.959 78.7716 198.405 78.3087C200.861 77.9785 203.174 76.985 205.58 76.3893C207.986 75.7935 210.67 75.6366 212.813 76.8817C214.957 78.1269 216.159 81.1687 214.754 83.2108C218.747 81.3699 223.819 84.4816 224.912 88.7406C226.004 92.9996 223.816 97.6003 220.434 100.409C217.051 103.217 212.674 104.524 208.354 105.338C196.122 107.644 182.852 106.344 172.311 99.7232" fill="#263238"/>
<path d="M209.373 175.604C208.776 170.974 208.287 167.11 208.257 166.63C208.257 166.63 223.732 163.153 222.879 147.507C222.466 139.945 220.35 124.44 218.273 110.435C216.042 95.3944 202.617 84.5974 187.445 85.6126L185.937 85.7136C169.734 87.7518 162.414 102.651 164.9 118.79L173.642 172.908C173.642 172.908 177.373 184.88 185.352 186.952L195.423 201.338L197.087 195.145L204.594 188.61C204.594 188.61 206.316 186.746 208.294 183.101C209.911 180.122 209.571 177.058 209.373 175.604Z" fill="#FFBE9D"/>
<path d="M208.268 166.404C208.268 166.404 198.441 167.869 187.498 161.975C187.498 161.975 193.069 172.904 208.575 170.452L208.268 166.404Z" fill="#EB996E"/>
<path d="M213.245 123.879C213.366 125.055 212.469 126.127 211.243 126.275C210.019 126.423 208.928 125.593 208.807 124.416C208.687 123.24 209.583 122.166 210.807 122.018C212.032 121.87 213.124 122.703 213.245 123.879Z" fill="#263238"/>
<path d="M215.428 118.332C215.17 118.641 213.396 117.503 210.992 117.67C208.59 117.802 206.91 119.156 206.63 118.88C206.493 118.758 206.739 118.213 207.47 117.604C208.188 116.997 209.441 116.369 210.938 116.275C212.435 116.184 213.73 116.65 214.492 117.165C215.27 117.683 215.555 118.192 215.428 118.332Z" fill="#263238"/>
<path d="M190.548 125.502C190.668 126.678 189.772 127.75 188.546 127.898C187.323 128.046 186.231 127.215 186.11 126.039C185.99 124.863 186.886 123.79 188.111 123.641C189.336 123.493 190.428 124.326 190.548 125.502Z" fill="#263238"/>
<path d="M191.841 120.36C191.583 120.669 189.806 119.531 187.406 119.698C185.004 119.831 183.323 121.184 183.044 120.907C182.907 120.785 183.151 120.241 183.885 119.631C184.603 119.023 185.856 118.396 187.352 118.302C188.849 118.21 190.145 118.677 190.907 119.192C191.681 119.711 191.969 120.22 191.841 120.36Z" fill="#263238"/>
<path d="M201.753 137.594C201.732 137.458 203.208 137.1 205.608 136.63C206.217 136.526 206.79 136.365 206.865 135.939C206.98 135.486 206.68 134.842 206.334 134.148C205.658 132.702 204.95 131.186 204.207 129.598C201.243 123.115 199.053 117.768 199.315 117.651C199.578 117.534 202.193 122.693 205.157 129.177C205.873 130.776 206.558 132.301 207.209 133.76C207.487 134.442 207.94 135.206 207.689 136.146C207.554 136.616 207.126 136.979 206.74 137.111C206.355 137.257 206.01 137.288 205.708 137.326C203.281 137.618 201.771 137.73 201.753 137.594Z" fill="#263238"/>
<path d="M191.832 110.903C191.638 111.572 189.219 111.423 186.423 111.952C183.616 112.424 181.398 113.401 180.985 112.84C180.8 112.571 181.155 111.93 182.031 111.236C182.9 110.544 184.314 109.847 185.993 109.545C187.672 109.247 189.24 109.412 190.295 109.761C191.358 110.108 191.913 110.586 191.832 110.903Z" fill="#263238"/>
<path d="M214.079 111.438C213.693 112.012 211.999 111.556 210.008 111.662C208.012 111.699 206.357 112.275 205.93 111.73C205.742 111.464 205.97 110.899 206.672 110.334C207.363 109.771 208.549 109.269 209.92 109.218C211.29 109.17 212.508 109.586 213.238 110.099C213.978 110.613 214.247 111.159 214.079 111.438Z" fill="#263238"/>
<path d="M166.951 130.281C166.677 130.183 155.996 127.823 157.053 138.488C158.109 149.154 169.668 145.677 169.656 145.37C169.644 145.061 166.951 130.281 166.951 130.281Z" fill="#FFBE9D"/>
<path d="M164.929 141.867C164.879 141.838 164.756 142.016 164.456 142.191C164.164 142.361 163.647 142.51 163.071 142.357C161.903 142.055 160.777 140.36 160.534 138.443C160.411 137.475 160.524 136.531 160.792 135.732C161.04 134.919 161.491 134.324 162.048 134.167C162.6 133.981 163.035 134.281 163.195 134.568C163.367 134.852 163.321 135.071 163.379 135.085C163.412 135.109 163.59 134.883 163.461 134.452C163.395 134.244 163.245 134.005 162.975 133.825C162.699 133.641 162.312 133.573 161.92 133.655C161.104 133.793 160.438 134.623 160.143 135.5C159.804 136.386 159.654 137.45 159.793 138.536C160.075 140.679 161.374 142.581 162.96 142.874C163.73 142.995 164.334 142.708 164.632 142.423C164.936 142.127 164.968 141.883 164.929 141.867Z" fill="#EB996E"/>
<path d="M217.487 95.8619C216.755 100.108 208.143 103.998 201.004 103.79C194.423 103.598 191.171 100.332 186.389 98.0112C183.362 96.5424 183.362 96.5424 179.254 97.2096C175.933 97.7495 174.209 101.668 172.345 104.468C175.897 112.212 174.461 121.216 172.955 129.601C172.789 130.528 172.582 131.529 171.876 132.151C170.677 133.208 168.734 132.575 167.554 131.495C165.666 129.767 164.806 127.204 164.188 124.72C162.778 119.062 162.237 113.138 163.132 107.376C164.026 101.615 166.41 96.0173 170.347 91.7164C175.267 86.3412 182.458 83.2427 189.736 82.8683C197.012 82.4946 204.321 84.7465 210.417 88.7398C213.245 90.5924 215.889 92.8831 217.487 95.8619Z" fill="#263238"/>
<path d="M203.323 142.997C201.511 142.152 199.699 141.307 197.887 140.462C197.574 140.316 197.24 140.167 196.898 140.213C196.512 140.264 196.204 140.552 195.957 140.852C194.696 142.379 194.378 144.685 195.354 146.407C196.331 148.13 198.626 149.041 200.456 148.283C202.383 147.486 203.319 145.248 203.47 143.168L203.323 142.997Z" fill="#EB996E"/>
<path d="M200.626 148.667C200.642 148.714 200.375 148.87 199.831 148.984C199.292 149.087 198.457 149.128 197.492 148.811C196.537 148.505 195.458 147.761 194.792 146.568C194.114 145.405 193.869 143.763 194.461 142.28C194.744 141.544 195.185 140.893 195.723 140.379C195.995 140.119 196.278 139.906 196.604 139.712C196.774 139.618 196.987 139.525 197.231 139.513C197.471 139.5 197.686 139.561 197.862 139.635C198.217 139.793 198.447 139.964 198.709 140.116C198.962 140.271 199.21 140.423 199.45 140.571C199.919 140.864 200.361 141.14 200.774 141.399C202.386 142.423 203.355 143.104 203.299 143.2C203.243 143.296 202.172 142.79 200.486 141.894C200.058 141.662 199.599 141.414 199.113 141.151C198.866 141.014 198.612 140.875 198.352 140.731C198.092 140.592 197.81 140.415 197.584 140.326C197.336 140.24 197.228 140.246 196.989 140.383C196.752 140.533 196.494 140.73 196.274 140.949C195.827 141.391 195.456 141.946 195.217 142.57C194.719 143.822 194.898 145.182 195.447 146.211C195.989 147.255 196.865 147.934 197.693 148.276C198.527 148.623 199.284 148.675 199.798 148.671C200.316 148.658 200.609 148.608 200.626 148.667Z" fill="#263238"/>
<path d="M198.911 124.147C198.848 124.152 198.92 123.154 198.486 121.446C198.058 119.772 196.942 117.311 194.425 115.407C193.179 114.477 191.608 113.687 189.797 113.371C187.999 113.066 185.971 113.125 184.042 113.861C183.071 114.2 182.134 114.71 181.273 115.355C180.402 115.987 179.613 116.772 178.962 117.68C177.615 119.472 176.857 121.773 176.836 124.145C176.857 126.518 177.615 128.821 178.961 130.613C179.612 131.522 180.402 132.307 181.272 132.939C182.133 133.584 183.07 134.095 184.041 134.434C185.97 135.17 187.999 135.229 189.797 134.924C191.607 134.607 193.177 133.818 194.425 132.887C196.941 130.983 198.058 128.521 198.486 126.848C198.92 125.14 198.848 124.142 198.911 124.147C198.918 124.147 198.922 124.208 198.923 124.328C198.921 124.472 198.919 124.646 198.916 124.859C198.917 125.094 198.904 125.383 198.847 125.722C198.802 126.061 198.76 126.456 198.639 126.885C198.457 127.757 198.065 128.792 197.434 129.892C196.798 130.987 195.871 132.135 194.599 133.114C193.331 134.083 191.722 134.911 189.859 135.253C188.009 135.582 185.914 135.534 183.914 134.784C182.908 134.438 181.936 133.914 181.043 133.25C180.139 132.598 179.319 131.788 178.642 130.847C177.243 128.995 176.452 126.605 176.431 124.145C176.453 121.687 177.244 119.298 178.642 117.446C179.32 116.506 180.14 115.696 181.043 115.044C181.937 114.38 182.908 113.856 183.914 113.51C185.914 112.76 188.009 112.711 189.859 113.041C191.722 113.382 193.33 114.21 194.599 115.179C195.871 116.157 196.798 117.305 197.434 118.401C198.065 119.5 198.457 120.535 198.639 121.407C198.76 121.837 198.803 122.231 198.848 122.571C198.905 122.91 198.917 123.199 198.917 123.433C198.92 123.646 198.921 123.821 198.924 123.964C198.922 124.086 198.918 124.147 198.911 124.147Z" fill="#263238"/>
<path d="M225.512 123.102C225.45 123.108 225.518 122.134 225.096 120.471C224.679 118.841 223.591 116.443 221.139 114.589C219.924 113.683 218.395 112.914 216.631 112.606C214.88 112.309 212.904 112.367 211.025 113.084C210.079 113.413 209.167 113.911 208.329 114.538C207.482 115.154 206.712 115.919 206.078 116.803C204.767 118.548 204.029 120.79 204.007 123.1C204.028 125.411 204.766 127.653 206.077 129.399C206.711 130.284 207.481 131.049 208.329 131.664C209.167 132.293 210.079 132.79 211.025 133.12C212.905 133.837 214.881 133.895 216.632 133.598C218.395 133.289 219.926 132.52 221.14 131.615C223.592 129.76 224.679 127.363 225.097 125.732C225.519 124.069 225.45 123.097 225.512 123.102C225.526 123.102 225.528 123.341 225.517 123.797C225.518 124.025 225.507 124.307 225.451 124.637C225.408 124.968 225.367 125.353 225.249 125.771C224.872 127.436 223.807 129.908 221.312 131.843C220.076 132.788 218.509 133.596 216.693 133.929C214.889 134.25 212.848 134.204 210.897 133.472C209.916 133.135 208.969 132.624 208.098 131.977C207.217 131.341 206.417 130.551 205.757 129.635C204.393 127.829 203.622 125.499 203.602 123.101C203.623 120.704 204.394 118.376 205.757 116.57C206.418 115.654 207.218 114.865 208.098 114.229C208.969 113.582 209.915 113.071 210.896 112.734C212.846 112.002 214.888 111.956 216.691 112.277C218.507 112.609 220.076 113.417 221.311 114.361C223.806 116.295 224.87 118.768 225.247 120.433C225.365 120.853 225.406 121.236 225.45 121.568C225.505 121.898 225.517 122.18 225.516 122.409C225.528 122.864 225.526 123.102 225.512 123.102Z" fill="#263238"/>
<path d="M203.805 120.645C203.761 120.69 203.504 120.474 203.032 120.25C202.564 120.026 201.863 119.807 201.075 119.821C200.287 119.832 199.595 120.077 199.136 120.318C198.673 120.56 198.426 120.787 198.38 120.745C198.343 120.714 198.523 120.404 198.986 120.074C199.442 119.748 200.194 119.429 201.068 119.417C201.941 119.402 202.703 119.693 203.17 120.001C203.647 120.311 203.841 120.613 203.805 120.645Z" fill="#263238"/>
<path d="M177.307 122.565C177.373 122.654 175.194 124.395 172.439 126.451C169.683 128.508 167.395 130.103 167.328 130.013C167.261 129.924 169.44 128.184 172.196 126.126C174.952 124.07 177.24 122.475 177.307 122.565Z" fill="#263238"/>
<g opacity="0.3">
<path d="M168.115 173.12C167.034 183.662 171.042 194.789 179.497 201.178C180.161 201.679 180.993 202.176 181.776 201.893C182.319 201.697 182.667 201.176 182.955 200.676C185.365 196.503 186.174 191.899 185.475 187.131C184.136 190.656 182.987 194.117 181.636 197.805C174.269 193.332 169.678 183.82 168.115 173.12Z" fill="black"/>
</g>
<path opacity="0.3" d="M196.738 197.089L202.941 194.823L203.969 205.316C203.969 205.316 210.664 193.114 213.435 187.547C216.205 181.98 214.78 172.155 214.78 172.155C214.78 172.155 215.771 180.712 209.062 191.629L203.999 199.859V191.24L196.738 197.089Z" fill="black"/>
<g opacity="0.3">
<path d="M124.564 250.421C121.798 249.114 118.614 248.939 115.575 249.293C112.365 249.666 109.143 250.649 106.627 252.679C104.112 254.708 102.406 257.906 102.72 261.123L103.031 261.167C105.195 255.308 109.501 251.044 115.054 250.529C120.607 250.013 126.025 252.484 129.836 256.555C129.466 253.517 127.331 251.727 124.564 250.421Z" fill="black"/>
</g>
<g opacity="0.3">
<path d="M281.459 256.411C279.38 254.167 276.459 252.808 273.446 252.282C268.154 251.36 262.475 253.003 258.495 256.611L259.679 255.65C262.686 253.89 266.153 252.846 269.635 252.945C273.118 253.044 276.603 254.332 279.125 256.736C281.445 258.946 282.839 261.93 284.168 264.844C284.687 261.83 283.537 258.655 281.459 256.411Z" fill="black"/>
</g>
<path d="M241.464 207.677C241.438 207.666 241.539 207.365 241.742 206.829C241.982 206.215 242.277 205.461 242.624 204.571C243.376 202.668 244.407 200.037 245.495 197.112C246.583 194.186 247.523 191.521 248.198 189.589C248.516 188.688 248.786 187.925 249.006 187.304C249.201 186.766 249.323 186.472 249.349 186.481C249.375 186.489 249.305 186.798 249.156 187.352C249.006 187.906 248.773 188.701 248.469 189.679C247.863 191.637 246.964 194.322 245.874 197.253C244.784 200.183 243.709 202.803 242.889 204.681C242.478 205.62 242.136 206.375 241.887 206.892C241.64 207.407 241.49 207.688 241.464 207.677Z" fill="#263238"/>
<path d="M143.537 208.439C143.428 208.461 142.584 204.765 141.652 200.183C140.72 195.601 140.054 191.869 140.163 191.846C140.273 191.824 141.117 195.52 142.048 200.103C142.98 204.684 143.647 208.417 143.537 208.439Z" fill="#263238"/>
<path d="M142.072 254.645C142.317 254.77 139.226 230.44 139.226 230.44C139.226 230.44 141.177 211.977 142.274 211.123L142.302 204.609C142.302 204.609 145.321 202.779 146.132 205.733C146.132 205.733 148.81 203.408 149.277 208.942C149.745 214.477 149.843 220.132 149.843 220.132L155.803 235.034L156.784 235.53C156.784 235.53 158.064 223.856 158.809 222.138C159.554 220.42 160.064 216.242 162.889 216.869C165.714 217.496 165.95 219.833 165.442 223.642C164.934 227.451 164.301 231.382 164.537 233.842C164.772 236.302 165.89 241.716 165.547 246.018C165.203 250.32 162.848 254.858 160.375 258.044C157.902 261.229 153.179 267.818 150.612 269.804C149.715 270.497 142.072 254.645 142.072 254.645Z" fill="#FFBE9D"/>
<path d="M145.08 234.847C145.052 234.845 145.059 234.474 145.097 233.806C145.148 233.058 145.213 232.111 145.291 230.979C145.473 228.594 145.752 225.302 146.085 221.669C146.256 219.856 146.42 218.131 146.57 216.547C146.648 215.764 146.697 215.023 146.597 214.351C146.503 213.677 146.239 213.093 145.855 212.671C145.068 211.819 144.056 211.603 143.422 211.603C142.765 211.599 142.421 211.777 142.408 211.733C142.402 211.72 142.485 211.677 142.649 211.606C142.817 211.545 143.073 211.465 143.417 211.446C144.082 211.398 145.171 211.569 146.064 212.476C146.503 212.926 146.816 213.579 146.928 214.298C147.05 215.019 147.008 215.792 146.942 216.58C146.802 218.164 146.649 219.891 146.488 221.705C146.155 225.339 145.831 228.627 145.577 231.005C145.448 232.132 145.34 233.076 145.254 233.82C145.169 234.484 145.108 234.85 145.08 234.847Z" fill="#EB996E"/>
<path d="M148.284 224.897C148.342 224.946 147.678 225.53 147.229 226.818C146.749 228.086 146.576 229.992 146.238 232.069C145.918 234.15 145.605 236.029 145.358 237.386C145.112 238.743 144.932 239.579 144.877 239.571C144.822 239.562 144.902 238.712 145.076 237.343C145.25 235.974 145.518 234.088 145.838 232.008C146.175 229.941 146.392 228.019 146.962 226.714C147.232 226.064 147.561 225.587 147.824 225.295C148.084 224.999 148.27 224.882 148.284 224.897Z" fill="#EB996E"/>
<path d="M146.094 205.413C146.121 205.408 146.194 205.681 146.301 206.178C146.41 206.675 146.545 207.399 146.694 208.297C146.99 210.092 147.316 212.587 147.522 215.357C147.725 218.128 147.77 220.644 147.74 222.463C147.725 223.373 147.699 224.109 147.664 224.617C147.63 225.125 147.599 225.405 147.571 225.404C147.511 225.403 147.498 224.279 147.454 222.465C147.41 220.651 147.32 218.147 147.118 215.387C146.913 212.628 146.635 210.138 146.41 208.337C146.186 206.537 146.035 205.423 146.094 205.413Z" fill="#EB996E"/>
<path d="M163.285 228.222C163.344 228.314 162.414 228.747 161.277 228.392C160.137 228.052 159.607 227.174 159.707 227.131C159.796 227.053 160.393 227.713 161.395 228.005C162.39 228.322 163.253 228.108 163.285 228.222Z" fill="#EB996E"/>
<path d="M142.407 251.62L126.662 258.236H117.283C117.283 258.236 108.005 261.131 106.578 269.829C105.15 278.526 104.946 283.002 109.024 284.078C113.102 285.153 124.624 285.272 130.333 283.378C136.043 281.483 150.999 269.415 150.999 269.415L152.441 260.684L142.407 251.62Z" fill="#FFBE9D"/>
<path d="M146.094 261.231C146.074 261.25 145.916 261.104 145.647 260.821C145.367 260.546 145.023 260.095 144.624 259.519C143.846 258.357 142.994 256.595 142.425 254.54C141.837 252.489 141.586 250.572 141.455 249.189C141.336 247.804 141.343 246.943 141.394 246.94C141.454 246.936 141.548 247.788 141.739 249.157C141.941 250.521 142.234 252.411 142.814 254.429C143.374 256.452 144.164 258.189 144.865 259.366C145.574 260.543 146.15 261.181 146.094 261.231Z" fill="#EB996E"/>
<path d="M152.948 263.992C152.863 263.961 153.572 262.764 153.845 260.617C153.975 259.551 153.964 258.253 153.659 256.868C153.358 255.48 152.694 254.05 151.73 252.716C150.773 251.375 149.698 250.208 148.792 249.079C147.876 247.956 147.144 246.857 146.664 245.862C146.18 244.867 145.957 243.988 145.874 243.378C145.795 242.766 145.827 242.425 145.847 242.425C145.926 242.407 145.899 243.813 146.918 245.733C147.419 246.687 148.157 247.745 149.079 248.843C149.993 249.949 151.08 251.111 152.059 252.482C153.045 253.844 153.733 255.349 154.023 256.789C154.318 258.228 154.298 259.566 154.127 260.656C153.957 261.749 153.656 262.597 153.406 263.157C153.285 263.441 153.17 263.649 153.088 263.789C153.008 263.928 152.96 263.998 152.948 263.992Z" fill="#EB996E"/>
<path d="M128.677 226.083C128.577 226.134 126.86 223.009 124.84 219.103C122.82 215.196 121.263 211.988 121.363 211.937C121.462 211.885 123.18 215.01 125.199 218.917C127.22 222.823 128.776 226.032 128.677 226.083Z" fill="white"/>
<path d="M154.138 197.739C154.037 197.693 155.099 195.088 156.51 191.919C157.922 188.75 159.149 186.218 159.251 186.264C159.353 186.31 158.292 188.915 156.88 192.084C155.468 195.253 154.241 197.784 154.138 197.739Z" fill="white"/>
<path d="M179.072 216.134C178.985 216.206 177.388 214.418 175.504 212.142C173.619 209.865 172.162 207.962 172.247 207.891C172.333 207.819 173.93 209.607 175.815 211.884C177.7 214.16 179.158 216.064 179.072 216.134Z" fill="white"/>
<path d="M173.335 241.435C173.245 241.37 174.449 239.555 176.024 237.383C177.6 235.211 178.95 233.503 179.041 233.569C179.131 233.634 177.927 235.448 176.351 237.621C174.776 239.793 173.426 241.5 173.335 241.435Z" fill="white"/>
<path d="M165.614 277.171C165.565 277.195 165.212 276.601 164.702 275.61C164.192 274.619 163.531 273.228 162.865 271.663C162.2 270.097 161.657 268.655 161.298 267.6C160.939 266.545 160.757 265.879 160.808 265.861C160.862 265.842 161.139 266.473 161.566 267.499C162.054 268.667 162.616 270.016 163.238 271.505C163.878 272.985 164.458 274.327 164.961 275.488C165.403 276.508 165.665 277.146 165.614 277.171Z" fill="white"/>
<path d="M187.552 261.979C187.531 262.088 185.419 261.772 182.836 261.272C180.253 260.772 178.175 260.278 178.196 260.168C178.217 260.059 180.329 260.375 182.913 260.875C185.496 261.375 187.573 261.869 187.552 261.979Z" fill="white"/>
<path d="M204.564 228.587C204.482 228.511 206.496 226.207 209.061 223.44C211.626 220.673 213.772 218.492 213.854 218.569C213.936 218.645 211.923 220.949 209.357 223.715C206.792 226.482 204.645 228.663 204.564 228.587Z" fill="white"/>
<path d="M221.68 273.121C221.594 273.192 219.082 270.285 216.07 266.629C213.057 262.972 210.686 259.951 210.772 259.879C210.858 259.808 213.37 262.714 216.383 266.371C219.394 270.028 221.766 273.05 221.68 273.121Z" fill="white"/>
<path d="M115.431 254.14C115.488 254.251 113.193 255.415 110.692 257.334C108.18 259.239 106.451 261.145 106.359 261.06C106.32 261.026 106.704 260.505 107.415 259.741C108.126 258.977 109.179 257.982 110.447 257.012C111.716 256.045 112.954 255.293 113.879 254.81C114.805 254.326 115.408 254.094 115.431 254.14Z" fill="white"/>
<path d="M121.831 236.976C121.924 237.038 121.107 238.43 120.007 240.085C118.906 241.74 117.938 243.032 117.845 242.97C117.752 242.908 118.569 241.516 119.669 239.86C120.77 238.206 121.738 236.914 121.831 236.976Z" fill="white"/>
<path d="M136.251 253.831C136.162 253.883 135.353 252.525 134.93 250.64C134.497 248.758 134.639 247.183 134.741 247.192C134.862 247.192 134.902 248.726 135.324 250.551C135.732 252.379 136.359 253.779 136.251 253.831Z" fill="white"/>
<path d="M138.388 200.295C138.404 200.406 137.064 200.688 135.396 200.925C133.727 201.162 132.362 201.265 132.346 201.154C132.331 201.044 133.67 200.762 135.339 200.524C137.007 200.287 138.372 200.185 138.388 200.295Z" fill="white"/>
<path d="M149.219 181.09C149.273 181.188 148.1 181.941 146.599 182.773C145.098 183.605 143.838 184.2 143.784 184.102C143.729 184.004 144.902 183.251 146.404 182.419C147.904 181.587 149.164 180.992 149.219 181.09Z" fill="white"/>
<path d="M179.674 189.202C179.585 189.27 178.243 187.658 176.678 185.602C175.112 183.545 173.914 181.824 174.003 181.756C174.092 181.689 175.433 183.3 177 185.357C178.565 187.413 179.763 189.135 179.674 189.202Z" fill="white"/>
<path d="M218.336 208.517C218.26 208.587 216.848 207.134 215.538 205.019C214.22 202.908 213.54 201 213.636 200.963C213.746 200.916 214.582 202.727 215.882 204.805C217.17 206.888 218.426 208.439 218.336 208.517Z" fill="white"/>
<path d="M233.09 213.381C233.192 213.426 232.475 215.226 231.489 217.399C230.503 219.572 229.621 221.296 229.52 221.25C229.418 221.204 230.135 219.405 231.121 217.232C232.107 215.059 232.989 213.335 233.09 213.381Z" fill="white"/>
<path d="M235.154 193.239C235.067 193.311 233.31 191.341 231.229 188.84C229.148 186.338 227.53 184.252 227.616 184.181C227.702 184.109 229.458 186.079 231.541 188.581C233.622 191.082 235.24 193.168 235.154 193.239Z" fill="white"/>
<path d="M212.616 176.878C212.504 176.883 212.347 175.197 212.265 173.114C212.183 171.03 212.207 169.338 212.319 169.334C212.431 169.329 212.587 171.014 212.67 173.098C212.751 175.181 212.727 176.874 212.616 176.878Z" fill="white"/>
<path d="M230.991 175.859C231.006 175.97 228.858 176.348 226.195 176.704C223.531 177.061 221.36 177.26 221.345 177.149C221.33 177.037 223.477 176.659 226.142 176.303C228.805 175.947 230.976 175.748 230.991 175.859Z" fill="white"/>
<path d="M259.934 197.118C259.834 197.167 258.541 194.704 257.048 191.618C255.555 188.531 254.426 185.99 254.526 185.941C254.627 185.892 255.919 188.354 257.412 191.442C258.905 194.529 260.034 197.07 259.934 197.118Z" fill="white"/>
<path d="M255.061 215.489C254.951 215.467 255.254 213.487 255.737 211.067C256.22 208.647 256.701 206.704 256.811 206.725C256.92 206.747 256.617 208.726 256.134 211.147C255.651 213.566 255.17 215.51 255.061 215.489Z" fill="white"/>
<path d="M268.486 229.971C268.38 230.008 267.349 227.335 266.183 224.002C265.016 220.668 264.155 217.936 264.261 217.9C264.367 217.863 265.397 220.535 266.565 223.869C267.731 227.202 268.591 229.933 268.486 229.971Z" fill="white"/>
<path d="M266.616 238.441C266.596 238.54 264.734 238.152 262.692 237.038C260.643 235.935 259.301 234.588 259.373 234.517C259.453 234.424 260.884 235.607 262.885 236.682C264.878 237.771 266.651 238.324 266.616 238.441Z" fill="white"/>
<path d="M283.813 257.756C283.711 257.802 283.087 256.622 282.42 255.123C281.753 253.623 281.294 252.371 281.396 252.325C281.498 252.279 282.122 253.458 282.789 254.958C283.456 256.458 283.914 257.711 283.813 257.756Z" fill="white"/>
<path d="M182.244 284.692C182.133 284.705 181.863 283.165 181.641 281.253C181.419 279.34 181.328 277.78 181.439 277.767C181.55 277.754 181.82 279.294 182.042 281.207C182.265 283.118 182.355 284.68 182.244 284.692Z" fill="white"/>
<path d="M235.009 283.359C234.9 283.336 235.127 281.83 235.517 279.996C235.907 278.161 236.312 276.693 236.421 276.716C236.531 276.74 236.303 278.245 235.912 280.08C235.522 281.914 235.118 283.382 235.009 283.359Z" fill="white"/>
<path d="M259.97 125.498L259.653 125.815L259.56 125.42L246.125 128.585L252.383 117.557L252.529 117.299L252.374 117.048C249.403 112.225 247.685 106.547 247.685 100.467C247.685 82.9797 261.861 68.804 279.347 68.804C296.834 68.804 311.009 82.9797 311.009 100.467C311.009 117.953 296.833 132.128 279.347 132.128C272.045 132.128 265.327 129.65 259.97 125.498Z" fill="white" stroke="#645CAA"/>
<path d="M288.032 99.1244C288.032 100.86 289.439 102.267 291.175 102.267C292.911 102.267 294.319 100.86 294.319 99.1244C294.319 97.3883 292.912 95.9816 291.175 95.9816C289.439 95.9816 288.032 97.3883 288.032 99.1244Z" fill="#263238"/>
<path d="M275.453 99.1244C275.453 100.86 276.861 102.267 278.596 102.267C280.332 102.267 281.74 100.86 281.74 99.1244C281.74 97.3883 280.333 95.9816 278.596 95.9816C276.861 95.9816 275.453 97.3883 275.453 99.1244Z" fill="#263238"/>
<path d="M262.908 97.553C262.04 99.056 262.555 100.978 264.058 101.847C265.562 102.715 267.484 102.2 268.352 100.697C269.22 99.1935 268.705 97.271 267.202 96.4034C265.698 95.5342 263.776 96.0491 262.908 97.553Z" fill="#263238"/>
<path d="M321.231 28V33.9027" stroke="#645CAA" stroke-width="2.66667" stroke-miterlimit="10" stroke-linecap="round" stroke-linejoin="round"/>
<path d="M321.231 40.5589V46.4615" stroke="#645CAA" stroke-width="2.66667" stroke-miterlimit="10" stroke-linecap="round" stroke-linejoin="round"/>
<path d="M312 37.2313H317.904" stroke="#645CAA" stroke-width="2.66667" stroke-miterlimit="10" stroke-linecap="round" stroke-linejoin="round"/>
<path d="M324.559 37.2313H330.463" stroke="#645CAA" stroke-width="2.66667" stroke-miterlimit="10" stroke-linecap="round" stroke-linejoin="round"/>
<path d="M86.2319 365V370.903" stroke="#645CAA" stroke-width="2.66667" stroke-miterlimit="10" stroke-linecap="round" stroke-linejoin="round"/>
<path d="M86.2319 377.559V383.461" stroke="#645CAA" stroke-width="2.66667" stroke-miterlimit="10" stroke-linecap="round" stroke-linejoin="round"/>
<path d="M77 374.231H82.904" stroke="#645CAA" stroke-width="2.66667" stroke-miterlimit="10" stroke-linecap="round" stroke-linejoin="round"/>
<path d="M89.5601 374.231H95.4627" stroke="#645CAA" stroke-width="2.66667" stroke-miterlimit="10" stroke-linecap="round" stroke-linejoin="round"/>
</svg>
