<svg width="240" height="48" viewBox="0 0 240 48" fill="none" xmlns="http://www.w3.org/2000/svg">
<path d="M26.8567 19.4405H22.2928C22.1626 18.6921 21.9227 18.0291 21.5728 17.4514C21.223 16.8657 20.7878 16.3694 20.2671 15.9627C19.7464 15.5559 19.1526 15.2508 18.4855 15.0475C17.8265 14.8359 17.1147 14.7302 16.3499 14.7302C14.9913 14.7302 13.7873 15.0719 12.7379 15.7552C11.6884 16.4305 10.8667 17.423 10.2729 18.7328C9.67898 20.0344 9.38204 21.6249 9.38204 23.5041C9.38204 25.4159 9.67898 27.0267 10.2729 28.3365C10.8749 29.6382 11.6965 30.6225 12.7379 31.2896C13.7873 31.9486 14.9873 32.2781 16.3377 32.2781C17.0862 32.2781 17.7858 32.1805 18.4367 31.9852C19.0956 31.7818 19.6854 31.4849 20.2061 31.0944C20.7349 30.7039 21.1783 30.2239 21.5362 29.6544C21.9023 29.085 22.1545 28.4341 22.2928 27.702L26.8567 27.7264C26.6859 28.9141 26.3157 30.0287 25.7463 31.07C25.1849 32.1113 24.4487 33.0306 23.5375 33.8279C22.6264 34.617 21.5606 35.2353 20.3403 35.6827C19.12 36.122 17.7655 36.3417 16.2767 36.3417C14.0802 36.3417 12.1196 35.8332 10.3949 34.8163C8.6702 33.7994 7.3116 32.331 6.31909 30.411C5.32658 28.4911 4.83032 26.1888 4.83032 23.5041C4.83032 20.8113 5.33065 18.509 6.33129 16.5972C7.33194 14.6773 8.6946 13.2089 10.4193 12.192C12.144 11.175 14.0965 10.6666 16.2767 10.6666C17.6679 10.6666 18.9614 10.8618 20.1573 11.2523C21.3532 11.6428 22.4189 12.2164 23.3545 12.9729C24.29 13.7214 25.0588 14.6407 25.6608 15.7308C26.271 16.8128 26.6696 18.0494 26.8567 19.4405Z" fill="#645CAA"/>
<path d="M38.9835 36.3661C37.153 36.3661 35.5666 35.9634 34.2243 35.158C32.882 34.3526 31.8406 33.2259 31.1003 31.7778C30.3681 30.3297 30.002 28.6375 30.002 26.7013C30.002 24.7651 30.3681 23.0689 31.1003 21.6127C31.8406 20.1564 32.882 19.0256 34.2243 18.2202C35.5666 17.4148 37.153 17.0121 38.9835 17.0121C40.8139 17.0121 42.4003 17.4148 43.7426 18.2202C45.085 19.0256 46.1222 20.1564 46.8544 21.6127C47.5947 23.0689 47.9649 24.7651 47.9649 26.7013C47.9649 28.6375 47.5947 30.3297 46.8544 31.7778C46.1222 33.2259 45.085 34.3526 43.7426 35.158C42.4003 35.9634 40.8139 36.3661 38.9835 36.3661ZM39.0079 32.8272C40.0004 32.8272 40.8302 32.5547 41.4973 32.0096C42.1644 31.4564 42.6606 30.7161 42.986 29.7887C43.3196 28.8612 43.4864 27.8281 43.4864 26.6891C43.4864 25.542 43.3196 24.5048 42.986 23.5774C42.6606 22.6418 42.1644 21.8974 41.4973 21.3442C40.8302 20.791 40.0004 20.5144 39.0079 20.5144C37.9909 20.5144 37.1449 20.791 36.4696 21.3442C35.8025 21.8974 35.3022 22.6418 34.9687 23.5774C34.6433 24.5048 34.4805 25.542 34.4805 26.6891C34.4805 27.8281 34.6433 28.8612 34.9687 29.7887C35.3022 30.7161 35.8025 31.4564 36.4696 32.0096C37.1449 32.5547 37.9909 32.8272 39.0079 32.8272Z" fill="#645CAA"/>
<path d="M58.6699 36.3295C57.1974 36.3295 55.8795 35.9512 54.7162 35.1946C53.5528 34.438 52.6335 33.3397 51.9583 31.8998C51.2831 30.4598 50.9454 28.7107 50.9454 26.6525C50.9454 24.5699 51.2871 22.8126 51.9705 21.3808C52.662 19.9409 53.5935 18.8548 54.765 18.1226C55.9365 17.3823 57.2422 17.0121 58.6821 17.0121C59.7804 17.0121 60.6834 17.1993 61.3912 17.5735C62.099 17.9396 62.6603 18.3829 63.0752 18.9036C63.4901 19.4161 63.8115 19.9002 64.0392 20.3558H64.2223V11.0083H68.652V36H64.3077V33.0469H64.0392C63.8115 33.5025 63.482 33.9865 63.0508 34.499C62.6196 35.0034 62.0502 35.4346 61.3424 35.7925C60.6346 36.1505 59.7438 36.3295 58.6699 36.3295ZM59.9024 32.7052C60.838 32.7052 61.6353 32.453 62.2942 31.9486C62.9532 31.4361 63.4535 30.7242 63.7952 29.8131C64.1369 28.9019 64.3077 27.8403 64.3077 26.6281C64.3077 25.4159 64.1369 24.3624 63.7952 23.4675C63.4616 22.5726 62.9654 21.8771 62.3064 21.3808C61.6556 20.8846 60.8543 20.6364 59.9024 20.6364C58.9181 20.6364 58.0964 20.8927 57.4374 21.4052C56.7785 21.9177 56.2822 22.6255 55.9487 23.5285C55.6151 24.4316 55.4483 25.4647 55.4483 26.6281C55.4483 27.7996 55.6151 28.845 55.9487 29.7643C56.2903 30.6754 56.7907 31.3954 57.4496 31.9242C58.1167 32.4449 58.9343 32.7052 59.9024 32.7052Z" fill="#645CAA"/>
<path d="M73.3593 36V17.2562H77.7768V36H73.3593ZM75.5802 14.5959C74.8806 14.5959 74.2786 14.3641 73.7742 13.9004C73.2698 13.4285 73.0176 12.8631 73.0176 12.2042C73.0176 11.5371 73.2698 10.9717 73.7742 10.5079C74.2786 10.0361 74.8806 9.80017 75.5802 9.80017C76.288 9.80017 76.89 10.0361 77.3863 10.5079C77.8907 10.9717 78.1429 11.5371 78.1429 12.2042C78.1429 12.8631 77.8907 13.4285 77.3863 13.9004C76.89 14.3641 76.288 14.5959 75.5802 14.5959Z" fill="#645CAA"/>
<path d="M86.7368 25.0173V36H82.3193V17.2562H86.5416V20.4412H86.7612C87.1924 19.3917 87.8798 18.5579 88.8235 17.9396C89.7754 17.3213 90.9509 17.0121 92.3502 17.0121C93.6437 17.0121 94.7705 17.2887 95.7304 17.8419C96.6985 18.3951 97.447 19.1965 97.9758 20.2459C98.5127 21.2954 98.7771 22.5686 98.769 24.0655V36H94.3515V24.7488C94.3515 23.496 94.0261 22.5157 93.3753 21.8079C92.7326 21.1001 91.8417 20.7463 90.7028 20.7463C89.9299 20.7463 89.2425 20.9171 88.6405 21.2588C88.0466 21.5923 87.5788 22.0764 87.2371 22.7109C86.9036 23.3455 86.7368 24.1143 86.7368 25.0173Z" fill="#645CAA"/>
<path d="M111.411 43.4194C109.825 43.4194 108.462 43.2038 107.323 42.7727C106.184 42.3496 105.269 41.7802 104.578 41.0642C103.886 40.3483 103.406 39.5551 103.138 38.6847L107.116 37.7206C107.295 38.0867 107.555 38.4487 107.897 38.8067C108.238 39.1728 108.698 39.4738 109.276 39.7097C109.861 39.9538 110.598 40.0758 111.484 40.0758C112.737 40.0758 113.775 39.7707 114.596 39.1606C115.418 38.5586 115.829 37.5661 115.829 36.183V32.632H115.609C115.381 33.0876 115.048 33.5553 114.608 34.0353C114.177 34.5153 113.604 34.918 112.888 35.2434C112.18 35.5688 111.289 35.7315 110.215 35.7315C108.775 35.7315 107.47 35.3939 106.298 34.7187C105.135 34.0353 104.207 33.0184 103.516 31.6679C102.833 30.3093 102.491 28.6091 102.491 26.5671C102.491 24.5088 102.833 22.772 103.516 21.3564C104.207 19.9327 105.139 18.8548 106.31 18.1226C107.482 17.3823 108.788 17.0121 110.228 17.0121C111.326 17.0121 112.229 17.1993 112.937 17.5735C113.653 17.9396 114.222 18.3829 114.645 18.9036C115.068 19.4161 115.389 19.9002 115.609 20.3558H115.853V17.2562H120.21V36.3051C120.21 37.9077 119.827 39.2338 119.063 40.2833C118.298 41.3327 117.252 42.1178 115.926 42.6384C114.6 43.1591 113.095 43.4194 111.411 43.4194ZM111.448 32.2659C112.383 32.2659 113.181 32.0381 113.84 31.5825C114.499 31.1269 114.999 30.472 115.341 29.6178C115.682 28.7636 115.853 27.7386 115.853 26.5427C115.853 25.3631 115.682 24.3299 115.341 23.4431C115.007 22.5564 114.511 21.8689 113.852 21.3808C113.201 20.8846 112.4 20.6364 111.448 20.6364C110.464 20.6364 109.642 20.8927 108.983 21.4052C108.324 21.9177 107.828 22.6215 107.494 23.5163C107.161 24.4031 106.994 25.4119 106.994 26.5427C106.994 27.6898 107.161 28.6945 107.494 29.5568C107.836 30.411 108.336 31.0781 108.995 31.5581C109.662 32.03 110.48 32.2659 111.448 32.2659Z" fill="#645CAA"/>
<path d="M195.465 36V11.0083H199.882V20.3558H200.065C200.293 19.9002 200.615 19.4161 201.03 18.9036C201.444 18.3829 202.006 17.9396 202.714 17.5735C203.421 17.1993 204.324 17.0121 205.423 17.0121C206.871 17.0121 208.176 17.3823 209.34 18.1226C210.511 18.8548 211.439 19.9409 212.122 21.3808C212.814 22.8126 213.159 24.5699 213.159 26.6525C213.159 28.7107 212.822 30.4598 212.146 31.8998C211.471 33.3397 210.552 34.438 209.389 35.1946C208.225 35.9512 206.907 36.3295 205.435 36.3295C204.361 36.3295 203.47 36.1505 202.762 35.7925C202.055 35.4346 201.485 35.0034 201.054 34.499C200.631 33.9865 200.301 33.5025 200.065 33.0469H199.809V36H195.465ZM199.797 26.6281C199.797 27.8403 199.968 28.9019 200.31 29.8131C200.659 30.7242 201.16 31.4361 201.811 31.9486C202.469 32.453 203.267 32.7052 204.202 32.7052C205.179 32.7052 205.996 32.4449 206.655 31.9242C207.314 31.3954 207.81 30.6754 208.144 29.7643C208.486 28.845 208.656 27.7996 208.656 26.6281C208.656 25.4647 208.49 24.4316 208.156 23.5285C207.823 22.6255 207.326 21.9177 206.667 21.4052C206.008 20.8927 205.187 20.6364 204.202 20.6364C203.259 20.6364 202.457 20.8846 201.798 21.3808C201.139 21.8771 200.639 22.5726 200.297 23.4675C199.964 24.3624 199.797 25.4159 199.797 26.6281Z" fill="#645CAA"/>
<path d="M216.915 36V17.2562H221.332V36H216.915ZM219.136 14.5959C218.436 14.5959 217.834 14.3641 217.33 13.9004C216.825 13.4285 216.573 12.8631 216.573 12.2042C216.573 11.5371 216.825 10.9717 217.33 10.5079C217.834 10.0361 218.436 9.80017 219.136 9.80017C219.844 9.80017 220.446 10.0361 220.942 10.5079C221.446 10.9717 221.698 11.5371 221.698 12.2042C221.698 12.8631 221.446 13.4285 220.942 13.9004C220.446 14.3641 219.844 14.5959 219.136 14.5959Z" fill="#645CAA"/>
<path d="M235.235 17.2562V20.673H224.459V17.2562H235.235ZM227.12 12.7655H231.537V30.3622C231.537 30.9561 231.627 31.4117 231.805 31.729C231.993 32.0381 232.237 32.2496 232.538 32.3635C232.839 32.4774 233.172 32.5343 233.538 32.5343C233.815 32.5343 234.067 32.514 234.295 32.4733C234.531 32.4327 234.71 32.396 234.832 32.3635L235.576 35.817C235.34 35.8983 235.003 35.9878 234.563 36.0854C234.132 36.183 233.603 36.24 232.977 36.2563C231.871 36.2888 230.874 36.122 229.987 35.7559C229.1 35.3817 228.397 34.8041 227.876 34.0231C227.364 33.2421 227.111 32.2659 227.12 31.0944V12.7655Z" fill="#645CAA"/>
<path d="M157.708 28.822C157.441 28.5309 157.176 28.2392 156.912 27.9482L153.243 23.9118C149.174 19.4821 146.279 16.807 142.182 16.807C140.22 16.807 138.423 17.569 137.124 18.9525C135.875 20.2831 135.187 22.0756 135.187 23.9999C135.187 25.9243 135.875 27.7168 137.124 29.0473C138.423 30.4309 140.22 31.1928 142.182 31.1928C144.892 31.1928 145.931 30.0736 148.844 27.3295C149.374 26.8306 150.049 26.5558 150.745 26.5558C151.525 26.5558 152.257 26.8893 152.807 27.4949L155.217 30.1466L154.37 31.0134C150.273 35.2069 147.673 38 142.182 38C134.79 38 129 31.8504 129 23.9997C129 16.1496 134.79 10 142.182 10C148.927 10 153.439 14.5256 157.692 19.1779C157.959 19.469 158.224 19.7607 158.488 20.0517L158.489 20.0522L162.157 24.0882C166.226 28.5179 169.121 31.193 173.218 31.193C175.18 31.193 176.977 30.431 178.276 29.0475C179.525 27.717 180.213 25.9244 180.213 24.0001C180.213 22.0758 179.525 20.2832 178.276 18.9527C176.977 17.5691 175.18 16.8072 173.218 16.8072C170.508 16.8072 169.469 17.9264 166.556 20.6705C166.026 21.1694 165.351 21.4442 164.655 21.4442C163.875 21.4442 163.143 21.1107 162.593 20.5051L160.183 17.8534L161.03 16.9866C165.127 12.7931 167.727 10 173.218 10C180.61 10 186.4 16.1496 186.4 24.0003C186.4 31.8504 180.61 38 173.218 38C166.473 38 161.961 33.4743 157.708 28.822Z" fill="#D0A2F7"/>
</svg>
