<svg width="80" height="80" viewBox="0 0 80 80" fill="none" xmlns="http://www.w3.org/2000/svg">
<path d="M73.8462 6.66663H6.15385C4.52174 6.66663 2.95649 7.30515 1.80242 8.44174C0.64835 9.57832 0 11.1199 0 12.7272V67.2727C0 68.8801 0.64835 70.4216 1.80242 71.5582C2.95649 72.6948 4.52174 73.3333 6.15385 73.3333H11.3038C11.8862 73.3335 12.4566 73.1709 12.9489 72.8645C13.4411 72.5581 13.8349 72.1204 14.0846 71.6022C15.5808 68.4912 17.9431 65.8623 20.8967 64.0215C23.8503 62.1806 27.2739 61.2033 30.7692 61.2033C34.2646 61.2033 37.6882 62.1806 40.6418 64.0215C43.5953 65.8623 45.9576 68.4912 47.4538 71.6022C47.7035 72.1204 48.0974 72.5581 48.5896 72.8645C49.0819 73.1709 49.6523 73.3335 50.2346 73.3333H73.8462C75.4783 73.3333 77.0435 72.6948 78.1976 71.5582C79.3517 70.4216 80 68.8801 80 67.2727V12.7272C80 11.1199 79.3517 9.57832 78.1976 8.44174C77.0435 7.30515 75.4783 6.66663 73.8462 6.66663ZM30.7692 55.1515C28.335 55.1515 25.9554 54.4406 23.9314 53.1087C21.9075 51.7768 20.3299 49.8837 19.3984 47.6688C18.4669 45.454 18.2231 43.0168 18.698 40.6655C19.1729 38.3142 20.3451 36.1545 22.0664 34.4593C23.7876 32.7641 25.9807 31.6097 28.3681 31.142C30.7556 30.6743 33.2302 30.9143 35.4792 31.8317C37.7281 32.7491 39.6503 34.3028 41.0027 36.2961C42.3551 38.2894 43.0769 40.6329 43.0769 43.0303C43.0769 46.245 41.7802 49.3281 39.4721 51.6013C37.1639 53.8744 34.0334 55.1515 30.7692 55.1515ZM73.8462 67.2727H52.0885C50.7467 64.9952 49.0371 62.9482 47.0269 61.2121H64.6154C65.4314 61.2121 66.2141 60.8928 66.7911 60.3245C67.3681 59.7562 67.6923 58.9855 67.6923 58.1818V21.8181C67.6923 21.0145 67.3681 20.2437 66.7911 19.6754C66.2141 19.1071 65.4314 18.7878 64.6154 18.7878H15.3846C14.5686 18.7878 13.7859 19.1071 13.2089 19.6754C12.6319 20.2437 12.3077 21.0145 12.3077 21.8181V58.1818C12.3073 58.8538 12.5339 59.507 12.9516 60.0384C13.3694 60.5698 13.9546 60.9494 14.6154 61.1174C12.5584 62.8724 10.8127 64.9526 9.45 67.2727H6.15385V12.7272H73.8462V67.2727Z" fill="#D0A2F7"/>
</svg>
