<svg width="41" height="20" viewBox="0 0 41 20" fill="none" xmlns="http://www.w3.org/2000/svg">
<path d="M20.5054 13.4443C20.3153 13.2363 20.1258 13.028 19.9368 12.8201L17.3164 9.93698C14.4097 6.77293 12.3425 4.86215 9.41557 4.86215C8.01397 4.86215 6.73097 5.40641 5.80299 6.39464C4.91077 7.34504 4.41922 8.62542 4.41922 9.99994C4.41922 11.3745 4.91077 12.6548 5.8031 13.6052C6.73097 14.5935 8.01397 15.1377 9.41557 15.1377C11.3514 15.1377 12.0937 14.3383 14.1743 12.3782C14.5526 12.0219 15.0351 11.8256 15.5324 11.8256C16.089 11.8256 16.612 12.0638 17.005 12.4964L18.7266 14.3904L18.1216 15.0096C15.1947 18.0049 13.3376 20 9.41557 20C4.1359 20 2.16893e-09 15.6074 2.16893e-09 9.99982C-0.000109365 4.39256 4.13568 7.52076e-06 9.41546 7.52076e-06C14.2335 7.52076e-06 17.4566 3.23259 20.4946 6.55566C20.6847 6.7636 20.8741 6.9719 21.0631 7.17977L21.0634 7.18017L23.6836 10.063C26.5903 13.2271 28.6575 15.1379 31.5844 15.1379C32.986 15.1379 34.269 14.5936 35.197 13.6054C36.0892 12.655 36.5807 11.3746 36.5807 10.0001C36.5807 8.62554 36.0892 7.34516 35.1968 6.39476C34.269 5.40654 32.986 4.86227 31.5844 4.86227C29.6485 4.86227 28.9062 5.66173 26.8256 7.62179C26.4473 7.97814 25.9649 8.17443 25.4675 8.17443C24.911 8.17443 24.388 7.93625 23.9949 7.50362L22.2734 5.6096L22.8784 4.99042C25.8053 1.99506 27.6623 0 31.5844 0C36.8641 0 41 4.39256 41 10.0002C41.0001 15.6074 36.8643 20 31.5845 20C26.7664 20 23.5434 16.7674 20.5054 13.4443Z" fill="#D0A2F7"/>
</svg>
