<svg width="44" height="44" viewBox="0 0 44 44" fill="none" xmlns="http://www.w3.org/2000/svg">
<rect width="44" height="44" rx="22" fill="#F1EAFF"/>
<mask id="mask0_9908_5403" style="mask-type:alpha" maskUnits="userSpaceOnUse" x="8" y="8" width="28" height="28">
<rect x="8" y="8" width="28" height="28" fill="#D9D9D9"/>
</mask>
<g mask="url(#mask0_9908_5403)">
<path d="M12.6667 31.3332C12.025 31.3332 11.4757 31.1047 11.0188 30.6478C10.5618 30.1908 10.3334 29.6415 10.3334 28.9998V14.9998C10.3334 14.3582 10.5618 13.8089 11.0188 13.3519C11.4757 12.895 12.025 12.6665 12.6667 12.6665H31.3334C31.975 12.6665 32.5243 12.895 32.9813 13.3519C33.4382 13.8089 33.6667 14.3582 33.6667 14.9998V28.9998C33.6667 29.6415 33.4382 30.1908 32.9813 30.6478C32.5243 31.1047 31.975 31.3332 31.3334 31.3332H12.6667ZM22 23.1665L31.3334 17.3332V14.9998L22 20.8332L12.6667 14.9998V17.3332L22 23.1665Z" fill="#D0A2F7"/>
</g>
</svg>
