<svg width="34" height="17" viewBox="0 0 34 17" fill="none" xmlns="http://www.w3.org/2000/svg">
<path d="M17.0043 11.2554C16.8513 11.0891 16.6988 10.9224 16.5467 10.7561L14.4376 8.44958C12.0981 5.91834 10.4342 4.38972 8.07838 4.38972C6.95027 4.38972 5.91761 4.82513 5.1707 5.61571C4.45257 6.37603 4.05693 7.40034 4.05693 8.49995C4.05693 9.59957 4.45257 10.6239 5.17079 11.3842C5.91761 12.1748 6.95027 12.6102 8.07838 12.6102C9.63651 12.6102 10.234 11.9706 11.9086 10.4026C12.2131 10.1175 12.6014 9.96046 13.0017 9.96046C13.4496 9.96046 13.8706 10.151 14.187 10.4971L15.5726 12.0123L15.0857 12.5077C12.7298 14.904 11.2351 16.5 8.07838 16.5C3.8289 16.5 0.5 12.986 0.5 8.49986C0.499912 4.01405 3.82872 0.500006 8.07829 0.500006C11.9563 0.500006 14.5504 3.08607 16.9957 5.74453C17.1487 5.91088 17.3011 6.07752 17.4532 6.24382L17.4535 6.24413L19.5624 8.55042C21.9019 11.0817 23.5658 12.6103 25.9216 12.6103C27.0497 12.6103 28.0824 12.1749 28.8293 11.3843C29.5474 10.624 29.943 9.59967 29.943 8.50005C29.943 7.40043 29.5474 6.37613 28.8292 5.61581C28.0824 4.82523 27.0497 4.38982 25.9216 4.38982C24.3634 4.38982 23.766 5.02938 22.0914 6.59743C21.7869 6.88251 21.3986 7.03955 20.9982 7.03955C20.5504 7.03955 20.1294 6.849 19.813 6.5029L18.4273 4.98768L18.9143 4.49233C21.2701 2.09605 22.7648 0.5 25.9216 0.5C30.1711 0.5 33.5 4.01404 33.5 8.50015C33.5001 12.986 30.1713 16.5 25.9217 16.5C22.0437 16.5 19.4496 13.9139 17.0043 11.2554Z" fill="#D0A2F7"/>
</svg>
