<svg width="44" height="44" viewBox="0 0 44 44" fill="none" xmlns="http://www.w3.org/2000/svg">
<rect width="44" height="44" rx="22" fill="#F1EAFF"/>
<path fill-rule="evenodd" clip-rule="evenodd" d="M14.78 9.57422C13.3991 9.57422 12.0747 10.1226 11.0981 11.0989C10.1215 12.0752 9.57255 13.3993 9.57202 14.7802V28.6682C9.57202 30.0495 10.1207 31.3741 11.0974 32.3508C12.0741 33.3275 13.3988 33.8762 14.78 33.8762H28.668C30.0489 33.8757 31.3731 33.3268 32.3493 32.3501C33.3256 31.3735 33.874 30.0491 33.874 28.6682V14.7802C33.8735 13.3997 33.3248 12.0758 32.3486 11.0996C31.3724 10.1234 30.0486 9.57475 28.668 9.57422H14.78ZM30.166 14.7882C30.166 15.186 30.008 15.5676 29.7267 15.8489C29.4454 16.1302 29.0638 16.2882 28.666 16.2882C28.2682 16.2882 27.8867 16.1302 27.6054 15.8489C27.3241 15.5676 27.166 15.186 27.166 14.7882C27.166 14.3904 27.3241 14.0089 27.6054 13.7276C27.8867 13.4463 28.2682 13.2882 28.666 13.2882C29.0638 13.2882 29.4454 13.4463 29.7267 13.7276C30.008 14.0089 30.166 14.3904 30.166 14.7882ZM21.726 17.5642C20.6227 17.5642 19.5646 18.0025 18.7845 18.7827C18.0043 19.5628 17.566 20.6209 17.566 21.7242C17.566 22.8275 18.0043 23.8856 18.7845 24.6658C19.5646 25.4459 20.6227 25.8842 21.726 25.8842C22.8293 25.8842 23.8874 25.4459 24.6676 24.6658C25.4477 23.8856 25.886 22.8275 25.886 21.7242C25.886 20.6209 25.4477 19.5628 24.6676 18.7827C23.8874 18.0025 22.8293 17.5642 21.726 17.5642ZM15.564 21.7242C15.564 20.0905 16.213 18.5237 17.3682 17.3684C18.5235 16.2132 20.0903 15.5642 21.724 15.5642C23.3578 15.5642 24.9246 16.2132 26.0798 17.3684C27.235 18.5237 27.884 20.0905 27.884 21.7242C27.884 23.358 27.235 24.9248 26.0798 26.08C24.9246 27.2352 23.3578 27.8842 21.724 27.8842C20.0903 27.8842 18.5235 27.2352 17.3682 26.08C16.213 24.9248 15.564 23.358 15.564 21.7242Z" fill="#D0A2F7"/>
</svg>
