<svg width="44" height="44" viewBox="0 0 44 44" fill="none" xmlns="http://www.w3.org/2000/svg">
<rect width="44" height="44" rx="22" fill="#F1EAFF"/>
<path d="M31.8 9.3999H12.2C10.66 9.3999 9.40002 10.6599 9.40002 12.1999V31.7999C9.40002 33.3413 10.66 34.5999 12.2 34.5999H22V24.7999H19.2V21.3349H22V18.4649C22 15.4353 23.6968 13.3073 27.2724 13.3073L29.7966 13.3101V16.9571H28.1208C26.7292 16.9571 26.2 18.0015 26.2 18.9703V21.3363H29.7952L29 24.7999H26.2V34.5999H31.8C33.34 34.5999 34.6 33.3413 34.6 31.7999V12.1999C34.6 10.6599 33.34 9.3999 31.8 9.3999Z" fill="#D0A2F7"/>
</svg>
