<svg width="24" height="24" viewBox="0 0 24 24" fill="none" xmlns="http://www.w3.org/2000/svg">
<path d="M22.1538 2H1.84615C1.35652 2 0.886947 2.19156 0.540726 2.53253C0.194505 2.87351 0 3.33597 0 3.81818V20.1818C0 20.664 0.194505 21.1265 0.540726 21.4675C0.886947 21.8084 1.35652 22 1.84615 22H3.39115C3.56585 22.0001 3.73698 21.9513 3.88466 21.8594C4.03233 21.7674 4.15048 21.6361 4.22538 21.4807C4.67425 20.5474 5.38294 19.7587 6.26901 19.2065C7.15509 18.6542 8.18216 18.361 9.23077 18.361C10.2794 18.361 11.3064 18.6542 12.1925 19.2065C13.0786 19.7587 13.7873 20.5474 14.2362 21.4807C14.3111 21.6361 14.4292 21.7674 14.5769 21.8594C14.7246 21.9513 14.8957 22.0001 15.0704 22H22.1538C22.6435 22 23.1131 21.8084 23.4593 21.4675C23.8055 21.1265 24 20.664 24 20.1818V3.81818C24 3.33597 23.8055 2.87351 23.4593 2.53253C23.1131 2.19156 22.6435 2 22.1538 2ZM9.23077 16.5455C8.5005 16.5455 7.78663 16.3322 7.17943 15.9326C6.57224 15.533 6.09898 14.9651 5.81952 14.3007C5.54006 13.6362 5.46694 12.9051 5.60941 12.1997C5.75188 11.4943 6.10353 10.8463 6.61991 10.3378C7.13629 9.82924 7.7942 9.48291 8.51044 9.3426C9.22667 9.20229 9.96907 9.2743 10.6438 9.54953C11.3184 9.82476 11.8951 10.2908 12.3008 10.8888C12.7065 11.4868 12.9231 12.1899 12.9231 12.9091C12.9231 13.8735 12.5341 14.7984 11.8416 15.4804C11.1492 16.1623 10.21 16.5455 9.23077 16.5455ZM22.1538 20.1818H15.6265C15.224 19.4986 14.7111 18.8845 14.1081 18.3636H19.3846C19.6294 18.3636 19.8642 18.2679 20.0373 18.0974C20.2104 17.9269 20.3077 17.6957 20.3077 17.4545V6.54545C20.3077 6.30435 20.2104 6.07312 20.0373 5.90263C19.8642 5.73214 19.6294 5.63636 19.3846 5.63636H4.61538C4.37057 5.63636 4.13578 5.73214 3.96267 5.90263C3.78956 6.07312 3.69231 6.30435 3.69231 6.54545V17.4545C3.6922 17.6562 3.76016 17.8521 3.88549 18.0115C4.01081 18.1709 4.18639 18.2848 4.38462 18.3352C3.76752 18.8617 3.24381 19.4858 2.835 20.1818H1.84615V3.81818H22.1538V20.1818Z" fill="#1E1E1E"/>
</svg>
